<?xml version="1.0" encoding="utf-8"?>
<!-- Generator: Adobe Illustrator 21.1.0, SVG Export Plug-In . SVG Version: 6.00 Build 0)  -->
<svg version="1.1" id="Calque_1" xmlns="http://www.w3.org/2000/svg" xmlns:xlink="http://www.w3.org/1999/xlink" x="0px" y="0px"
	 viewBox="0 0 54.6 32.6" style="enable-background:new 0 0 54.6 32.6;" xml:space="preserve">
<style type="text/css">
	.st0{fill:#96A3B0;}
	.st1{fill:#FFFBDC;}
	.st2{fill:#FFFFFF;}
	.st3{fill:#BA9D6A;}
	.st4{fill:#A3715E;}
</style>
<title>eagle</title>
<g id="Calque_2">
	<g id="Layer_1">
		<path class="st0" d="M30.6,0.2l-2.5,2.2c0.1,0.1,0.1,0.1,0.1,0.2C28.5,3,28.8,3.4,29,3.9c0.7,1.3,1.1,2.8,1.3,4.3
			c0.1,0.7,0.1,1.4,0,2.1h0.4c0.7,0.1,1.3,0.2,2,0.4c0.3,0.1,0.5,0.2,0.7,0.4V8.9c0.1-1-0.1-2-0.4-3l-1,0.7c0.2-0.3,0.4-0.7,0.6-1
			l0,0c0.1-0.1,0.1-0.2,0.1-0.3C33.5,3.2,32.8,1.5,30.6,0.2z"/>
		<path class="st1" d="M28.2,2.7c0-0.1,0-0.1-0.1-0.2l-2,1.7c0.3,0.9,0.6,1.8,0.9,2.6c0.3,0.9,0.6,1.8,0.7,2.7c0,0.4,0,0.9-0.1,1.3
			c0.1,0,0.2,0,0.3-0.1c0.8-0.2,1.5-0.3,2.3-0.4c0.1-0.7,0.1-1.4,0-2.1c-0.1-1.5-0.6-3-1.2-4.3C28.8,3.4,28.5,3,28.2,2.7z"/>
		<path class="st0" d="M38.2,8.4l-0.4,0.5l0.1-0.2l0.1-0.2l1.7-2c2.2-2.6,2.2-4.5,0-5.8l-4.5,3.5l0,0c0,0.2,0.1,0.4,0.2,0.6
			c0.3,0.9,0.5,1.8,0.5,2.8c0.3,2,0.4,4,0.3,6c0.4,0.7,0.7,1.5,0.9,2.4v1l0.5,0.1L38,12C38,10.9,38.2,9.6,38.2,8.4z"/>
		<path class="st2" d="M40.8,7.1L40,7.5l0.7,1.4c0.1-0.4,0.1-0.9,0.1-1.3V7.1z"/>
		<path class="st1" d="M40.8,8.9L40,7.5l-1.9,1c0,1.2-0.1,2.4-0.2,3.5l-0.5,5.1L37,17c0,0.9-0.1,1.9-0.5,2.7c0.5,0.3,1,0.5,1.4,0.8
			l0.6,0.6C39.9,17.2,40.6,13,40.8,8.9z"/>
		<path class="st0" d="M40.8,7.6c0,0.4,0,0.9-0.1,1.3c-0.2,4.2-0.9,8.3-2.3,12.2c0.6,0.6,1,1.3,1.3,2.1c0,0.1,0,0.3,0.1,0.4
			c0.6-1.7,1.2-3.2,1.7-4.8c0.6-1.7,1-3.4,1.3-5.2c0.5-2.6,0.8-5.2,0.8-7.8V5.6l-2.8,1.5V7.6z"/>
		<path class="st1" d="M35.3,4.8c-0.1-0.2-0.2-0.4-0.2-0.6L33,5.8c0.3,1,0.5,2,0.4,3v2.2c0.5,0.1,0.9,0.4,1.2,0.8
			c0.2,0.1,0.4,0.2,0.5,0.4c0.4,0.4,0.8,0.9,1.1,1.4c0.1-2,0-4-0.3-6C35.9,6.7,35.7,5.7,35.3,4.8z"/>
		<path class="st0" d="M36.2,13.6c-0.3-0.5-0.7-1-1.1-1.4c-0.1-0.2-0.3-0.3-0.5-0.4c-0.3-0.4-0.7-0.7-1.2-0.8
			c-0.2-0.2-0.4-0.3-0.7-0.4c-0.7-0.2-1.3-0.3-2-0.4h-0.4c-0.8,0.1-1.5,0.2-2.3,0.4c-0.1,0.1-0.2,0.1-0.3,0.1
			c-0.8,0.3-1.5,0.9-2.1,1.5c-0.4,0.4-0.7,0.8-0.9,1.2c-0.8,1.4-0.9,3.1-0.4,4.7l0.3-0.1c0-1.1,0.4-2.1,1.1-2.9
			c0.8-0.7,1.8-1.1,2.9-1.1c1,0,2,0.4,2.8,1.1c0.2,0.2,0.3,0.4,0.5,0.6c0.4,0.7,0.7,1.5,0.7,2.3c0,1.1-0.4,2.1-1.2,2.8l0,0
			c-0.6,0.7-1.5,1.1-2.5,1.2c0.8,0,1.6,0.1,2.4,0.4c0.2,0.1,0.5,0.2,0.7,0.3c0.4,0.2,0.8,0.5,1.1,0.8c0.6-0.5,1.1-1,1.5-1.4
			c0.1-0.1,0.2-0.1,0.3-0.2s0.1-0.2,0.2-0.2c0.1-0.2,0.2-0.2,0.3-0.4c0.5-0.5,0.9-1.1,1.1-1.7c0.4-0.8,0.6-1.7,0.5-2.6v-1
			C36.8,15.2,36.5,14.4,36.2,13.6z"/>
		<path class="st1" d="M31.4,15.1c-0.8-0.7-1.8-1.1-2.8-1.1c-1.1,0-2.1,0.4-2.9,1.1c-0.7,0.8-1.1,1.8-1.1,2.9c0,0.5,0.1,1,0.3,1.5
			v0.1c0.2,0.4,0.5,0.8,0.8,1.2c0.2,0.2,0.4,0.4,0.7,0.5l2.2-2.3c-0.2,0-0.3,0.1-0.5,0.1c-0.3,0-0.7-0.2-0.9-0.4
			c-0.3-0.2-0.4-0.6-0.4-0.9c0-0.7,0.5-1.2,1.2-1.2c0,0,0.1,0,0.1,0c0.3,0,0.5,0,0.7,0.2l0.1,0.1c0.3,0.2,0.4,0.6,0.4,0.9
			c0,0.2,0,0.4-0.1,0.6l2.7-2.7C31.6,15.6,31.5,15.4,31.4,15.1z"/>
		<path class="st0" d="M27,6.8c-0.3-0.8-0.6-1.7-0.9-2.6L22.9,7c0.8,0.4,1.5,1.1,1.7,2c0.3,1.5,0.4,3,0.1,4.5
			c0.2-0.4,0.5-0.8,0.9-1.2c0.6-0.6,1.3-1.2,2.1-1.5c0.1-0.4,0.1-0.9,0.1-1.3C27.6,8.6,27.4,7.6,27,6.8z"/>
		<path class="st3" d="M24.5,9c-0.2-0.9-0.9-1.6-1.7-2c-0.8-0.3-1.6-0.5-2.5-0.5c-2.4,0-3.6,1-3.6,2.9c0,0.4,0.1,0.8,0.2,1.2
			c0.3,1.1,1.1,1.6,2.5,1.6c1.1,0,1.7-0.5,1.7-1.4c0-0.7-0.2-1.2-0.7-1.4c0.5,0.2,0.7,0.7,0.7,1.4c0,0.9-0.6,1.4-1.7,1.4
			c-1.4,0-2.2-0.5-2.5-1.6c-2.1-0.6-4.2-0.9-6.4-0.8C8,10,5.7,11.4,4.3,13.5c-1.1,1.9-1.5,4.2-0.9,6.4c0.4,1.9,1.4,2.8,3,2.7
			l0.7-0.3c-0.8-1.3-0.7-3,0.4-4.2c1.4-1.1,3.2-1.4,4.8-0.8c2,0.6,4.3,2.2,7.1,4.9l0.1,0.1c1.8,1.9,4.2,3.1,6.8,3.5
			c0.2,0,0.4,0,0.6,0.1c-0.2-0.1-0.4-0.1-0.6-0.1l-16.6-1c-0.5,0-1,0.1-1.4,0.3c-0.1,0.1-0.3,0.2-0.4,0.3c-0.4,0.4-0.4,0.9-0.2,1.7
			s1.6,1.3,3.9,1.8l6.7,0.7c4.4,0.6,8.8,0.7,13.2,0.3H32c0.4-0.3,0.8-0.6,1.2-0.9c1.2-1.1,1.4-2.6,0.7-4.4c-0.1-0.1-0.1-0.1-0.1-0.2
			l-0.5-0.5l-0.3-0.3c-0.3-0.3-0.7-0.6-1.1-0.8c-0.2-0.1-0.5-0.2-0.7-0.3c-0.8-0.3-1.6-0.4-2.4-0.4h-0.3c-0.8,0-1.6-0.2-2.2-0.7
			c-0.3-0.1-0.5-0.3-0.7-0.5c-0.3-0.4-0.6-0.8-0.8-1.2v-0.1c-0.3-0.4-0.5-0.9-0.6-1.4c-0.5-1.6-0.4-3.3,0.4-4.7
			C24.9,12,24.9,10.5,24.5,9z"/>
		<path class="st1" d="M29.1,18.5c0.1-0.2,0.1-0.4,0.1-0.6c0-0.3-0.1-0.7-0.4-0.9l-0.1-0.1c-0.2-0.2-0.4-0.2-0.7-0.2
			c-0.7-0.1-1.2,0.4-1.3,1.1c0,0,0,0.1,0,0.1c0,0.3,0.1,0.7,0.4,0.9c0.2,0.2,0.6,0.4,0.9,0.4c0.2,0,0.3-0.1,0.5-0.1L29.1,18.5z"/>
		<path class="st4" d="M28.5,19l-2.2,2.3c0.6,0.5,1.4,0.7,2.2,0.7h0.3c1-0.1,1.9-0.5,2.5-1.2l0,0c0.8-0.7,1.2-1.7,1.2-2.8
			c0-0.8-0.3-1.6-0.7-2.3l-2.7,2.7l-0.3,0.3l-0.1,0.1L28.5,19z"/>
		<path class="st0" d="M38.5,21l-0.6-0.6c-0.4-0.3-0.9-0.5-1.4-0.8c-0.2,0.6-0.6,1.2-1.1,1.7c1.3,0.8,2.1,2.2,2.1,3.8
			c0,1.1-0.5,2.1-1.2,2.8c-0.8,0.8-1.9,1.2-3,1c-0.4,0.3-0.8,0.6-1.2,0.9c0.9,0.4,2,0.6,3,0.5c1,0,1.9-0.2,2.8-0.7l0.5-0.5
			c1-1.3,1.6-3,1.5-4.7v-0.9c-0.1-0.1-0.1-0.3-0.1-0.4C39.5,22.4,39,21.6,38.5,21z"/>
		<path class="st1" d="M35.3,21.4c-0.1,0.2-0.2,0.2-0.3,0.4c-0.1,0-0.1,0.1-0.2,0.2s-0.2,0.1-0.3,0.2c-0.4,0.4-0.9,0.9-1.5,1.4
			l0.3,0.3l0.5,0.5c0,0.1,0,0.1,0.1,0.2c0.7,1.8,0.5,3.3-0.7,4.4c1.1,0.2,2.2-0.2,3-1c0.7-0.7,1.2-1.7,1.2-2.8
			C37.5,23.6,36.7,22.1,35.3,21.4z"/>
		<path class="st2" d="M39.8,23.5v0.9c0.1,1.7-0.5,3.4-1.5,4.7c0.2,0.3,0.4,0.5,0.6,0.7c1.8-2.8,3.4-5.7,4.6-8.8
			c0.9-2.4,1.6-4.9,2.1-7.4H43l-0.1-0.1c-0.3,1.8-0.7,3.5-1.3,5.2C41,20.4,40.5,21.9,39.8,23.5z"/>
		<path class="st4" d="M3.7,23.6c-0.7,0.4-1.5,0.6-2.3,0.7c-0.2,0.1-0.5,0.2-0.7,0.3c-0.3,0-0.4,0.3-0.4,0.7s0.9,0.8,2.8,1.1
			c1.7,0.3,3.5-0.1,4.9-1.1c0.1-0.1,0.3-0.2,0.4-0.3c0.4-0.2,0.9-0.3,1.4-0.3l16.6,1c-2.6-0.4-5-1.6-6.8-3.5l-0.1-0.1
			c-4-0.5-8-0.5-11.9,0.1c-0.1,0.1-0.3,0.1-0.4,0.1v0.1c-0.2,0.1-0.5,0.1-0.7,0.1C5.5,22.8,4.6,23.2,3.7,23.6z"/>
		<path class="st0" d="M39,29.9c0.6,0.4,1.1,0.8,1.5,1.1c0.9,0.6,1.9,1,3,1.2c0.6-1.6,1.2-3.3,1.7-4.8L43,25l-0.1-0.1H43V25
			c0.9,0.4,1.8,0.7,2.6,1.1c0.6-2.2,1.2-4.2,1.6-6.1L45,18.5c0.8,0.2,1.6,0.4,2.4,0.4h0.1l0.8-5.3h-2.6c-0.5,2.5-1.2,5-2.1,7.4
			C42.4,24.1,40.8,27.1,39,29.9z"/>
		<path class="st0" d="M48.7,6.7c0.1-0.7,0.1-1.4,0-2.1C48.5,4,48.4,3.5,48.2,3l-1.8,1c0.1,2.4,0,4.8-0.3,7.2
			C47.4,10,48.3,8.4,48.7,6.7z"/>
		<path class="st1" d="M43.7,5.6v0.2c0,2.6-0.3,5.2-0.8,7.8l0.1,0.1c0-0.1,0-0.1,0.1-0.1c0.7-0.5,1.3-1,1.9-1.4
			c0.3-0.4,0.7-0.7,1.1-1c0.3-2.4,0.4-4.8,0.3-7.2L43.7,5.6z"/>
		<path class="st1" d="M51.2,13.6h-3L47.5,19c1,0.1,2-0.1,2.9-0.4L51.2,13.6z"/>
		<path class="st0" d="M50.3,18.5c0-0.1,0-0.1,0.1-0.1c1.8-0.7,3.1-2.4,3.9-4.8h-3.1L50.3,18.5z"/>
		<path class="st1" d="M49.8,21.5L47.2,20c-0.4,1.9-1,3.9-1.6,6.1c0.2,0,0.4,0.1,0.6,0.1c0.8,0.2,1.6,0.4,2.3,0.5
			C49,24.9,49.5,23.2,49.8,21.5z"/>
		<path class="st0" d="M48.5,26.6H49c2.3,0.1,4.1-0.6,5.2-2.4l-4.3-2.7C49.5,23.2,49,24.9,48.5,26.6z"/>
		<path class="st0" d="M47.5,29.9c-0.3,0.8-0.6,1.6-0.8,2.4c0.8-0.1,1.6-0.3,2.4-0.6L47.5,29.9z"/>
		<path class="st1" d="M46.7,32.2c0.2-0.8,0.5-1.6,0.8-2.4l-2.3-2.5c-0.5,1.5-1.1,3.2-1.7,4.8C44.5,32.3,45.6,32.4,46.7,32.2z"/>
		<path d="M22.9,7.2c-0.1,0-0.1,0-0.2-0.1c-0.1-0.1-0.1-0.2,0-0.3c0,0,0,0,0,0L28,2.3l2.5-2.2c0.1-0.1,0.2-0.1,0.3,0
			c2.3,1.4,3,3.2,2.1,5.3c-0.1,0.1-0.2,0.2-0.3,0.1c0,0,0,0,0,0c-0.1-0.1-0.2-0.2-0.1-0.3c0.8-1.8,0.2-3.4-1.7-4.6l-2.4,2L23,7.1
			C23,7.2,22.9,7.2,22.9,7.2z"/>
		<path d="M49.4,26.9h-0.9c-0.8-0.1-1.6-0.3-2.4-0.5c-0.1,0-0.2,0-0.3,0c-0.1,0-0.2,0-0.3-0.1c-0.5-0.2-1-0.4-1.5-0.6
			s-0.8-0.3-1.1-0.5c-0.1-0.1-0.2-0.2-0.1-0.3c0.1-0.1,0.2-0.2,0.3-0.1c0,0,0,0,0,0c0.4,0.2,0.8,0.3,1.1,0.5c0.5,0.2,1,0.4,1.5,0.6
			c0.1,0,0.2,0,0.3,0.1c0.1,0,0.2,0,0.2,0c0.8,0.2,1.7,0.4,2.3,0.5H49c2.3,0.1,3.8-0.6,4.8-2.1l-4.1-2.6L47,20.2l-2.2-1.4
			c-0.1-0.1-0.1-0.2-0.1-0.3c0-0.1,0.2-0.2,0.3-0.1c0.8,0.2,1.5,0.3,2.3,0.4h0.1c0.9,0.1,1.8,0,2.7-0.4c0.1-0.1,0.1-0.1,0.2-0.1
			c1.6-0.6,2.8-2.1,3.6-4.3H43c-0.1,0-0.2-0.1-0.2-0.2c0-0.2,0.1-0.3,0.2-0.3l0.8-0.6c0.4-0.3,0.7-0.5,1-0.8c0.3-0.4,0.7-0.7,1.1-1
			c1.3-1.1,2.2-2.7,2.5-4.3c0.1-0.7,0.1-1.3,0-2c-0.1-0.4-0.3-0.9-0.5-1.3l-1.5,0.9l-2.7,1.6l-5.5,2.9L38,9.1
			c-0.1,0.1-0.2,0.1-0.3,0.1c-0.1-0.1-0.2-0.2-0.1-0.3l0.1-0.2c0-0.1,0.1-0.1,0.2-0.1L38,8.3c0,0,0,0,0.1-0.1l5.5-2.9l2.7-1.6l1.8-1
			c0.1,0,0.1,0,0.2,0c0.1,0,0.1,0.1,0.2,0.2c0.2,0.5,0.4,1.1,0.5,1.6C49,5.2,49,6,48.9,6.7c-0.4,1.8-1.3,3.4-2.7,4.6
			c-0.4,0.3-0.7,0.6-1.1,1h-0.1c-0.3,0.2-0.7,0.5-1,0.7l-0.4,0.3h10.6c0.1,0,0.2,0,0.2,0.1c0,0.1,0,0.2,0,0.2
			c-0.8,2.5-2.2,4.2-4,4.9c0,0.1-0.1,0.1-0.1,0.1c-1,0.3-2,0.5-3,0.4h-0.1c-0.4,0-0.7,0-1.1-0.1l1,0.6l2.8,1.6l4.3,2.7
			c0.1,0.1,0.2,0.2,0.1,0.3c0,0,0,0,0,0C53.3,26.1,51.4,27.1,49.4,26.9z"/>
		<path d="M38,8.8c-0.1,0-0.1,0-0.2-0.1c-0.1-0.1-0.1-0.2,0-0.3c0,0,0,0,0,0l1.7-2C40.7,5,41.2,3.8,41,2.8c-0.2-0.8-0.7-1.4-1.3-1.8
			l-4.4,3.4l-3.2,2.3c-0.1,0.1-0.2,0.1-0.3,0c-0.1-0.1-0.1-0.2,0-0.3c0.2-0.3,0.4-0.7,0.6-1c0-0.1,0.2-0.2,0.3-0.2s0.2,0.2,0.2,0.3
			c0,0,0,0.1,0,0.1l0,0L35,4.1l4.5-3.5c0.1-0.1,0.2-0.1,0.3,0c0.9,0.4,1.5,1.2,1.7,2.2c0.2,1.1-0.3,2.4-1.7,4l-1.7,2
			C38.1,8.8,38.1,8.8,38,8.8z"/>
		<path d="M36.5,19.9c0,0-0.1,0-0.1,0c-0.1-0.1-0.2-0.2-0.1-0.3c0,0,0,0,0,0c0.4-0.8,0.5-1.7,0.5-2.6v-1c-0.2-0.8-0.4-1.5-0.8-2.2
			c-0.3-0.5-0.7-0.9-1.1-1.3c-0.1-0.1-0.3-0.3-0.4-0.4c0,0-0.1,0-0.1-0.1c-0.3-0.3-0.7-0.6-1.1-0.7h-0.1c-0.1-0.1-0.3-0.2-0.5-0.3
			L32.5,11c-0.6-0.2-1.3-0.3-1.9-0.4h-0.4c-0.7,0.1-1.5,0.2-2.2,0.4c-0.1,0.1-0.2,0.1-0.4,0.1c-0.8,0.3-1.4,0.8-2,1.4
			c0,0,0,0-0.1,0.1c-0.2,0.2-0.4,0.5-0.6,0.8l-0.2,0.3c-0.1,0.1-0.2,0.1-0.4,0.1c-0.1-0.1-0.1-0.2-0.1-0.3l0.2-0.3
			c0.2-0.4,0.4-0.7,0.8-1c0.6-0.6,1.3-1.2,2.1-1.5c0,0,0.1,0,0.1,0c0.1,0,0.1,0,0.1,0c0,0,0.1-0.1,0.1-0.1c0.8-0.2,1.6-0.4,2.4-0.5
			h0.4c0.7,0.1,1.4,0.2,2.1,0.4l0.2,0.1c0.2,0.1,0.4,0.2,0.6,0.4c0.5,0.2,0.9,0.4,1.2,0.8c0.2,0.1,0.4,0.3,0.5,0.4
			c0.4,0.4,0.8,0.9,1.1,1.4c0.4,0.8,0.7,1.5,0.8,2.4V17c0,1-0.1,1.9-0.5,2.8C36.6,19.9,36.5,19.9,36.5,19.9z"/>
		<path d="M28.9,22.3c-0.1,0-0.2-0.1-0.2-0.2s0.1-0.2,0.2-0.2c0.9-0.1,1.7-0.5,2.3-1.1c0.7-0.7,1.1-1.6,1.1-2.6
			c0-0.8-0.2-1.5-0.6-2.1c-0.1-0.1-0.2-0.2-0.2-0.3c-0.1-0.1-0.1-0.2-0.2-0.3c-0.7-0.7-1.7-1-2.6-1c-1,0-2,0.3-2.7,1
			c-0.7,0.8-1,1.7-1,2.7c0,0.5,0.1,1,0.3,1.4c0.1,0.1,0,0.3-0.1,0.3s-0.3,0-0.3-0.1c0,0,0,0,0-0.1c-0.2-0.5-0.3-1-0.3-1.6
			c0-1.1,0.4-2.2,1.1-3c0.8-0.8,1.9-1.2,3.1-1.2c1.1,0,2.2,0.4,3,1.2c0.1,0.1,0.2,0.2,0.3,0.3c0.1,0.1,0.1,0.2,0.2,0.3v0.1
			c0.5,0.7,0.7,1.6,0.7,2.4c0,1.1-0.4,2.2-1.3,3C30.8,21.8,29.9,22.2,28.9,22.3z"/>
		<path d="M24.6,13.7L24.6,13.7c-0.2,0-0.3-0.2-0.2-0.3c0.3-1.5,0.2-3-0.1-4.4c-0.2-0.8-0.8-1.5-1.5-1.8c-0.1-0.1-0.2-0.2-0.1-0.3
			c0.1-0.1,0.2-0.2,0.3-0.1c0.9,0.4,1.6,1.2,1.8,2.2c0.3,1.5,0.4,3.1,0.1,4.6C24.9,13.6,24.8,13.7,24.6,13.7z"/>
		<path d="M28,19.4c-0.4,0-0.8-0.2-1-0.5c-0.3-0.3-0.5-0.7-0.5-1.1c0-0.4,0.2-0.8,0.5-1.1c0.3-0.3,0.7-0.4,1.1-0.4
			c0.3,0,0.6,0.1,0.9,0.3l0.1,0.1c0.5,0.5,0.6,1.2,0.3,1.8c-0.1,0.1-0.2,0.1-0.4,0.1c-0.1-0.1-0.1-0.2-0.1-0.3
			C29,18.2,29,18,29,17.9c0-0.3-0.1-0.5-0.3-0.7L28.6,17c-0.2-0.1-0.3-0.2-0.5-0.1c-0.6,0-1,0.4-1,0.9c0,0,0,0,0,0.1
			c0,0.3,0.1,0.6,0.3,0.7c0.3,0.3,0.6,0.4,1,0.3c0.1,0,0.2,0,0.2,0c0.1,0,0.2,0.1,0.2,0.2s-0.1,0.2-0.2,0.2h-0.1
			C28.4,19.4,28.2,19.4,28,19.4z"/>
		<path d="M28.5,19.3c-0.1,0-0.1,0-0.2-0.1c-0.1-0.1-0.1-0.3,0-0.4l0.6-0.6c0.1-0.1,0.3-0.1,0.4,0c0,0,0,0,0,0
			c0.1,0.1,0.1,0.3,0,0.4l-0.6,0.6C28.7,19.3,28.6,19.3,28.5,19.3z"/>
		<path d="M28.5,19.3c-0.1,0-0.1,0-0.2-0.1c-0.1-0.1-0.1-0.3,0-0.4l0.6-0.6c0.1-0.1,0.3-0.1,0.4,0c0,0,0,0,0,0
			c0.1,0.1,0.1,0.3,0,0.4l-0.6,0.6C28.7,19.3,28.6,19.3,28.5,19.3z"/>
		<path d="M28.9,22.3h-0.3c-0.8,0-1.7-0.2-2.3-0.8c-0.3-0.1-0.5-0.3-0.7-0.5c-0.3-0.4-0.6-0.8-0.8-1.3c0,0,0-0.1,0-0.1v-0.1
			c0-0.1,0.1-0.2,0.2-0.2s0.2,0.1,0.2,0.2l0,0c0.2,0.4,0.5,0.7,0.7,1.1c0.2,0.2,0.4,0.3,0.6,0.5c0.6,0.4,1.3,0.7,2.1,0.7h0.3
			c0.1,0,0.2,0.1,0.2,0.2S29,22.3,28.9,22.3L28.9,22.3z"/>
		<path d="M24.9,19.8c-0.1,0-0.2,0-0.2-0.1c-0.3-0.5-0.5-1-0.6-1.5c-0.5-1.6-0.4-3.4,0.4-4.9c0.1-0.1,0.2-0.2,0.3-0.1
			c0.1,0.1,0.2,0.2,0.1,0.3c0,0,0,0,0,0c-0.7,1.4-0.9,3-0.4,4.5c0.1,0.5,0.3,0.9,0.6,1.3c0.1,0.1,0,0.3-0.1,0.3c0,0,0,0,0,0
			C24.9,19.8,24.9,19.8,24.9,19.8z"/>
		<path d="M27,26.1c0,0-0.1,0-0.1,0C26.7,26,26.6,26,26.4,26c-0.1,0-0.2-0.1-0.2-0.2s0.1-0.2,0.2-0.2c0.2,0,0.5,0,0.7,0.1
			c0.1,0,0.2,0.2,0.1,0.3c0,0,0,0,0,0C27.2,26.1,27.1,26.1,27,26.1z"/>
		<path d="M38.3,29.4c-0.1,0-0.2-0.1-0.2-0.3c0-0.1,0-0.1,0.1-0.2c1-1.3,1.5-2.9,1.4-4.5v-0.8c-0.1-0.1-0.1-0.3-0.1-0.4
			c-0.3-0.8-0.7-1.4-1.2-2l-0.6-0.6c-0.2-0.2-0.5-0.3-0.8-0.4l-0.6-0.3c-0.1-0.1-0.2-0.2-0.1-0.3c0,0,0,0,0,0
			c0.1-0.1,0.2-0.2,0.3-0.1c0.2,0.1,0.4,0.2,0.6,0.3c0.3,0.1,0.6,0.3,0.8,0.5l0.6,0.6c0.6,0.6,1.1,1.4,1.4,2.2c0,0,0,0.1,0,0.1
			c0,0.1,0,0.2,0.1,0.3c0,0,0,0.1,0,0.1v0.9c0.1,1.8-0.5,3.5-1.6,4.9C38.5,29.4,38.4,29.4,38.3,29.4z"/>
		<path d="M33,23.8c-0.1,0-0.1,0-0.2-0.1c-0.1-0.1-0.1-0.2,0-0.3c0,0,0,0,0,0c0.5-0.4,1-0.9,1.5-1.4c0.1-0.1,0.1-0.1,0.2-0.1
			l0.1-0.1v-0.1c0-0.1,0.1-0.1,0.2-0.2c0-0.1,0.1-0.1,0.1-0.2c0,0,0.1-0.1,0.1-0.1c0,0,0,0,0-0.1c0.4-0.5,0.8-1,1-1.6
			c0-0.1,0.2-0.2,0.3-0.2s0.2,0.2,0.2,0.3c-0.2,0.7-0.6,1.3-1.1,1.8c0,0.1-0.1,0.2-0.2,0.2c0,0-0.1,0.1-0.1,0.1
			c0,0.1-0.1,0.1-0.1,0.1l-0.1,0.1c-0.1,0.1-0.1,0.1-0.2,0.1l-0.1,0.1C34.2,22.7,33.7,23.3,33,23.8C33.1,23.8,33.1,23.8,33,23.8z"/>
		<path d="M32,30.1c-0.1,0-0.2,0-0.2-0.1c-0.1-0.1,0-0.3,0.1-0.4c0.4-0.2,0.8-0.5,1.1-0.9c1.1-1,1.3-2.4,0.7-4.1
			c-0.1-0.1-0.1-0.1-0.1-0.2l-0.8-0.7c-0.1-0.1-0.1-0.3,0-0.4c0.1-0.1,0.3-0.1,0.4,0c0,0,0,0,0,0l0.8,0.8c0,0.1,0.1,0.1,0.1,0.2
			c0,0,0.1,0.1,0.1,0.1c0.8,1.9,0.5,3.5-0.8,4.7c-0.4,0.4-0.8,0.7-1.2,0.9C32.1,30.1,32.1,30.1,32,30.1z"/>
		<path d="M33,23.8c-0.1,0-0.1,0-0.2-0.1c-0.2-0.2-0.4-0.3-0.6-0.5c-0.2-0.1-0.3-0.2-0.5-0.3l-0.3-0.1c-0.1,0-0.2-0.1-0.4-0.2
			c-0.7-0.3-1.5-0.4-2.3-0.4c-0.1,0-0.2-0.1-0.2-0.2s0.1-0.2,0.2-0.2c0.8,0,1.7,0.1,2.5,0.4l0.4,0.2c0.1,0,0.3,0.1,0.4,0.2l0.5,0.3
			c0.2,0.2,0.5,0.3,0.7,0.5c0.1,0.1,0.1,0.3,0,0.4C33.2,23.8,33.1,23.8,33,23.8z"/>
		<path d="M19.5,12.4c-1.5,0-2.4-0.6-2.7-1.8c0-0.1,0-0.3,0.2-0.3c0,0,0,0,0,0c0.1,0,0.3,0,0.3,0.2c0,0,0,0,0,0c0.3,1,1,1.4,2.3,1.4
			c1,0,1.5-0.4,1.5-1.1c0-0.9-0.4-1.1-0.5-1.2c-0.1-0.1-0.2-0.2-0.1-0.3c0.1-0.1,0.2-0.1,0.3-0.1c0.6,0.2,0.9,0.8,0.9,1.6
			C21.4,11.8,20.7,12.4,19.5,12.4z"/>
		<path d="M17,10.8c-0.1,0-0.2-0.1-0.2-0.2l0-0.2c-0.1-0.4-0.2-0.7-0.2-1.1c0-1.4,0.7-3.2,3.9-3.2c0.9,0,1.8,0.2,2.6,0.5
			c0.1,0.1,0.2,0.2,0.1,0.3c0,0,0,0,0,0c-0.1,0.1-0.2,0.2-0.3,0.1c-0.8-0.3-1.6-0.5-2.4-0.5c-2.3,0-3.4,0.9-3.4,2.7
			c0,0.3,0.1,0.7,0.1,1v0.2C17.2,10.7,17.1,10.8,17,10.8C17,10.8,17,10.8,17,10.8L17,10.8z"/>
		<path d="M6.2,22.8c-1.6,0-2.6-1-3-2.9c-0.6-2.2-0.2-4.6,0.9-6.6c1.4-2.2,3.8-3.6,6.4-3.8c2.2-0.1,4.4,0.2,6.5,0.8
			c0.1,0,0.2,0.2,0.2,0.3c0,0,0,0,0,0c0,0.1-0.2,0.2-0.3,0.2c-2-0.6-4.2-0.9-6.3-0.8c-2.4,0.2-4.7,1.5-6,3.6
			c-1.1,1.9-1.4,4.1-0.9,6.2c0.4,1.8,1.3,2.6,2.7,2.5c0.1,0,0.3,0.1,0.3,0.2c0,0,0,0,0,0c0,0.1-0.1,0.3-0.2,0.3L6.2,22.8z"/>
		<path d="M4.1,26.8c-0.4,0-0.7,0-1.1-0.1c-1.9-0.3-3-0.6-3-1.4s0.4-0.9,0.6-1c0.2-0.1,0.4-0.2,0.6-0.3h0.1c0.8-0.1,1.5-0.3,2.2-0.7
			c0.8-0.4,1.6-0.7,2.5-1l0.3-0.1c0.1,0,0.3,0,0.3,0.2s0,0.3-0.2,0.3l-0.3,0.1c-0.8,0.3-1.6,0.6-2.4,1c-0.7,0.4-1.5,0.6-2.3,0.7
			c-0.2,0.1-0.5,0.2-0.7,0.3H0.6c-0.1,0-0.2,0.3-0.2,0.5s0.9,0.6,2.6,0.9c1.6,0.3,3.3-0.1,4.7-1c0.1-0.1,0.3-0.1,0.3,0c0,0,0,0,0,0
			c0.1,0.1,0.1,0.3-0.1,0.4l0,0C6.9,26.4,5.5,26.8,4.1,26.8z"/>
		<path d="M7.2,22.6c-0.1,0-0.2-0.1-0.2-0.2s0.1-0.2,0.2-0.2c0.1,0,0.2,0,0.3-0.1h0.1c4-0.6,8-0.6,12-0.1c0.1,0,0.2,0.1,0.2,0.3
			c0,0.1-0.1,0.2-0.3,0.2c-3.9-0.5-7.9-0.5-11.8,0.1C7.5,22.6,7.3,22.6,7.2,22.6z"/>
		<path d="M6.4,22.8c-0.1,0-0.2-0.1-0.2-0.2s0.1-0.2,0.2-0.2c0.2,0,0.3,0,0.5,0c0-0.1,0.1-0.2,0.2-0.2c0.1,0,0.2,0.1,0.2,0.2v0.1
			c0,0.1-0.1,0.2-0.1,0.2C7,22.8,6.7,22.8,6.4,22.8z"/>
		<path d="M7.2,22.6c-0.1,0-0.2-0.1-0.2-0.2l0,0c-0.8-1.4-0.7-3.2,0.4-4.4c1.4-1.2,3.3-1.5,5.1-0.9c2.1,0.6,4.3,2.2,7.2,5
			c0.1,0.1,0.1,0.2,0,0.3c0,0,0,0,0,0c-0.1,0.1-0.3,0.1-0.4,0c-2.8-2.7-5.1-4.3-7-4.8C10.7,17,9,17.2,7.7,18.3
			c-1,1.1-1.1,2.7-0.3,3.9c0,0,0,0.1,0,0.1v0.1C7.3,22.5,7.3,22.6,7.2,22.6z"/>
		<path d="M6.4,22.8c-0.1,0-0.2-0.1-0.2-0.2s0.1-0.2,0.2-0.2c0.2,0,0.4-0.1,0.6-0.2c0.1-0.1,0.3,0,0.3,0.1c0,0,0,0,0,0
			c0.1,0.1,0,0.3-0.1,0.3c0,0,0,0,0,0C7,22.7,6.7,22.8,6.4,22.8z"/>
		<path d="M25.9,30.3c-2.5,0-5-0.2-7.5-0.5l-6.7-0.7c-2.4-0.5-3.8-1.2-4.1-2s-0.2-1.5,0.2-2C7.9,25,8,25,8.1,25.1c0,0,0,0,0,0
			c0.1,0.1,0.1,0.3,0,0.4c-0.3,0.3-0.3,0.7-0.1,1.5c0.2,0.4,1,1,3.7,1.6l6.7,0.7c4.4,0.6,8.8,0.7,13.1,0.3H32c0.1,0,0.2,0.1,0.2,0.2
			S32.2,30,32,30h-0.5C29.6,30.3,27.7,30.3,25.9,30.3z"/>
		<path d="M26.4,26L26.4,26L9.7,25c-0.3,0-0.7,0.1-1,0.2l-0.3,0.1l-0.2,0.1c-0.1,0-0.1,0.1-0.2,0.1c-0.1,0.1-0.3,0.1-0.4,0
			c-0.1-0.1-0.1-0.3,0-0.4C7.8,25.1,7.9,25,8,25c0.1,0,0.1-0.1,0.2-0.1c0,0,0.1,0,0.1-0.1l0.3-0.1c0.4-0.1,0.8-0.2,1.1-0.2l16.6,1
			c0.1,0,0.2,0.1,0.2,0.2S26.5,26,26.4,26L26.4,26z"/>
		<path d="M26.4,26L26.4,26c-2.6-0.4-5-1.7-6.9-3.6l-0.1-0.1c-0.1-0.1-0.1-0.3,0-0.4c0.1-0.1,0.3-0.1,0.4,0c0,0,0,0,0,0l0.1,0.1
			c1.8,1.8,4.1,3,6.7,3.4c0.1,0,0.2,0.1,0.2,0.3c0,0,0,0,0,0C26.6,25.9,26.5,26,26.4,26z"/>
		<path d="M34.5,30.6c-0.9,0-1.7-0.2-2.5-0.5c-0.1-0.1-0.2-0.2-0.1-0.3c0.1-0.1,0.2-0.2,0.3-0.1c0,0,0,0,0,0
			c0.9,0.4,1.8,0.6,2.8,0.5c0.9,0,1.8-0.2,2.7-0.7l0.5-0.5c0.1-0.1,0.3-0.1,0.4,0c0,0,0,0,0,0c0.1,0.1,0.1,0.3,0,0.4L38,29.8h-0.1
			C37,30.3,36,30.6,35,30.6C34.8,30.6,34.7,30.6,34.5,30.6z"/>
		<path d="M45.3,32.6c-0.6,0-1.3,0-1.9-0.2c-1.1-0.2-2.1-0.6-3.1-1.2L40,30.9c-0.3-0.3-0.7-0.6-1.2-0.9c-0.2-0.2-0.5-0.5-0.7-0.8
			c-0.1-0.1,0-0.3,0.1-0.4c0.1-0.1,0.3,0,0.3,0.1c0,0,0,0,0,0c0.2,0.2,0.4,0.5,0.6,0.7c0.4,0.3,0.8,0.6,1.2,0.9l0.3,0.2
			c0.9,0.5,1.9,0.9,2.9,1.1c1,0.2,2.1,0.2,3.1,0.1c0.7-0.1,1.3-0.3,2-0.5L47.3,30l-4.6-5c-0.1-0.1-0.1-0.3,0-0.4
			c0.1-0.1,0.3-0.1,0.4,0c0,0,0,0,0,0l0.1,0.1l4.5,4.9l1.6,1.8c0,0.1,0,0.2,0,0.2c0,0.1-0.1,0.1-0.2,0.2c-0.8,0.3-1.6,0.5-2.5,0.6
			C46.2,32.5,45.7,32.6,45.3,32.6z"/>
	</g>
</g>
</svg>
