<?xml version="1.0" encoding="utf-8"?>
<!-- Generator: Adobe Illustrator 21.1.0, SVG Export Plug-In . SVG Version: 6.00 Build 0)  -->
<svg version="1.1" id="Calque_1" xmlns="http://www.w3.org/2000/svg" xmlns:xlink="http://www.w3.org/1999/xlink" x="0px" y="0px"
	 viewBox="0 0 39 25.9" style="enable-background:new 0 0 39 25.9;" xml:space="preserve">
<style type="text/css">
	.st0{fill:#BA9D6A;}
	.st1{fill:#635C56;}
	.st2{fill:#A3715E;}
	.st3{fill:#FFFBDC;}
</style>
<title>jaguar</title>
<g id="Calque_2">
	<g id="Layer_1">
		<path class="st0" d="M0.7,11.4v0.1c-0.7,1.8-0.5,3.9,0.6,5.5c0.2-0.4,0.6-0.7,1-0.9c2.1-1.2,3.8-0.6,5.2,1.8
			c0.2,0.4,0.4,0.7,0.6,1c0.7,1,1.8,1.7,3.1,1.8c-1.3-0.1-2.4-0.8-3.1-1.8c-0.9,0.1-1.8,0.5-2.5,1c-0.3,0.5-0.5,1-0.6,1.6
			c-0.2,0.7,0.2,1.5,1.1,2.6l11.2,1.1c1-0.1,1.9-0.4,2.7-0.9c0.8-0.6,1.4-1.4,1.8-2.3c0.7-2.6,0-4.6-2-6c-0.1,0.1-0.3,0.2-0.4,0.3
			c-0.5,0.3-1.1,0.5-1.7,0.6c-0.5,0-1.1-0.1-1.6-0.2c-1.1-0.3-2-1-2.6-2c-0.6-1-0.8-2.2-0.4-3.3c0.2-1.1,1-2.1,2-2.7
			c1-0.6,2.2-0.7,3.3-0.4c0.1,0,0.2,0.1,0.4,0.1c0.9,0.4,1.7,1,2.2,1.9c0.6,1,0.8,2.2,0.5,3.3c-0.3,1-0.9,1.8-1.7,2.4
			c2,1.4,2.7,3.4,2,6c-0.4,0.9-1,1.7-1.8,2.3c-0.8,0.5-1.7,0.8-2.7,0.9l3.7,0.3c4.2,0.8,7.5-0.9,10.1-5c1.2-2,1.3-4.6,0.2-7.8
			c1,0.6,2.3,0.5,3.2-0.3c1-0.8,1.9-1.7,2.7-2.8c-1.4-1.2-2.5-2.7-3.3-4.3c-0.7-1.5-0.8-3.2-0.4-4.8c-2.4-0.5-4.2-0.2-5.3,0.8
			s-1.7,2-1.5,2.9c0.1,0.6,0.3,1.2,0.6,1.7c0.1,0,0.2,0.1,0.3,0.2c0.5,0.7,1.3,0.7,2.3-0.1c-1,0.8-1.8,0.8-2.3,0.1
			c-0.1-0.1-0.2-0.2-0.3-0.2c-2.2-2.6-5.4-4.3-8.8-4.7c-2.1-0.1-4.1,0.4-5.9,1.4c-1.5,0.9-2.4,1.5-2.7,1.7S9.3,4.7,8.8,4.9
			C7.6,5,6.4,4.9,5.3,4.7C3.5,4.5,2.1,5.5,1.1,7.8C0.7,8.7,0.7,9.7,1,10.6c0.2,0.4,0.4,0.8,0.7,1.1c0.9,0.9,2.1,0.9,3.5,0.2
			c1.5-1,1.6-2,0.1-3c1.5,1,1.4,2-0.1,3c-1.4,0.7-2.6,0.7-3.5-0.2L0.7,11.4z M33,5.8c0.2,0.2,0.2,0.5,0.1,0.8c0,0.3-0.2,0.6-0.5,0.7
			c-0.2,0.2-0.5,0.2-0.8,0.1c-0.3,0-0.5-0.2-0.7-0.5C31,6.6,30.9,6.3,31,6.1c0.1-0.3,0.3-0.5,0.5-0.7c0.3-0.1,0.6-0.2,0.9-0.1
			C32.6,5.4,32.9,5.6,33,5.8z M24.1,11.5c-0.2-0.2-0.2-0.5-0.1-0.8c0-0.3,0.2-0.5,0.5-0.7c0.2-0.1,0.5-0.2,0.8-0.1
			c0.3,0.1,0.5,0.3,0.7,0.5c0.1,0.3,0.1,0.5,0.1,0.8c-0.1,0.3-0.3,0.5-0.5,0.7c-0.2,0.2-0.5,0.2-0.8,0.1
			C24.4,11.9,24.2,11.8,24.1,11.5L24.1,11.5z M25.3,19.7c0.3,0.1,0.5,0.3,0.6,0.6c0.2,0.2,0.2,0.5,0.2,0.8c-0.1,0.3-0.3,0.6-0.6,0.7
			c-0.3,0.1-0.5,0.1-0.8,0c-0.3,0-0.6-0.1-0.7-0.4c-0.1-0.3-0.2-0.6-0.1-0.9c0.1-0.3,0.3-0.5,0.5-0.6C24.7,19.7,25,19.7,25.3,19.7
			L25.3,19.7z M21,4.8c-0.1,0.3-0.3,0.5-0.5,0.7c-0.2,0.2-0.5,0.2-0.8,0.1c-0.4-0.1-0.6-0.2-0.7-0.5s-0.2-0.5-0.1-0.9
			c0-0.2,0.2-0.4,0.5-0.6c0.2-0.1,0.5-0.2,0.8-0.1c0.3,0.1,0.5,0.3,0.7,0.5C21,4.2,21.1,4.5,21,4.8z M9,8.3C8.9,8,8.8,7.8,8.9,7.5
			C9,7.2,9.2,7,9.4,6.8c0.3-0.1,0.6-0.2,0.9-0.1c0.2,0.1,0.4,0.3,0.6,0.5C11.1,7.4,11.1,7.7,11,8c-0.1,0.3-0.2,0.6-0.5,0.7
			C10.3,8.9,10,8.9,9.7,8.8C9.4,8.7,9.2,8.5,9,8.3z M9.6,15.5c0-0.3,0.2-0.5,0.5-0.6c0.2-0.2,0.5-0.2,0.8-0.2
			c0.3,0.1,0.5,0.3,0.7,0.6c0.1,0.3,0.1,0.5,0.1,0.8c-0.1,0.3-0.3,0.5-0.5,0.7c-0.3,0.1-0.5,0.1-0.8,0c-0.3,0-0.6-0.1-0.7-0.4
			C9.5,16.1,9.5,15.8,9.6,15.5L9.6,15.5z M16,20c0.2,0,0.4,0.2,0.6,0.5c0.1,0.2,0.2,0.5,0.1,0.8c-0.1,0.2-0.3,0.4-0.5,0.6
			C16,22,15.7,22.1,15.4,22c-0.3-0.1-0.5-0.2-0.6-0.5c-0.2-0.2-0.2-0.5-0.1-0.8c0-0.3,0.2-0.5,0.5-0.6C15.4,19.9,15.7,19.9,16,20z"
			/>
		<path class="st1" d="M33.1,6.6C33.2,6.3,33.1,6,33,5.8c-0.1-0.2-0.4-0.4-0.6-0.5c-0.3-0.1-0.6,0-0.9,0.1c-0.2,0.2-0.4,0.4-0.5,0.7
			c-0.1,0.3,0,0.6,0.1,0.8c0.2,0.3,0.4,0.5,0.7,0.5c0.3,0.1,0.6,0.1,0.8-0.1C32.9,7.2,33.1,6.9,33.1,6.6z"/>
		<path class="st1" d="M24,10.7c-0.1,0.3-0.1,0.6,0.1,0.8c0.1,0.3,0.3,0.4,0.7,0.5c0.3,0.1,0.6,0.1,0.8-0.1c0.2-0.2,0.4-0.4,0.5-0.7
			c0-0.3,0-0.5-0.1-0.8c-0.2-0.2-0.4-0.4-0.7-0.5c-0.3-0.1-0.6,0-0.8,0.1C24.2,10.2,24,10.4,24,10.7z"/>
		<path class="st1" d="M25.9,20.3c-0.1-0.3-0.3-0.5-0.6-0.6c-0.3,0-0.6,0-0.9,0.2c-0.2,0.1-0.4,0.3-0.5,0.6c-0.1,0.3,0,0.6,0.1,0.9
			c0.1,0.3,0.4,0.4,0.7,0.4c0.3,0.1,0.5,0.1,0.8,0c0.3-0.1,0.5-0.4,0.6-0.7C26.1,20.8,26,20.5,25.9,20.3z"/>
		<path class="st1" d="M20.5,5.5c0.2-0.2,0.4-0.4,0.5-0.7C21,4.5,21,4.2,20.9,4c-0.2-0.2-0.4-0.4-0.7-0.5c-0.3-0.1-0.6,0-0.8,0.1
			c-0.3,0.2-0.5,0.4-0.5,0.6c-0.1,0.4-0.1,0.7,0.1,0.9s0.3,0.4,0.7,0.5C19.9,5.7,20.2,5.7,20.5,5.5z"/>
		<path class="st1" d="M8.9,7.5C8.8,7.8,8.8,8,9,8.3c0.2,0.2,0.4,0.4,0.7,0.5c0.3,0.1,0.6,0.1,0.8-0.1C10.8,8.6,10.9,8.3,11,8
			c0.1-0.3,0.1-0.6-0.1-0.8c-0.2-0.2-0.4-0.4-0.6-0.5c-0.3-0.1-0.6,0-0.9,0.1C9.1,7,9,7.2,8.9,7.5z"/>
		<path class="st1" d="M10.1,14.9c-0.3,0.1-0.5,0.3-0.5,0.6c-0.1,0.3-0.1,0.6,0.1,0.9c0.1,0.3,0.4,0.4,0.7,0.4
			c0.3,0.1,0.5,0.1,0.8,0c0.2-0.2,0.4-0.4,0.5-0.7c0-0.3,0-0.5-0.1-0.8c-0.2-0.3-0.4-0.5-0.7-0.6C10.6,14.6,10.3,14.7,10.1,14.9z"/>
		<path class="st1" d="M16.6,20.5C16.4,20.2,16.2,20,16,20c-0.3-0.1-0.6-0.1-0.8,0.1c-0.3,0.1-0.5,0.3-0.5,0.6
			c-0.1,0.3-0.1,0.6,0.1,0.8c0.1,0.3,0.3,0.4,0.6,0.5c0.3,0.1,0.6,0,0.8-0.1c0.2-0.1,0.4-0.3,0.5-0.6C16.7,21,16.7,20.7,16.6,20.5z"
			/>
		<path class="st2" d="M1.3,17c-0.1,0-0.1,0-0.1,0.1c1.7,0.4,3.3,1.4,4.4,2.8c0.7-0.5,1.6-0.9,2.5-1c-0.2-0.3-0.4-0.6-0.6-1
			c-1.4-2.4-3.1-3-5.2-1.8C1.8,16.3,1.5,16.6,1.3,17z"/>
		<path class="st3" d="M1.2,17.1c-0.4,0.9-0.6,1.8-0.4,2.8C1,21.6,2,23.1,3.6,23.8c0.8,0.3,1.7,0.4,2.5,0.3C5.2,23,4.8,22.2,5,21.5
			c0-0.6,0.2-1.1,0.6-1.6C4.4,18.5,2.9,17.5,1.2,17.1z"/>
		<path class="st0" d="M35.5,1.1c-0.6-0.3-1.3-0.5-2-0.6c-0.4,1.6-0.3,3.3,0.4,4.8c0.8,1.6,1.9,3.1,3.3,4.3c0.5-0.7,0.9-1.4,1.2-2.2
			C36.3,5.9,35.2,3.5,35.5,1.1z"/>
		<path class="st1" d="M38.4,7.4c0.3-1.2,0.5-2.4,0.4-3.6c-0.9-1.2-2-2.1-3.3-2.7C35.2,3.5,36.3,5.9,38.4,7.4z"/>
		<path class="st3" d="M18.8,8.4c-0.2,0-0.3-0.1-0.4-0.1c-1.1-0.3-2.3-0.2-3.3,0.4c-1,0.6-1.8,1.6-2,2.7c-0.4,1.1-0.2,2.3,0.4,3.3
			c0.6,1,1.5,1.7,2.6,2c0.5,0.1,1.1,0.2,1.6,0.2l0.4-3.2c-0.1,0-0.1,0-0.1,0.1c0,0,0,0,0,0c-0.3,0.2-0.7,0.2-1.1,0.1
			c-0.4-0.1-0.7-0.3-0.9-0.7c-0.2-0.3-0.3-0.7-0.1-1.1c0.1-0.3,0.3-0.6,0.6-0.8c0.3-0.2,0.7-0.3,1.1-0.2c0.3,0.1,0.6,0.3,0.8,0.5
			L18.8,8.4z"/>
		<path class="st3" d="M16.5,11.3c-0.3,0.2-0.5,0.5-0.6,0.8c-0.2,0.4-0.1,0.8,0.1,1.1c0.2,0.4,0.5,0.6,0.9,0.7
			c0.4,0.1,0.8,0.1,1.1-0.1c0-0.1,0-0.1,0.1-0.1c0,0,0,0,0,0c0.3-0.2,0.5-0.5,0.6-0.8c0-0.4,0-0.8-0.2-1.1c0-0.1-0.1-0.1-0.1-0.2
			c-0.2-0.2-0.5-0.4-0.8-0.5C17.2,11,16.8,11.1,16.5,11.3z"/>
		<path class="st2" d="M18.7,12.9c-0.1,0.3-0.3,0.6-0.6,0.8l-0.4,3.2c0.6-0.1,1.2-0.3,1.7-0.6c0.1-0.1,0.3-0.2,0.4-0.3
			c0.8-0.6,1.4-1.4,1.7-2.4c0.3-1.1,0.1-2.3-0.5-3.3c-0.5-0.9-1.3-1.5-2.2-1.9l-0.4,3.2c0,0.1,0.1,0.1,0.1,0.2
			C18.6,12.1,18.7,12.5,18.7,12.9z"/>
		<path d="M1.3,17.2c-0.1,0-0.2,0-0.2-0.1c-1.1-1.7-1.4-3.8-0.6-5.7v-0.1c0,0,0,0,0-0.1c0-0.2,0.1-0.3,0.2-0.4s0.1-0.2,0.1-0.4
			c0-0.1,0.2-0.2,0.3-0.2c0.1,0,0.2,0.2,0.2,0.3c0,0.2-0.1,0.3-0.2,0.4s-0.1,0.2-0.1,0.4v0.1c0,0,0,0,0,0.1
			c-0.7,1.7-0.5,3.7,0.6,5.3c0.1,0.1,0,0.3-0.1,0.4C1.4,17.2,1.3,17.2,1.3,17.2z"/>
		<path d="M5.3,24.4c-0.6,0-1.3-0.1-1.8-0.4c-1.6-0.8-2.7-2.3-3-4.1c-0.2-1,0-2,0.4-2.9c0-0.2,0.1-0.3,0.3-0.3
			c0.1,0,0.2,0.1,0.2,0.2c0,0.1-0.1,0.2-0.1,0.2l0,0C1,18,0.8,19,1,19.9c0.2,1.6,1.2,3,2.7,3.7C4.4,23.9,5.2,24,6,23.8
			c0.1,0,0.3,0,0.3,0.2c0,0.1,0,0.3-0.2,0.3c0,0,0,0-0.1,0C5.8,24.4,5.6,24.4,5.3,24.4z M1.3,17v0.2l0,0V17z"/>
		<path d="M1,10.8c-0.1,0-0.2-0.1-0.2-0.2c-0.3-1-0.3-2,0.1-3c1-2.4,2.5-3.5,4.5-3.3c1.1,0.2,2.3,0.3,3.4,0.2L9,4.5
			c0.3-0.1,0.5-0.2,0.7-0.4c0,0,0-0.1,0.1-0.1c0.8-0.5,1.7-1.1,2.7-1.7c1.8-1,3.9-1.5,6-1.4c3.5,0.4,6.7,2.1,9,4.8
			c0.1,0.1,0.1,0.3,0,0.3c-0.1,0.1-0.3,0.1-0.4,0c-2.2-2.6-5.3-4.2-8.6-4.6c-2-0.1-4,0.4-5.8,1.4c-1,0.6-1.9,1.2-2.7,1.7
			C9.8,4.7,9.5,4.9,9.1,5L8.8,5.1C7.6,5.2,6.4,5.2,5.2,4.9c-1.7-0.2-3,0.8-3.9,3c-0.4,0.8-0.4,1.8-0.1,2.6C1.2,10.7,1.2,10.8,1,10.8
			C1.1,10.8,1.1,10.8,1,10.8L1,10.8z"/>
		<path d="M3.3,12.6c-0.7,0-1.4-0.3-1.8-0.8c-0.3-0.4-0.5-0.7-0.7-1.2c-0.1-0.1,0-0.3,0.1-0.3c0.1-0.1,0.3,0,0.3,0.1c0,0,0,0,0,0.1
			c0.2,0.4,0.4,0.7,0.7,1.1c0.8,0.8,1.8,0.8,3.2,0.1c0.7-0.4,1-0.9,1-1.3s-0.3-0.8-1-1.2C4.9,9,4.9,8.9,5,8.8
			c0.1-0.1,0.2-0.1,0.3-0.1c0,0,0,0,0,0c0.8,0.5,1.2,1.1,1.2,1.6s-0.4,1.2-1.3,1.8C4.6,12.4,4,12.6,3.3,12.6z"/>
		<path d="M35.5,1.3C35.4,1.3,35.4,1.3,35.5,1.3c-0.7-0.3-1.4-0.5-2-0.6c-0.1,0-0.2-0.1-0.2-0.3c0,0,0,0,0,0c0-0.1,0.1-0.2,0.3-0.2
			c0,0,0,0,0,0c0.7,0.1,1.4,0.3,2.1,0.6c0.1,0.1,0.2,0.2,0.1,0.3C35.7,1.3,35.6,1.3,35.5,1.3z"/>
		<path d="M27.3,6.1c-0.1,0-0.2,0-0.2-0.1c-0.4-0.5-0.6-1.2-0.6-1.8c-0.2-1,0.3-1.9,1.6-3.1s3.1-1.4,5.5-0.9c0.1,0,0.2,0.2,0.2,0.3
			c0,0,0,0,0,0c0,0.1-0.1,0.2-0.3,0.2c0,0,0,0,0,0c-2.3-0.5-4-0.2-5.1,0.7s-1.6,1.9-1.4,2.7c0.1,0.6,0.3,1.1,0.6,1.6
			c0.1,0.1,0.1,0.3,0,0.3C27.4,6.1,27.3,6.1,27.3,6.1z"/>
		<path d="M32.1,7.7c-0.1,0-0.3,0-0.4-0.1c-0.4,0-0.7-0.3-0.9-0.6c-0.2-0.3-0.2-0.7-0.1-1c0.1-0.3,0.3-0.6,0.6-0.8
			c0,0,0.1,0,0.1-0.1C31.7,5,32.1,5,32.4,5c0.3,0.1,0.6,0.3,0.7,0.6c0.2,0.3,0.3,0.7,0.1,1c0,0.4-0.2,0.7-0.6,0.9
			C32.5,7.6,32.3,7.7,32.1,7.7z M31.6,5.6c-0.2,0.2-0.3,0.3-0.4,0.6c-0.1,0.2,0,0.4,0.1,0.6c0.2,0.3,0.3,0.4,0.5,0.4h0.1
			c0.2,0.1,0.4,0.1,0.5,0c0,0,0.1,0,0.1-0.1c0.2,0,0.4-0.3,0.3-0.5c0,0,0-0.1,0-0.1c0.1-0.2,0-0.4-0.1-0.6l0,0
			c-0.1-0.2-0.3-0.3-0.5-0.4C32,5.5,31.8,5.5,31.6,5.6z"/>
		<path d="M38.4,7.6L38.4,7.6c-0.2,0-0.3-0.2-0.2-0.3c0.3-1.1,0.5-2.3,0.4-3.4c-0.8-1.1-1.9-2-3.2-2.6c-0.1-0.1-0.2-0.2-0.1-0.3
			c0.1-0.1,0.2-0.2,0.3-0.1c0,0,0,0,0,0c1.4,0.6,2.5,1.6,3.4,2.8c0,0,0,0.1,0,0.1c0.1,1.2-0.1,2.5-0.4,3.7
			C38.6,7.6,38.5,7.6,38.4,7.6z"/>
		<path d="M37.2,9.8c0,0-0.1,0-0.2,0c-0.1-0.1-0.1-0.3,0-0.4c0.5-0.7,0.8-1.4,1.1-2.2c0-0.1,0.1-0.2,0.3-0.2s0.2,0.1,0.2,0.3
			c0,0,0,0.1,0,0.1c-0.3,0.8-0.7,1.6-1.2,2.3C37.3,9.8,37.2,9.8,37.2,9.8z"/>
		<path d="M22.9,25.9c-0.7,0-1.3-0.1-2-0.2l-3.7-0.3c-0.1,0-0.3-0.1-0.3-0.2c0-0.1,0.1-0.3,0.2-0.3c0,0,0.1,0,0.1,0l3.7,0.3
			c4.1,0.8,7.3-0.8,9.9-4.9c1.2-2,1.2-4.5,0.2-7.6c0-0.1,0-0.2,0.1-0.3c0.1-0.1,0.2-0.1,0.3,0c0.9,0.6,2.1,0.5,2.9-0.3
			c1-0.8,1.9-1.7,2.7-2.8c0.1-0.1,0.2-0.2,0.3-0.1c0.1,0.1,0.2,0.2,0.1,0.3c0,0,0,0,0,0.1c-0.8,1.1-1.7,2-2.7,2.9
			c-0.8,0.7-1.9,0.9-3,0.6c0.9,3,0.8,5.5-0.4,7.5C29,24.2,26.3,25.9,22.9,25.9z"/>
		<path d="M37.2,9.8c-0.1,0-0.1,0-0.2-0.1c-1.4-1.2-2.5-2.7-3.4-4.4c-0.7-1.6-0.8-3.3-0.4-5c0-0.1,0.2-0.2,0.3-0.2
			c0.1,0,0.2,0.2,0.2,0.3c0,0,0,0,0,0c-0.4,1.5-0.3,3.2,0.4,4.6c0.8,1.6,1.9,3,3.2,4.2c0.1,0.1,0.1,0.3,0,0.4c0,0,0,0,0,0
			C37.3,9.8,37.2,9.8,37.2,9.8z"/>
		<path d="M28.5,6.8h-0.2c-0.4-0.1-0.7-0.3-0.9-0.6c0,0-0.1-0.1-0.1-0.1C27.1,6.1,27,6,27,5.9c0,0,0,0,0,0c0-0.1,0.1-0.3,0.3-0.2
			c0.2,0,0.4,0.1,0.5,0.3c0.1,0.2,0.4,0.4,0.6,0.4c0.5,0,1-0.2,1.3-0.6c0.1-0.1,0.3-0.1,0.4,0c0.1,0.1,0.1,0.3,0,0.4
			C29.6,6.6,29.1,6.8,28.5,6.8z"/>
		<path d="M25.1,12.3c-0.1,0-0.3,0-0.4-0.1c-0.4,0-0.7-0.3-0.8-0.6c-0.2-0.3-0.3-0.7-0.1-1c0-0.4,0.3-0.7,0.6-0.9
			c0.3-0.2,0.7-0.2,1-0.1c0.3,0.1,0.6,0.3,0.8,0.6c0,0,0,0.1,0.1,0.1c0.1,0.3,0.1,0.6,0.1,0.9c0,0,0,0.1,0,0.1
			c-0.1,0.4-0.3,0.7-0.6,0.9C25.5,12.2,25.3,12.3,25.1,12.3z M25,10.1c-0.2,0-0.3,0-0.4,0.1c-0.3,0.2-0.4,0.3-0.4,0.5
			c0,0,0,0.1,0,0.1c-0.1,0.2-0.1,0.4,0,0.6l0.1,0.1c0,0.2,0.1,0.2,0.5,0.3c0.2,0.1,0.4,0.1,0.6-0.1c0.2-0.1,0.3-0.3,0.4-0.5
			c0-0.2,0-0.4-0.1-0.6c-0.2-0.2-0.3-0.3-0.6-0.4L25,10.1z"/>
		<path d="M25.1,22.1c-0.2,0-0.3,0-0.5-0.1c-0.4,0-0.7-0.2-0.9-0.5c-0.2-0.3-0.2-0.7-0.1-1.1c0.1-0.3,0.3-0.6,0.6-0.8
			c0.3-0.2,0.7-0.3,1-0.2h0.1c0.3,0.1,0.6,0.4,0.7,0.7c0.2,0.3,0.3,0.6,0.2,0.9c0,0,0,0.1,0,0.1c-0.1,0.4-0.4,0.7-0.8,0.9
			C25.4,22.1,25.3,22.1,25.1,22.1z M25.2,19.9c-0.3,0-0.5,0-0.7,0.2c-0.2,0.1-0.3,0.3-0.4,0.5c-0.1,0.2,0,0.5,0.1,0.7
			c0.1,0.2,0.3,0.3,0.5,0.3h0.1c0.2,0.1,0.4,0.1,0.6,0c0.2-0.1,0.4-0.3,0.5-0.5c0-0.2,0-0.4-0.1-0.6l-0.1-0.1
			C25.6,20.1,25.4,20,25.2,19.9z"/>
		<path d="M20,5.9c-0.1,0-0.3,0-0.4-0.1c-0.4,0-0.7-0.3-0.8-0.6c-0.2-0.3-0.3-0.7-0.1-1.1c0-0.3,0.3-0.6,0.6-0.7
			c0.3-0.2,0.7-0.2,1-0.1c0.3,0.1,0.6,0.3,0.8,0.6c0,0,0,0.1,0.1,0.1V4c0.1,0.3,0.2,0.6,0.1,0.8l0,0c-0.1,0.4-0.3,0.7-0.6,0.8
			C20.4,5.8,20.2,5.9,20,5.9z M19.9,3.7c-0.2,0-0.3,0-0.4,0.1c-0.3,0.2-0.4,0.3-0.4,0.4c-0.1,0.5,0,0.7,0,0.7c0,0,0,0.1,0.1,0.1
			c0,0.2,0.1,0.2,0.5,0.3c0.2,0.1,0.4,0.1,0.6-0.1c0.2-0.1,0.3-0.3,0.4-0.6l0,0c0.1-0.2,0-0.4-0.1-0.5V4.1c-0.2-0.2-0.3-0.3-0.6-0.4
			C20,3.7,20,3.7,19.9,3.7z M21,4.8L21,4.8z"/>
		<path d="M17.7,17.1c-0.5,0-0.9,0-1.4-0.1H16c-1.2-0.3-2.2-1.1-2.8-2.1c-0.7-1-0.8-2.3-0.4-3.5c0.2-1.2,1-2.3,2.1-2.8
			c1-0.7,2.3-0.9,3.5-0.5l0.2,0.1c0.1,0,0.2,0,0.3,0.1c1,0.4,1.8,1.1,2.3,2c0.6,1,0.8,2.3,0.5,3.5c-0.3,1-0.9,1.9-1.8,2.5
			c-0.1,0.1-0.3,0.3-0.5,0.3C18.9,16.8,18.3,17,17.7,17.1L17.7,17.1z M17.1,8.4c-0.7,0-1.3,0.2-1.9,0.5c-1,0.5-1.7,1.5-1.9,2.6
			c-0.4,1-0.2,2.2,0.4,3.1c0.5,0.9,1.4,1.6,2.5,1.9h0.2c0.4,0.1,0.9,0.1,1.3,0.1c0.6-0.1,1.1-0.3,1.6-0.6c0.1-0.1,0.3-0.2,0.4-0.3
			l0,0c0.8-0.6,1.3-1.4,1.6-2.3c0.3-1.1,0.1-2.2-0.5-3.1c-0.5-0.8-1.2-1.4-2-1.8c-0.1,0-0.2,0-0.3-0.1h-0.1
			C17.9,8.4,17.5,8.4,17.1,8.4z"/>
		<path d="M17.3,14.2c-0.2,0-0.3,0-0.5-0.1c-0.5-0.1-0.9-0.4-1.1-0.8c-0.3-0.4-0.3-0.9-0.1-1.3c0.1-0.4,0.4-0.7,0.7-0.9
			c0.4-0.2,0.9-0.3,1.3-0.2c0.3,0.1,0.7,0.3,0.9,0.6c0,0,0.1,0.1,0.1,0.1c0,0,0.1,0.1,0.1,0.2c0.2,0.4,0.2,0.8,0.2,1.2
			c0,0,0,0.1,0,0.1c-0.1,0.4-0.4,0.7-0.7,0.9l0,0c0,0.1-0.1,0.1-0.1,0.1C17.9,14.1,17.6,14.2,17.3,14.2z M17.3,11.3
			c-0.2,0-0.5,0.1-0.7,0.2c-0.2,0.2-0.4,0.4-0.5,0.6l0,0C16,12.4,16,12.8,16.2,13c0.1,0.3,0.4,0.5,0.8,0.6c0.3,0.1,0.6,0.1,0.8,0
			c0-0.1,0.1-0.1,0.2-0.1c0.2-0.2,0.4-0.4,0.5-0.6c0-0.3,0-0.6-0.2-0.9c0,0,0,0,0-0.1c0,0-0.1-0.1-0.1-0.1c-0.2-0.2-0.4-0.3-0.6-0.4
			L17.3,11.3z M15.9,12.1L15.9,12.1z"/>
		<path d="M10,9.1c-0.1,0-0.3,0-0.4-0.1C9.2,8.9,8.9,8.7,8.8,8.4l0,0c-0.2-0.3-0.2-0.7-0.1-1c0.1-0.3,0.3-0.6,0.6-0.8
			c0,0,0.1,0,0.1-0.1h0.1c0.3-0.2,0.7-0.2,1-0.1c0.3,0.1,0.6,0.4,0.8,0.6c0.2,0.3,0.2,0.7,0.1,1c-0.1,0.3-0.3,0.6-0.6,0.8
			C10.5,9,10.2,9.1,10,9.1z M9.2,8.2c0.1,0.2,0.3,0.3,0.6,0.4c0.2,0,0.4,0.1,0.5,0c0,0,0.1,0,0.1-0.1c0.2-0.1,0.2-0.2,0.3-0.5
			c0.1-0.2,0.1-0.4-0.1-0.6C10.5,7.2,10.3,7,10.1,7c-0.2,0-0.4,0-0.6,0l0,0C9.4,7.2,9.2,7.3,9.1,7.6C9.1,7.8,9.1,8,9.2,8.2L9.2,8.2z
			"/>
		<path d="M10.7,17.1c-0.1,0-0.3,0-0.4-0.1c-0.4,0-0.7-0.2-0.9-0.5c-0.2-0.3-0.3-0.7-0.1-1.1c0-0.4,0.3-0.7,0.6-0.8
			c0.3-0.2,0.6-0.3,0.9-0.2h0.1c0.3,0.1,0.6,0.4,0.8,0.7c0.1,0.3,0.2,0.6,0.1,0.9c0,0,0,0.1,0,0.1c-0.1,0.3-0.3,0.6-0.6,0.8
			c0,0-0.1,0-0.1,0.1C11.1,17,10.9,17.1,10.7,17.1z M10.8,14.9c-0.2,0-0.5,0-0.6,0.1c0,0-0.1,0-0.1,0.1c-0.3,0.1-0.3,0.3-0.3,0.4
			c0,0,0,0,0,0.1c-0.1,0.2-0.1,0.5,0.1,0.7c0.1,0.2,0.3,0.3,0.5,0.3c0,0,0.1,0,0.1,0c0.2,0.1,0.4,0.1,0.6,0c0.2-0.1,0.3-0.3,0.4-0.5
			c0-0.2,0-0.4-0.1-0.6C11.2,15.2,11,15,10.8,14.9z M9.6,15.5L9.6,15.5z"/>
		<path d="M11.2,20.9c-1.3-0.1-2.6-0.8-3.3-1.9c-0.1-0.1-0.1-0.2,0-0.4c0.1-0.1,0.2-0.1,0.4,0c0,0,0,0,0.1,0.1
			c0.7,1,1.7,1.6,2.9,1.7c0.1,0,0.2,0.1,0.2,0.2C11.4,20.8,11.3,20.9,11.2,20.9C11.2,20.9,11.2,20.9,11.2,20.9z"/>
		<path d="M8.1,19.1c-0.1,0-0.1,0-0.2-0.1c-0.3-0.3-0.5-0.7-0.6-1.1c-1.3-2.3-2.9-2.8-4.9-1.7c-0.4,0.1-0.7,0.4-0.9,0.8
			c-0.1,0.1-0.2,0.2-0.3,0.1C1,17.2,0.9,17,1,16.9c0,0,0,0,0,0c0.2-0.5,0.6-0.8,1.1-1c2.2-1.2,4-0.6,5.5,1.9c0.1,0.3,0.3,0.7,0.6,1
			c0.1,0.1,0.1,0.3,0,0.4C8.2,19.1,8.1,19.1,8.1,19.1z"/>
		<path d="M6.1,24.3c-0.1,0-0.1,0-0.2-0.1c-1-1.2-1.4-2.1-1.2-2.8c0-0.6,0.3-1.2,0.7-1.7c0.8-0.6,1.7-1,2.6-1.1
			c0.1,0,0.3,0.1,0.3,0.2c0,0.1-0.1,0.3-0.2,0.3c0,0,0,0,0,0c-0.9,0.1-1.7,0.4-2.4,1c-0.3,0.4-0.5,0.9-0.5,1.4
			c-0.2,0.6,0.1,1.3,1,2.4c0.1,0.1,0.1,0.3,0,0.4C6.2,24.3,6.1,24.3,6.1,24.3z"/>
		<path d="M15.6,22.3c-0.1,0-0.2,0-0.3-0.1c-0.3-0.1-0.6-0.3-0.7-0.6c-0.2-0.3-0.3-0.7-0.1-1c0-0.4,0.3-0.7,0.6-0.8
			c0.3-0.2,0.7-0.3,1-0.1c0.3,0,0.6,0.4,0.8,0.6c0.2,0.3,0.2,0.7,0.1,1c-0.1,0.3-0.3,0.6-0.6,0.7C16.1,22.2,15.9,22.3,15.6,22.3z
			 M15.6,20.2c-0.1,0-0.2,0-0.2,0.1c0,0-0.1,0-0.1,0.1c-0.3,0.1-0.3,0.3-0.3,0.4c0,0,0,0.1,0,0.1c-0.1,0.2-0.1,0.4,0,0.5l0.1,0.1
			c0.1,0.2,0.1,0.2,0.4,0.3c0.2,0,0.4,0,0.6-0.1c0.2-0.1,0.3-0.3,0.4-0.5c0-0.2,0-0.4-0.1-0.6c-0.2-0.4-0.4-0.4-0.4-0.4h-0.1
			C15.8,20.2,15.7,20.2,15.6,20.2L15.6,20.2z"/>
		<path d="M17.3,25.4c-0.1,0-0.2-0.1-0.2-0.2c0-0.1,0.1-0.3,0.2-0.3c0,0,0,0,0,0c0.9-0.1,1.8-0.4,2.6-0.9c0.7-0.6,1.3-1.3,1.7-2.2
			c0.7-2.1,0-4.5-1.9-5.7c-0.1-0.1-0.1-0.2-0.1-0.3c0,0,0,0,0,0c0.1-0.1,0.2-0.1,0.3-0.1c0,0,0,0,0,0c2.1,1.5,2.8,3.6,2.1,6.3
			c-0.4,1-1.1,1.8-1.9,2.4C19.3,25,18.3,25.4,17.3,25.4L17.3,25.4z"/>
		<path d="M38.4,7.6c-0.1,0-0.1,0-0.2,0c-2.1-1.5-3.2-4-3-6.5c0-0.1,0.1-0.2,0.3-0.2c0,0,0,0,0,0c0.1,0,0.2,0.1,0.2,0.3
			c-0.2,2.4,0.9,4.7,2.8,6.1c0.1,0.1,0.1,0.2,0,0.3c0,0,0,0,0,0C38.5,7.6,38.4,7.6,38.4,7.6z"/>
	</g>
</g>
</svg>
