<?xml version="1.0" encoding="utf-8"?>
<!-- Generator: Adobe Illustrator 21.1.0, SVG Export Plug-In . SVG Version: 6.00 Build 0)  -->
<svg version="1.1" xmlns="http://www.w3.org/2000/svg" xmlns:xlink="http://www.w3.org/1999/xlink" x="0px" y="0px"
	 viewBox="0 0 1161.4 894.9" style="enable-background:new 0 0 1161.4 894.9;" xml:space="preserve">
<style type="text/css">
	.st0{display:none;fill:#DCCC98;}
	.st1{display:none;}
	.st2{display:inline;}
	.st3{fill:none;stroke:#2E2A25;stroke-miterlimit:10;}
	.st4{display:inline;fill:none;stroke:#2E2A25;stroke-miterlimit:10;}
	.st5{fill:#1D1D1B;stroke:#FFFFFF;stroke-miterlimit:10;}
	.st6{fill:#43683C;stroke:#B09810;stroke-width:1.25;stroke-miterlimit:10;}
	.st7{fill:none;stroke:#B09810;stroke-width:0.85;stroke-miterlimit:10;}
	.st8{fill:#43683C;stroke:#B09810;stroke-width:0.85;stroke-miterlimit:10;}
	.st9{fill:#FFFFFF;}
	.st10{fill:#C3234C;stroke:#DCCC98;stroke-miterlimit:10;}
	.st11{fill:#EFE53E;stroke:#DCCC98;stroke-miterlimit:10;}
	.st12{fill:#1B7833;stroke:#DCCC98;stroke-miterlimit:10;}
	.st13{fill:#F18C31;}
	.st14{fill:#3864AD;}
	.st15{fill:#BA3D8E;stroke:#DCCC98;stroke-miterlimit:10;}
	.st16{fill:none;stroke:#050606;stroke-width:3;stroke-miterlimit:10;}
</style>
<g id="Calque_1">
	<rect x="-2395.8" y="70.9" class="st0" width="595.3" height="841.9"/>
	
		<image style="display:none;overflow:visible;" width="3000" height="2400" xlink:href="E3D61A1125C734F7.jpg"  transform="matrix(0.3509 0 0 0.3509 -2464.5125 38.135)">
	</image>
	
		<image style="display:none;overflow:visible;" width="800" height="800" xlink:href="E3D61A1125C734F5.jpg"  transform="matrix(0.8225 0 0 0.8225 -2412.8376 184.8849)">
	</image>
</g>
<g id="texte">
</g>
<g id="Calque_4">
	<g class="st1">
		<g class="st2">
			<path class="st3" d="M604.6,747.7c-0.7,0-1.4-0.1-2.1-0.2c-6.1-1-13.4-12.8-14-20.4c-1-13.9-1-28.1-0.9-41.9
				c0-9.4,0.1-19.1-0.2-28.6c-0.3-9.8-2.2-19.7-4.1-29.2l-0.5-2.8c-0.3-1.8-1.7-3.5-3.1-5.3c-0.5-0.7-1.1-1.4-1.6-2.1l-2,0.2
				c-0.5,2.7-1,5.4-1.6,8c-1.3,6.3-2.6,12.7-2.9,19.1c-0.7,14.3-1.2,28.9-1.6,42.9c-0.4,12.1-0.7,24.7-1.3,37
				c-0.2,3.5-1.4,6.9-2.6,10.5c-0.6,1.8-1.3,3.7-1.9,5.7l-0.4,1.4l-1.2-0.9c-12.5-8.8-18.1-20.7-18.2-38.5c0-11.6,0.8-23.3,1.7-34.7
				c0.4-5.3,0.8-10.5,1.1-15.8c0.6-11.1,0.4-24.4-6.3-39c-6.9,18.2-11.1,37.2-13.6,61c-1.2,11.5-3.2,23.8-5.8,36.4
				c-1.3,6.2-3.5,16.4-13.3,15.4c-10.7-1.1-15.1-10.9-15.7-19c-0.6-8.1,1.4-16.6,3.2-23.1c4.1-15.1,8.6-30.3,12.9-45
				c3.1-10.5,6.2-21.1,9.1-31.6c3.3-11.7,1.4-21.8-5.8-30.6c-22-27-30.4-59.4-25-96.5c0.6-3.8,0.6-7.8,0.7-11.6
				c0.1-3.1,0.1-6.2,0.4-9.4c0.4-4.1-0.3-7.1-2.1-9.1c-1.7-1.8-4.4-2.7-7.9-2.6c-26.1,0.7-52.7,1.7-78.4,2.7l-6.3,0.2
				c-8.4,0.3-13,5-13.5,13.6c-1.3,23.7-2.4,47.7-3.4,71l-0.7,16.2c-0.1,2.2-0.1,4.4-0.1,6.6c0,3.4,0,6.9-0.4,10.3
				c-0.4,3.9-1.8,6.6-4.2,8.1c-2.5,1.5-5.9,1.5-9.9-0.1c-9.7-3.7-14.8-11.6-14.1-21.5c3.6-48.4,11.3-87,24.3-121.5
				c3.1-8.3,8.6-11.8,17.7-11.4c27.8,1.5,57,2.6,92,3.6c4.5,0.1,9.7-0.8,15.8-2.8c9.1-2.9,15.1-7.5,17.6-13.5
				c2.6-6.1,1.6-13.6-2.8-22.4c-8.6-17.1-17.1-35.6-18.2-57c-1-19.9,6.8-35.1,23.1-45.2c27.1-16.8,59.3-22.2,95.7-15.9
				c25.4,4.4,50.8,11,75.4,17.4l10.3,2.7c2.8,0.7,4.9,3.7,7.2,7.2c1.2,1.8,2.5,3.6,4,5.4l1.1,1.4l-1.8,0.3
				c-6.7,1.3-12.9,2.5-18.9,3.6c-13.9,2.6-25.9,4.9-38,7.6c-8.5,1.9-14.7-0.5-20.9-7.9c-18.1-21.8-41.7-27.9-72.2-18.7
				c-22.9,6.9-34.2,23-33.4,47.8c1,31.4,30.9,60.8,61.7,60.8c0.2,0,0.4,0,0.6,0c15.3-0.2,25.9-5.8,32.2-17.3
				c13.6-24.6,41.7-35.1,83.5-31.2c0.8,0.1,1.5,0.6,2.6,1.4c0.6,0.5,1.4,1.1,2.5,1.9l1.4,1L708,353c-1.9,1-3.6,2-5.2,3
				c-3.5,2-6.8,4-10.2,5.4c-3.8,1.6-7.8,2.9-11.6,4.2c-4.9,1.7-9.9,3.4-14.6,5.5c-14,6.4-20.3,17.8-18.9,33.9
				c0.6,6.3,3.7,12.1,8.6,16.1c4.4,3.5,9.6,5.1,14.9,4.4c12.8-1.6,25.9-3.6,38.5-5.5c13.6-2,27.6-4.1,41.4-5.9
				c8.6-1.1,17.5-1.3,26.1-1.4c4.3-0.1,8.8-0.2,13.2-0.4c8.4-0.4,13.9,4,15.8,12.6c2.3,10.6,4.1,20.5,5.5,30
				c4.1,29.1,4,59.9-0.3,100c-1.1,10.7-8.2,11.8-18,12.3l-1.1,0l0-8.3c0-5,0-9.9,0-14.7c0.1-7.1,0.2-14.4,0.4-21.4
				c0.4-15.7,0.7-31.9-0.1-47.8c-1.1-19.6-11.5-30.7-30.2-32.1c-17.7-1.4-37.3-1.3-61.7,0.1c-6.5,0.4-9.8,1.3-10.9,3.1
				c-1.3,2.1,0,6.3,2.3,11.8c15,35.7,13.6,107.4-22.5,134.1c-7.2,5.3-8.9,12.3-5.4,22.2c3.4,9.6,6.8,19.4,10.1,28.9
				c5.2,15.2,10.7,31,16.4,46.3c3.4,9.1,2.8,17-1.9,24.9c-1.7,2.9-5.4,5.9-8.4,5.9c0,0,0,0,0,0c-2.8,0-6.5-3.8-7.5-6.8
				c-3-9.1-5.8-18.5-8.6-27.5c-2.7-8.8-5.4-17.8-8.3-26.6c-4.2-13-9.2-26.5-15-41.3c-0.5-1.3-2.3-2.4-4-3.4c-0.5-0.3-1-0.6-1.5-0.9
				c-0.3,0.7-0.6,1.3-1,1.9c-1,2-2.1,4.1-1.8,5.7c4.6,21.5,9.5,43.4,14.2,64.5c3.2,14.4,6.5,28.9,9.6,43.3c0.4,1.6,1.4,7.3-0.8,10.5
				c-2.9,4.4-6.8,6.6-10.4,6c-3.4-0.6-6.1-3.6-7.4-8.2c-3.7-13.6-6.9-27.5-10.1-41c-2.3-10-4.7-20.3-7.3-30.4
				c-2.3-8.9-5.1-17.9-7.8-26.5c-1.2-3.7-2.3-7.4-3.4-11.1l-2.4,0.4c0,3.4-0.1,6.8-0.1,10.2c-0.1,8-0.3,16.3,0.3,24.4
				c0.7,10.7,1.8,21.6,2.8,32.1c1.1,11.1,2.2,22.6,2.9,33.9l0,0.5c0.4,5.4,0.8,12.7-2.9,16.2C608.5,747.1,606.7,747.7,604.6,747.7z
				 M579.1,615l0.3,0.5c0.5,0.8,1.2,1.6,1.9,2.5c1.5,1.9,3.1,3.9,3.5,6.2l0.5,2.8c1.9,9.7,3.8,19.7,4.1,29.6
				c0.3,9.5,0.3,19.3,0.2,28.7c-0.1,13.7-0.1,27.9,0.9,41.7c0.5,7,7.6,17.7,12.2,18.5c2.4,0.4,4.3,0,5.5-1.1c3-2.8,2.6-9.5,2.2-14.5
				l0-0.5c-0.7-11.3-1.9-22.8-2.9-33.9c-1-10.5-2.1-21.4-2.8-32.1c-0.6-8.2-0.4-16.5-0.3-24.6c0.1-3.7,0.1-7.4,0.1-11.1v-0.9l6-1
				l0.3,0.9c1.2,4,2.5,8,3.7,12c2.7,8.7,5.5,17.7,7.8,26.6c2.6,10.1,5,20.4,7.3,30.4c3.1,13.5,6.4,27.4,10,40.9
				c1,3.8,3.1,6.3,5.7,6.7c2.8,0.5,5.8-1.5,8.3-5.1c1.3-2,1.1-6,0.5-8.9c-3.2-14.4-6.4-28.9-9.6-43.3c-4.7-21.1-9.6-43-14.2-64.5
				c-0.5-2.3,0.8-4.7,2-7.1c0.5-1,1-2,1.4-3l0.5-1.3l1.1,0.9c0.7,0.5,1.5,1,2.4,1.6c2,1.2,4.1,2.5,4.9,4.5
				c5.9,14.9,10.8,28.4,15.1,41.4c2.9,8.9,5.7,17.9,8.3,26.7c2.7,9,5.6,18.3,8.6,27.4c0.8,2.4,3.9,5.4,5.5,5.4h0
				c2,0,5.1-2.6,6.6-4.9c4.4-7.2,5-14.6,1.8-23c-5.8-15.3-11.2-31.1-16.5-46.3c-3.3-9.5-6.6-19.3-10.1-28.9
				c-3.8-10.7-1.8-18.7,6.1-24.6c15.5-11.4,26-33.3,29.4-61.6c3-24.7,0.1-51.6-7.6-70c-2.7-6.5-3.9-10.8-2.1-13.8
				c1.8-2.9,6.4-3.8,12.6-4.1c24.6-1.4,44.3-1.5,62-0.1c19.9,1.5,31,13.3,32.2,34.1c0.9,16,0.5,32.3,0.1,48
				c-0.2,7-0.3,14.3-0.4,21.4c0,4.8,0,9.7,0,14.7l0,6.1c9.7-0.5,14-2.3,14.9-10.3c4.3-39.9,4.3-70.6,0.3-99.5
				c-1.3-9.5-3.1-19.3-5.4-29.9c-1.7-7.6-6.2-11.3-13.7-10.9c-4.4,0.2-8.9,0.3-13.3,0.4c-8.5,0.2-17.3,0.4-25.9,1.4
				c-13.8,1.7-27.8,3.8-41.4,5.8c-12.6,1.9-25.7,3.9-38.5,5.5c-5.8,0.7-11.6-1-16.5-4.9c-5.4-4.3-8.8-10.7-9.4-17.6
				c-1.5-17,5.3-29.1,20.1-36c4.8-2.2,9.9-3.9,14.8-5.6c3.8-1.3,7.7-2.6,11.5-4.2c3.3-1.4,6.6-3.3,10-5.3c1.2-0.7,2.5-1.5,3.9-2.2
				c-0.5-0.4-0.9-0.7-1.2-1c-0.6-0.5-1.2-1-1.4-1c-40.8-3.8-68.2,6.4-81.4,30.2c-6.6,12-18.1,18.1-34,18.3c-0.2,0-0.4,0-0.6,0
				c-31.9,0-62.8-30.4-63.8-62.9c-0.8-25.5,11.2-42.8,34.9-49.9c31.4-9.5,55.8-3.2,74.5,19.3c5.6,6.7,11.2,8.8,18.8,7.1
				c12.2-2.7,24.2-5,38.1-7.6c5.5-1,11.2-2.1,17.2-3.3c-1.1-1.4-2.1-2.9-3-4.2c-2.1-3.1-4-5.8-6-6.3l-10.3-2.7
				c-24.5-6.4-49.9-13-75.2-17.4c-35.9-6.2-67.6-0.9-94.2,15.6c-15.6,9.7-23,24.3-22.1,43.3c1,21,9.4,39.2,18,56.1
				c4.7,9.3,5.7,17.5,2.9,24.2c-2.8,6.6-9.1,11.6-18.9,14.7c-6.4,2.1-11.8,3-16.6,2.9c-35-1-64.2-2.2-92-3.6
				c-8.1-0.4-12.8,2.6-15.6,10c-13,34.3-20.7,72.7-24.2,120.9c-0.7,8.9,4,16,12.7,19.4c2.4,0.9,5.7,1.7,8.1,0.2
				c1.8-1.1,2.8-3.3,3.2-6.5c0.3-3.3,0.4-6.8,0.4-10.1c0-2.2,0-4.4,0.1-6.7l0.7-16.2c1.1-23.3,2.1-47.4,3.4-71
				c0.5-9.7,6-15.2,15.5-15.6l6.3-0.2c25.7-1,52.3-2,78.4-2.7c4.2-0.1,7.4,1,9.5,3.2c2.2,2.4,3.1,6,2.7,10.7c-0.3,3-0.4,6.2-0.4,9.2
				c-0.1,3.9-0.1,7.9-0.7,11.9c-5.3,36.5,2.9,68.4,24.5,94.9c7.7,9.4,9.7,20.1,6.2,32.5c-3,10.6-6.1,21.1-9.2,31.6
				c-4.3,14.7-8.8,30-12.9,45c-1.7,6.3-3.7,14.6-3.1,22.4c0.5,7.2,4.4,16,13.8,17c7.3,0.8,9.4-6.1,11-13.8
				c2.6-12.6,4.6-24.7,5.8-36.2c2.7-25.1,7.2-44.8,14.6-63.9l0.9-2.2l1.1,2.1c7.9,15.9,8.2,30.3,7.5,42.3
				c-0.3,5.3-0.7,10.6-1.1,15.8c-0.8,11.3-1.7,23-1.7,34.5c0.1,16.5,5,27.6,16.1,36c0.5-1.5,1-3,1.5-4.4c1.3-3.6,2.4-6.7,2.5-9.9
				c0.6-12.3,0.9-24.8,1.3-36.9c0.4-14.1,0.9-28.7,1.6-43c0.3-6.5,1.7-13.1,2.9-19.4c0.6-2.9,1.2-5.8,1.7-8.8l0.1-0.8L579.1,615z
				 M409.8,577.5l-16.7-2.6l0-24.6c0-20.8,0-41.3,0-61.9c0-8.5,0.3-16.1,0.8-23.2c0.2-2.8,0.8-6.3,3.2-8.4c1.6-1.4,3.8-1.9,6.6-1.7
				c7.1,0.6,7,5.5,6.9,9.5c0,0.5,0,1,0,1.6c0,33.4,0,66.7,0,100.1c0,2.1-0.2,4.1-0.4,6.4c-0.1,1.1-0.2,2.3-0.3,3.6L409.8,577.5z
				 M395.2,573.1l12.6,1.9c0.1-0.9,0.2-1.7,0.2-2.5c0.2-2.3,0.4-4.3,0.4-6.2c0-33.4,0-66.7,0-100.1c0-0.5,0-1.1,0-1.6
				c0.1-4.4,0-6.9-4.9-7.3c-2.3-0.2-3.9,0.2-5.1,1.2c-1.4,1.2-2.2,3.4-2.4,7c-0.5,7-0.8,14.6-0.8,23c-0.1,20.6-0.1,41.2,0,61.9
				L395.2,573.1z M446.2,574.4h-21.7v-22.4c0-7.7,0-15.3,0-23c0-20.4,0.1-41.6-0.1-62.3c0-4,0.8-6.6,2.5-8.2
				c1.7-1.6,4.1-2.2,7.7-1.9c0.8,0.1,1.6,0.1,2.4,0.1c4.9,0.2,11,0.4,11,9.4c0,16.4-0.1,32.8-0.1,49.2c0,18,0,36-0.1,54
				c0,1.1-0.4,2.1-0.8,3.1c-0.2,0.4-0.3,0.8-0.5,1.2L446.2,574.4z M426.6,572.3h18.1c0.1-0.2,0.2-0.4,0.3-0.7
				c0.3-0.8,0.6-1.6,0.7-2.3c0-18,0.1-36,0.1-54c0-16.4,0-32.8,0.1-49.2c0-7-3.7-7.1-8.9-7.3c-0.8,0-1.6-0.1-2.5-0.1
				c-2.9-0.2-4.9,0.2-6.1,1.3c-1.3,1.2-1.9,3.3-1.8,6.7c0.2,20.8,0.2,41.9,0.1,62.3c0,7.7,0,15.3,0,23V572.3z M763.1,573.5
				c-1.7,0-3.5-0.3-5.5-0.9l-0.7-0.2V453l1.6,1c1.9,1.2,4,2.2,5.7,3.1c3.7,1.8,6.7,3.2,7.4,5.7c10,32.4,11.4,65.4,4,97.9
				c-1.3,5.8-3.6,9.5-6.9,11.4C767.1,573.1,765.2,573.5,763.1,573.5z M759,570.8c3.5,1,6.4,0.8,8.7-0.5c2.8-1.6,4.7-4.9,5.9-10.1
				c7.3-32.2,6-64.7-4-96.8c-0.5-1.6-3.2-2.9-6.3-4.5c-1.3-0.7-2.8-1.4-4.3-2.2V570.8z M735.9,567.4l-0.7-1.6c-0.4-1-1-2-1.5-3
				c-1.2-2.3-2.4-4.6-2.5-7.1c-1.1-30-1.9-60.9-2.5-94.6c0-0.6-0.1-1.3-0.1-2c-0.2-2.7-0.5-5.8,1.3-7.6c1.1-1.1,2.8-1.5,5.2-1.3
				c3.1,0.4,6.5,6,7.1,9.4c2.1,13.5,3.8,27.3,5.3,39.4c0.5,4,1,7.8,1.4,11.5l0,0.1l0,0.1c-0.4,4.9-0.8,9.5-1.2,13.9
				c-1,11.8-1.8,22-3.3,32.2c-0.4,2.5-2.6,4.6-4.8,6.6c-0.9,0.8-1.9,1.7-2.6,2.6L735.9,567.4z M733.8,452.4c-1.1,0-1.9,0.2-2.4,0.7
				c-1.1,1.1-0.9,3.6-0.7,5.9c0.1,0.8,0.1,1.5,0.1,2.2c0.6,33.6,1.5,64.6,2.5,94.6c0.1,2,1.1,4,2.3,6.2c0.3,0.6,0.6,1.1,0.9,1.7
				c0.5-0.5,1.1-1.1,1.7-1.6c1.9-1.7,3.8-3.6,4.1-5.3c1.4-10.2,2.3-20.4,3.3-32.1c0.4-4.4,0.8-9,1.2-13.8c-0.5-3.6-0.9-7.4-1.4-11.4
				c-1.5-12.1-3.2-25.8-5.3-39.3c-0.5-3-3.5-7.4-5.2-7.6C734.5,452.4,734.1,452.4,733.8,452.4z M468.5,562.7c-1.3,0-2.6-0.9-3.5-1.7
				c-1.7-1.4-3.4-3.7-3.5-5.5c-0.7-11.6-0.9-23.5-1.1-34.9c-0.1-3.4-0.1-6.7-0.2-10.1c0-0.7,0.1-1.4,0.3-2.7
				c0.1-0.8,0.3-1.9,0.4-3.4l0-7.9c0-7.6,0-16.2,0-24.9c0-3.6-0.1-8.6,2.8-10.7c1.4-1.1,3.4-1.3,5.9-0.7c4.7,1.3,11.4,7.7,11.5,12.3
				c0.4,19.5-0.3,39.3-1,58.4c-0.1,3.9-0.3,7.8-0.4,11.7c-0.2,4.9-0.5,9.7-2.2,13.7c-1.3,3.1-5.5,6.1-8.7,6.4
				C468.7,562.7,468.6,562.7,468.5,562.7z M466.9,461.9c-0.8,0-1.5,0.2-2,0.6c-2,1.5-2,6.1-1.9,9.1c0.1,8.7,0,17.3,0,24.9l0,8.1
				c-0.2,1.5-0.3,2.6-0.4,3.5c-0.2,1.2-0.2,1.8-0.2,2.4c0.1,3.4,0.1,6.7,0.2,10.1c0.2,11.4,0.4,23.3,1.1,34.8c0.1,1,1.3,2.7,2.8,4
				c1.1,0.9,1.9,1.3,2.2,1.2c2.5-0.2,5.9-2.8,6.9-5.2c1.6-3.7,1.9-8.2,2-12.9c0.1-3.9,0.3-7.8,0.4-11.7c0.7-19.1,1.3-38.9,1-58.3
				c-0.1-3.3-5.7-9.2-10-10.3C468.2,462,467.5,461.9,466.9,461.9z M715.1,561l-0.9-0.7c-0.6-0.5-1.2-0.9-1.9-1.3
				c-1.7-1.1-3.4-2.2-4-3.9c-1.8-5-3.4-10.4-3.4-15.6c-0.2-27.9,0.1-50.5,0.7-71.1c0.2-5,1.5-8.5,4.1-10.2c2.4-1.6,5.7-1.7,9.8-0.3
				l0.7,0.2l0,18.9c0,24.9,0,50.6-0.2,76c0,1.9-1.4,3.5-2.7,5.1c-0.6,0.7-1.1,1.3-1.5,1.9L715.1,561z M714.2,459
				c-1.3,0-2.4,0.3-3.3,0.9c-1.9,1.3-3,4.2-3.1,8.5c-0.7,20.6-0.9,43.2-0.7,71.1c0,4.9,1.6,10.1,3.3,14.9c0.4,1,1.8,1.9,3.1,2.8
				c0.4,0.3,0.8,0.5,1.2,0.8c0.3-0.4,0.7-0.8,1-1.2c1.1-1.3,2.2-2.6,2.2-3.7c0.2-25.3,0.2-51.1,0.2-76l0-17.4
				C716.7,459.2,715.4,459,714.2,459z M578.4,379.5c-0.2,0-0.3,0-0.5,0c-18-0.2-39.9-21.4-39.8-38.6c0.1-15.1,5-28.1,13.9-36.8
				c7.6-7.5,17.7-11.4,29.1-11.3l0,0c29.1,0.3,47.2,17.5,47.2,44.8c0,9.4-4.3,18.8-12.1,26.5C606.4,373.8,592.3,379.5,578.4,379.5z
				 M580.6,294.9c-10.6,0-20,3.7-27.1,10.7c-8.5,8.3-13.2,20.9-13.3,35.4c-0.1,15.9,21,36.3,37.7,36.5c13.5,0.1,27.3-5.4,36.8-14.8
				c7.4-7.3,11.5-16.2,11.5-25c0-26-17.3-42.4-45.1-42.6C580.9,294.9,580.7,294.9,580.6,294.9z M653.6,343.3c-2.1,0-4.3-0.1-6.5-0.2
				c-4-0.3-9.7-4.9-10.6-8.7c-0.7-2.6-0.3-5,1.1-6.9c1.7-2.4,4.8-3.9,8.7-4.3c6.3-0.6,12.6-1.4,18.8-2.2c7.9-1,16.1-2,24.1-2.7
				c7.7-0.7,13.4,3.3,17.5,12.3l0.5,1.1l-1.1,0.4C687.8,338.1,671,343.3,653.6,343.3z M690.9,320.2c-0.5,0-1,0-1.5,0.1
				c-8,0.7-16.2,1.7-24.1,2.7c-6.2,0.8-12.5,1.5-18.8,2.2c-3.3,0.3-5.8,1.6-7.2,3.4c-1,1.4-1.3,3.2-0.7,5.2c0.7,2.9,5.6,6.9,8.7,7.1
				c19,1.4,37.1-3.9,57-10.7C700.9,323.4,696.6,320.2,690.9,320.2z"/>
		</g>
		<path class="st4" d="M708.2,302c-21.8,4.2-39.5,7.3-56.9,11.2c-8.6,1.9-14.4-1-19.8-7.5c-19.9-24-45.4-27.4-73.4-19
			c-23.6,7.1-34.9,24.1-34.1,48.9c1,32.1,32,62.2,63.4,61.8c14.2-0.2,26.1-5.1,33.1-17.8c17.5-31.6,56.1-33.1,82.5-30.7
			c0.9,0.1,1.7,1.1,4.5,3.1c-5.8,3.2-10.4,6.3-15.4,8.4c-8.6,3.6-17.8,5.9-26.2,9.8c-14.6,6.8-20.9,18.7-19.5,34.9
			c1.1,12.6,12.3,23.1,24.7,21.5c26.7-3.4,53.2-8.1,79.9-11.3c13-1.6,26.1-1.2,39.2-1.8c8.3-0.4,13.1,4.1,14.7,11.8
			c2.2,9.9,4,19.9,5.5,29.9c4.7,33.2,3.3,66.5-0.3,99.7c-1,9.5-6.9,10.9-17,11.3c0-7.6,0-14.8,0-21.9c0.2-23.1,1.5-46.3,0.3-69.3
			c-1.1-20.2-11.9-31.6-31.2-33.1c-20.5-1.6-41.3-1.1-61.9,0.1c-13.8,0.8-14.8,4-9.6,16.4c15.3,36.6,12.6,107.2-22.2,132.8
			c-8.2,6-9.1,14-5.7,23.4c8.9,25,17.2,50.3,26.5,75.2c3.3,8.8,2.7,16.5-1.9,23.9c-1.6,2.6-5,5.5-7.5,5.4c-2.2,0-5.6-3.5-6.5-6.1
			c-5.9-18-11-36.2-16.9-54.1c-4.6-13.9-9.6-27.7-15-41.4c-1-2.4-4.6-3.8-7-5.6c-1.2,3.2-3.9,6.7-3.3,9.4c7.7,36,16,71.8,23.9,107.8
			c0.7,3.1,0.9,7.4-0.6,9.7c-5.4,8.1-13.3,7.5-15.8-1.9c-6.4-23.6-11.3-47.6-17.3-71.4c-3.3-13-7.6-25.7-11.5-38.6
			c-1.4,0.2-2.8,0.4-4.2,0.7c0,11.9-0.7,23.8,0.1,35.6c1.5,22,4.3,44,5.7,66c0.5,7.2,1.5,18.9-9,17.2c-5.4-0.9-12.5-12.3-13.1-19.4
			c-1.8-23.4-0.4-47-1.2-70.4c-0.4-10.8-2.6-21.6-4.6-32.2c-0.6-3-3.4-5.5-5.2-8.3c-1.1,0.1-2.3,0.2-3.4,0.3
			c-1.6,9.4-4.1,18.7-4.6,28.1c-1.4,26.6-1.7,53.3-2.9,79.9c-0.2,4.9-2.7,9.8-4.5,15.9c-14.2-10.1-17.7-23.6-17.7-37.7
			c-0.1-16.8,1.8-33.6,2.8-50.4c0.8-13.7-0.2-27.1-7.4-41.7c-8.5,21.9-12.3,42.5-14.6,63.6c-1.3,12.2-3.3,24.3-5.8,36.3
			c-1.4,6.7-3.5,15.5-12.1,14.6c-9.2-1-14.1-9.3-14.8-18c-0.5-7.5,1.1-15.4,3.2-22.7c7.1-25.6,14.8-51.1,22-76.7
			c3.2-11.4,1.8-22-6-31.6c-22.8-27.9-30-60.1-24.8-95.7c1-6.9,0.4-14,1.1-21c0.8-8.6-3-13-11.1-12.8c-28.2,0.7-56.5,1.9-84.7,2.9
			c-9.1,0.3-14,5.7-14.5,14.6c-1.6,29.1-2.8,58.1-4.2,87.2c-0.3,5.6,0.1,11.3-0.5,16.8c-0.9,8.1-6,9.7-12.7,7.1
			c-9.1-3.5-14.1-10.9-13.4-20.4c3-41.4,9.5-82.2,24.3-121.2c3-7.8,8-11.1,16.7-10.7c30.7,1.6,61.3,2.7,92,3.6
			c5.4,0.2,11-1.1,16.2-2.8c19.1-6.2,24.5-19.3,15.4-37.4c-9-17.9-17.1-35.9-18.1-56.5c-1-19.5,6.5-34.3,22.6-44.3
			c29.5-18.3,62-21.5,95-15.8c28.8,5,57.2,12.7,85.6,20.1C701.3,290.7,703.8,296.6,708.2,302z M597.5,594.8
			c49.3,0.5,85.2-34.7,85.8-84.1c0.7-56.5-33.2-91-90.4-91.8c-45.1-0.7-83.7,38.2-84.3,84.8C508,558.9,542.4,594.2,597.5,594.8z"/>
		<path class="st4" d="M581.1,293.9c28.6,0.3,46.1,16.9,46.1,43.7c0,21.7-23.4,41.1-49.3,40.9c-17.3-0.2-38.9-21-38.8-37.5
			C539.4,312.7,556.4,293.6,581.1,293.9z M554.8,333.3c0,17.4,11.7,29.6,28.3,29.6c16.7,0.1,31.8-12.5,32.1-26.6
			c0.3-16.8-13.8-29.9-32.1-29.8C566.2,306.5,554.7,317.4,554.8,333.3z"/>
		<path class="st4" d="M445.5,573.4c-7,0-12.8,0-19.9,0c0-7.5,0-14.4,0-21.3c0-28.4,0.2-56.9-0.1-85.3c-0.1-7,2.5-9.6,9.1-9.1
			c5.8,0.4,12.4-0.8,12.3,8.5c-0.1,34.4-0.1,68.8-0.2,103.2C446.7,570.7,445.9,572,445.5,573.4z"/>
		<path class="st4" d="M757.9,454.9c5.7,3.5,11.8,5.1,12.7,8.2c9.9,32,11.4,64.6,4,97.4c-1.8,7.8-6,14.5-16.7,11.2
			C757.9,534,757.9,496.4,757.9,454.9z"/>
		<path class="st4" d="M408.8,576.2c-5.5-0.8-10.1-1.6-14.7-2.2c0-28.8-0.1-57.2,0-85.6c0-7.7,0.2-15.4,0.8-23.1
			c0.4-5.2,1.9-9.7,8.7-9.2c6.9,0.6,5.9,5.5,5.9,10c0,33.4,0,66.7,0,100.1C409.6,569.3,409.1,572.4,408.8,576.2z"/>
		<path class="st4" d="M461.9,504.5c0-9.1,0.1-21,0-32.9c0-5.5,0.1-12.3,7.3-10.4c4.4,1.2,10.7,7.3,10.7,11.3
			c0.4,23.3-0.6,46.7-1.4,70c-0.1,4.5-0.4,9.3-2.1,13.3c-1.2,2.7-4.9,5.5-7.8,5.8c-1.9,0.2-6-3.9-6.1-6.2c-0.9-15-1-30-1.3-45
			C461.2,509.4,461.5,508.4,461.9,504.5z"/>
		<path class="st4" d="M747.8,510.7c-1.6,17.6-2.5,31.9-4.5,46.1c-0.4,3.2-4.6,5.8-7.1,8.6c-1.4-3.2-3.8-6.4-3.9-9.7
			c-1.1-31.5-1.9-63-2.5-94.6c-0.1-3.9-2.1-10.6,5.2-9.8c2.4,0.3,5.6,5.3,6.1,8.5C743.9,477.8,745.9,495.8,747.8,510.7z"/>
		<path class="st4" d="M719.2,458.9c0,31.2,0.1,62.7-0.2,94.1c0,2.2-2.7,4.3-4.1,6.4c-1.9-1.5-4.8-2.7-5.5-4.7
			c-1.7-4.9-3.3-10.1-3.4-15.2c-0.1-23.7,0-47.4,0.7-71.1C706.9,462.3,709,455.3,719.2,458.9z"/>
		<path class="st4" d="M705.7,330.9c-19.5,6.6-38.4,12.6-58.5,11.1c-3.5-0.3-8.8-4.5-9.7-7.9c-1.4-5.6,2.5-9.3,8.8-10
			c14.3-1.5,28.6-3.6,42.9-4.9C696.9,318.5,702,322.8,705.7,330.9z"/>
		<path class="st4" d="M597.5,594.8c-55.1-0.6-89.5-35.8-88.8-91.2c0.6-46.6,39.2-85.4,84.3-84.8c57.1,0.8,91.1,35.3,90.4,91.8
			C682.7,560.1,646.8,595.2,597.5,594.8z M593.1,432.2c-1.4,0.1-5.5,0.2-9.6,0.7c-31.2,3.5-57.9,27.4-63.2,56.7
			c-6.1,33.6,9,65.4,38.5,80.1c22.3,11,45.5,10.6,68.6,3.6c22.5-6.8,37.9-21.4,43.3-45.2C682.5,475.9,648.6,432.7,593.1,432.2z"/>
		<path class="st4" d="M554.8,333.3c0-15.9,11.4-26.8,28.2-26.8c18.4,0,32.4,13,32.1,29.8c-0.2,14.1-15.4,26.7-32.1,26.6
			C566.4,362.9,554.8,350.7,554.8,333.3z M584.1,315.8c-11.4,0.1-20.3,6.7-20.4,15c-0.1,11.1,10,22,20.6,22.2
			c10.4,0.1,18.4-8.5,18.4-19.7C602.8,322.5,595.6,315.7,584.1,315.8z"/>
		<path class="st4" d="M593.1,432.2c55.5,0.5,89.3,43.7,77.6,95.9c-5.4,23.8-20.7,38.4-43.3,45.2c-23.2,7-46.4,7.5-68.6-3.6
			c-29.5-14.7-44.6-46.5-38.5-80.1c5.3-29.3,31.9-53.2,63.2-56.7C587.6,432.4,591.8,432.3,593.1,432.2z M536.5,508.5
			c-0.8,16.9,6.2,30.4,19.3,39.7c23.6,16.6,49,19.8,75,6.1c12.6-6.6,22.9-16.3,26-31c4.9-23.7-1.2-44.9-19.5-60.7
			c-21-18.1-45.5-19.4-69.9-8.8C544.4,463.7,537.1,484.5,536.5,508.5z"/>
		<path class="st4" d="M584.1,315.8c11.5-0.1,18.7,6.7,18.7,17.5c0,11.2-8.1,19.9-18.4,19.7c-10.6-0.2-20.8-11.1-20.6-22.2
			C563.9,322.5,572.7,315.9,584.1,315.8z M591,335.5c-3.5-3.3-6.4-7.8-8.8-7.6c-2.9,0.2-5.5,4.5-8.3,7c3.5,2.8,6.9,5.7,10.7,8
			C585.1,343.1,587.9,339.1,591,335.5z"/>
		<path class="st4" d="M536.5,508.5c0.6-23.9,7.9-44.7,31-54.7c24.4-10.6,48.9-9.3,69.9,8.8c18.3,15.8,24.4,36.9,19.5,60.7
			c-3,14.7-13.4,24.4-26,31c-26.1,13.7-51.5,10.6-75-6.1C542.7,538.9,535.7,525.4,536.5,508.5z M596.8,551.2
			c26.4,0.4,45.5-17,46-41.8c0.5-28.9-19.8-48.5-50.4-48.8c-26.2-0.3-43.3,16.9-43.5,43.9C548.6,533.5,566.3,550.8,596.8,551.2z"/>
		<path class="st4" d="M591,335.5c-3.1,3.6-5.9,7.6-6.4,7.4c-3.8-2.2-7.2-5.2-10.7-8c2.8-2.5,5.4-6.8,8.3-7
			C584.6,327.7,587.4,332.2,591,335.5z"/>
		<path class="st4" d="M596.8,551.2c-30.4-0.4-48.1-17.7-47.9-46.8c0.2-27,17.2-44.1,43.5-43.9c30.6,0.3,50.9,20,50.4,48.8
			C642.3,534.3,623.2,551.6,596.8,551.2z M562.7,509.3c0,21.5,11.8,32.8,34.1,32.7c15-0.1,32.9-17.4,33.2-32.1
			c0.3-17.1-17.5-34-35.6-33.8C574.3,476.3,562.8,488.4,562.7,509.3z"/>
		<path class="st4" d="M562.7,509.3c0-20.9,11.6-33,31.7-33.2c18.1-0.2,35.9,16.7,35.6,33.8c-0.3,14.7-18.2,32-33.2,32.1
			C574.5,542.1,562.7,530.8,562.7,509.3z M592.4,483.9c-10.3,0.3-22.4,12.7-22.1,22.6c0.3,11.2,12.4,23.4,22.8,23.2
			c11.2-0.3,22.5-12.8,22.1-24.7C614.9,493.5,604.1,483.6,592.4,483.9z"/>
		<path class="st4" d="M592.4,483.9c11.7-0.3,22.5,9.6,22.8,21.1c0.4,11.9-10.9,24.5-22.1,24.7c-10.4,0.3-22.4-12-22.8-23.2
			C570,496.6,582.1,484.2,592.4,483.9z"/>
	</g>
	<g class="st1">
		<rect x="1189" y="778.9" style="display:inline;fill:none;" width="907.5" height="300.3"/>
		
			<text transform="matrix(1 0 0 1 1188.9825 1057.9352)" style="display:inline;fill:#1D1D1B;stroke:#FFFFFF;stroke-miterlimit:10; font-family:'Papyrus'; font-size:300px;">Aztrek</text>
	</g>
	<g>
		<g>
			<path class="st6" d="M383.9,267.2c-10.1,12-12.3,29.5-15.6,44.4c-6,27.1-10.4,54.5-12.5,82.2c-0.2,1.9-0.4,3.8-0.1,5.6
				c0.5,2.4,1.9,4.5,3.3,6.6c2.6,3.7,5.6,7.4,9.9,8.8c3.4,1.1,7.3,0.4,10.1-1.7c5.4-4.1,4.2-10.9,4.4-16.9
				c0.2-5.9,0.4-11.7,0.6-17.6c0.5-14.9,1.1-29.9,1.7-44.8c0.4-10.1-0.3-20.9,1-31c0.5-4,1.8-7.9,4.4-11c1.1-1.3,2.4-2.5,4-3
				c5-1.8,10.7-1.2,15.9-1.1c13.6,0,27.3-0.2,40.9-0.9c13-0.6,26.1-3.1,39.1-0.9c3.3,0.7,6.6,2.8,7.7,6.1c1.5,4.6-0.4,10.9-1.1,15.5
				c-0.9,5.8-1.7,11.6-2.2,17.4c-2.2,25.7,2.6,50.3,15.7,72.5c3.7,6.3,7.1,12.9,10.7,19.3c2.5,4.5,6.1,8.8,7.5,13.9
				c1.4,5.3-0.1,11-1.6,16.1c0,3.6-2.4,8.4-3.4,11.9c-1.3,4.5-2.5,9-3.8,13.5c-4.9,17.1-9.7,34.3-14.5,51.4
				c-1.5,5.5-3.1,11-3.5,16.7c-0.4,5.7,0.4,11.6,3.4,16.5c1.7,2.8,4.2,5.3,7.2,6.5c3.1,1.3,6.7,1.2,9.5-0.5
				c3.7-2.3,5.3-6.9,5.8-11.2c4.4-34.6,9.4-68.9,21.2-101.9c-0.3,0.8,2.7,5.5,3.1,6.5c1.1,2.7,2,5.4,2.7,8.2
				c1.4,5.6,2,11.4,1.7,17.2c-0.9,20-2.2,40-3,60c-0.2,4.2-0.3,8.5,0.5,12.6c1.8,9.2,8.4,18.7,16.6,23.4c2.3-3.9,3.9-8.3,4.3-12.8
				c3.1-35.5,0.4-71.1,7.5-106.2c1-4.9,5.6-4,7.1-0.1c8.1,20.7,6.3,43.7,7.1,65.5c0.4,11.7-1.4,23.3-0.5,35
				c0.5,5.8,1.6,11.7,4.3,16.9c2,3.7,8.2,12.4,13.2,10.6c0.8-0.3,1.4-0.8,2-1.4c2.5-2.2,3.8-4.5,3.7-7.9
				c-0.5-13.6-1.6-27.2-2.8-40.7c-1.2-13.6-2.3-27.2-2.8-40.8c-0.3-9-0.7-18.3,0.1-27.3c0.3-3.1,3.6-3.1,5.2-0.9
				c1.7,2.3,2.2,5.1,2.7,7.9c2.6,13.3,6.3,26.3,9.2,39.5c0.1,0.3,0.1,0.7,0.2,1c0.9,4,1.7,8,2.6,12c3,13.9,5.2,27.9,8.6,41.7
				c1.3,5.1,3.8,12.7,10.1,12.9c1.1,0,2.2-0.2,3.3-0.5c9.1-3,7.7-8.9,6.1-16.3c-1-4.6-2-9.1-3.1-13.7c-2-8.9-4.3-17.7-6.1-26.6
				c-4.2-20.6-8.9-41.1-12.6-61.7c-0.8-4.3,0.6-8.6,1.7-12.7c0.1-0.3,4.7,3.6,5.1,4c3.9,4.6,5.2,11.6,7.2,17.2
				c2.5,7,4.9,14,7.4,21.1c4.9,13.8,9.8,27.7,14.7,41.5c1.6,4.4,3.3,8.8,5,13.3c1.8,4.8,3.6,12.3,10.7,7.4c1.8-1.2,3-2.9,4.2-4.7
				c2.4-3.5,4.6-7.5,4.4-11.8c-0.1-2.4-0.9-4.7-1.7-6.9c-8.1-22.5-16.3-45.1-24-67.8c-1.9-5.6-5.3-11.7-5.5-17.7
				c-0.3-7.6,5.1-14.6,10.2-19.6c20.7-20,27.5-48.3,27.8-76.4c0.1-12-1.1-23.9-3.4-35.6c-1.2-5.8-2.6-11.6-4.3-17.3
				c-0.9-3.2-5.4-11.6-2.7-14.6c1-1.1,2.7-1.4,4.1-1.5c13.4-1.5,26.7-1.4,40.1-1.9c13.6-0.5,27.6-0.7,40.7,3.8c4,1.4,8,3.2,11,6.2
				c8.1,8,8.8,21.3,9.3,31.9c1.1,21-0.5,42.3-0.8,63.3c-0.1,5.5-0.2,11.1-0.2,16.6c0,3.7-0.5,3.8,3.1,3.9c2.7,0.1,5.8-0.7,8.3-1.5
				c6.6-2.3,6-7.7,6.5-13.8c1.9-23.7,2.7-48.1,1.1-72c-0.8-12.2-2.2-24.4-4.3-36.4c-1.1-6.1-2.3-12.1-3.8-18.1
				c-2.6-10.9-7.9-11.5-18.5-11.2c-12.2,0.3-24.4,1-36.5,2.1c-15.4,1.4-30.7,3.6-46,6.1c-7.2,1.2-14.4,2.3-21.6,3.6
				c-6.4,1.1-12.6,2.3-19,0.5c-9.4-2.6-15-9.6-16.3-19.1c-1.4-10,0.7-20.4,7.7-27.9c6-6.4,13.7-7.7,21.4-10.9
				c9.2-3.8,19-7.3,27.5-12.6c1-0.6,2.2-1.2,2.6-2.3c1.6-4.3-18.7-3.5-20.6-3.4c-8.9,0.3-18.8,0.1-27.4,2.6
				c-11,3.2-21,9.5-28.9,17.9c-8,8.6-12.9,19.9-24.2,24.9c-5.4,2.4-11.5,2.9-17.4,2.6c-11.7-0.6-23.2-4.6-32.9-11.1
				c-9.6-6.5-17.8-16-23-26.3c-4.6-9-8.1-19-7.6-29.1c0.3-7.8,2.9-15.3,6.2-22.4c6.7-14.7,24.7-22.1,39.6-24.4
				c12.3-1.9,25-0.8,36.7,3.5c13.1,4.8,21.6,13.8,31.6,23.1c1.2,1.1,2.5,2.3,4.1,2.8c1.7,0.6,3.5,0.4,5.2,0.2
				c5.1-0.6,61.4-8.5,60.9-11c-1.7-9-13.5-13.3-21.1-15.4c-8.5-2.3-17.2-4.1-25.8-6.1c-20.1-4.7-40.1-10.3-60.7-12.5
				c-20.9-2.2-41.9,0.7-61.8,7.5c-17,5.8-37.7,18.3-41.7,37.3c-3,14.3-1.8,29.2,2.2,43.2c2,7,4.8,13.8,8,20.4
				c3.1,6.1,7.1,11.8,9.3,18.4c1.6,4.8,2,10.1,0,14.7c-8.8,20.6-39.8,15.9-57,15.9c-22,0-43.9-2.2-65.8-3.2
				c-5.6-0.2-11.5,0.6-15.9,4.1C385.2,265.7,384.5,266.4,383.9,267.2z"/>
			<path class="st6" d="M405.8,298.7c-3.9,4.5-3.1,9.6-3.1,15.3c0,4.8,0,9.5-0.1,14.3c0,9.3,0,18.7,0,28c0,8.7,0.1,17.4,0,26.1
				c-0.1,8.6-0.9,17.4-0.2,26c0.1,1.3,0.3,2.8,1.2,3.8c2,2.2,9.4,4.3,12.3,3.3c2.5-0.9,2.3-4.9,2.3-7c0.2-14.7,0-29.4,0.1-44.1
				c0.1-11.2,0.1-22.4,0-33.6c0-5.8,0.2-11.6,0.2-17.4c0-4.8,0.9-10.8-1.2-15.3c-2.5-5.3-7.8-3.4-11.1,0
				C406.2,298.4,406,298.5,405.8,298.7z"/>
			<path class="st6" d="M434.7,303.4c-0.4,1.3-0.6,2.8-0.6,4.5c0.1,20.4,0.1,40.8,0.1,61.2c0,14.4-0.1,28.8,0,43.2
				c0,0,16.7,0,18.1,0c0,0,3.3-0.5,3.2-2.2c-0.2-1.7-0.1-106.8-0.1-106.8s0-5.8-6.1-6.8C442.1,295.3,436.5,297.3,434.7,303.4z"/>
			<path class="st6" d="M470.5,304.3c-1.8,5.3-1.3,11.4-1,16.8c1.2,23,1.7,46,1.7,69c0,2.6,1.1,9.9,4.8,10c2.8,0.1,9.2-3.4,10.1-7.7
				c2.5-12.7,2.1-26.4,2.4-39.3c0.2-9.9,0.3-19.8,0.1-29.7c-0.1-7.2,1.2-17.6-5.9-22.1c-4.2-2.7-9.7-3-11.8,2.1
				C470.7,303.7,470.6,304,470.5,304.3z"/>
			<path class="st6" d="M717.5,299.9c-0.5,0.4-0.9,0.8-1.2,1.3c-2.6,3.3-1.7,8.2-1.7,12.1c0,8,0.2,16,0.3,24
				c0.1,9.1,0.1,18.3,0.2,27.4c0,4.1-0.3,37.7,9.5,32.9c5.4-2.6,3.5-10.4,3.5-15.2c0-6.9,0-13.9,0-20.8c0-13.3,0-26.6,0-39.9
				c0-5.2,0-10.3,0-15.5c0-5.5,1.5-10.7-5.9-8.5C720.4,298.2,718.8,298.9,717.5,299.9z"/>
			<path class="st6" d="M738.7,293.9c-0.3,1.1-0.4,2.2-0.4,3.2c0.8,28.3,1.6,56.6,2.3,84.9c0.2,7.3-1.2,16.4,4.3,22.2
				c8.7-7.8,9.4-19.5,10.1-30.4c0.9-13.7,0.4-27.4-0.9-41c-0.8-7.9-1.2-15.9-2.3-23.7c-0.7-5.2-1-16.5-6.7-19
				C741.9,288.7,739.7,290.7,738.7,293.9z"/>
			<path class="st6" d="M766.7,295.4c0.4,37.5,0,74.9,0,112.4c0,0.9,0,1.8,0.5,2.6c1.3,2.2,6.5,0.8,8.2,0c9.1-4.2,10.6-21.7,12-30.3
				c2.1-13.4,1.3-27.1-0.7-40.5c-1.8-12.4-2.9-26.9-8.2-38.3c-1.7-3.8-7.9-6.6-11.8-7.3C766.6,294.4,766.7,294.9,766.7,295.4z"/>
			<path class="st6" d="M699.1,158.1c-8.4,0.3-16.8,1.3-25.2,2.4c-3.8,0.5-7.8,1-11.7,1.5c-3.9,0.5-8,0.6-11.6,2.3
				c-0.7,0.3-1.4,0.6-2.1,1c-1,0.5-2,1.3-2.4,2.4c-0.4,1-0.2,2.1,0,3.2c1.2,6,7.2,10.5,13.3,11c3.9,0.3,7.9-0.5,11.8-1
				c10.8-1.5,21.3-4.4,31.8-7.2c0,0,10.7-3.5,11.2-3.7c0.6-0.2-3.3-5.8-3.7-6.2c-2.3-3.2-5.4-5.8-9.6-5.7
				C700.2,158,699.6,158,699.1,158.1z"/>
		</g>
		<g>
			<path class="st7" d="M594.8,324.3c-7.5,3.3-14.5,11.3-15.2,19.7c-1.3,15.2,15.6,28.3,29.8,22.6c13.7-5.4,19-26.1,8.6-36.9
				C612.5,324.1,602.2,321,594.8,324.3z"/>
			<path class="st7" d="M575.5,330c-0.5,0.8-0.9,1.7-1.3,2.5c-2.3,5.1-3.3,11.6-3.3,17.1c0,4.1,1,8.2,2.5,12
				c2.2,5.8,5.5,10.6,11,13.7c5.1,2.8,10.8,5,16.8,5.6c5.8,0.6,11.8-0.9,16.8-3.8c9.6-5.4,18.9-14.3,20.1-25.8
				c0.5-4.3-0.1-9-1.4-13.1c-3.1-9.6-12.1-17.5-21.3-21.1c-5.6-2.3-11.5-2.3-17.4-1.6C588.3,316.7,580.5,321.3,575.5,330z"/>
			<path class="st7" d="M566.5,315.1c-3.6,4.7-6.2,10.3-7.6,16.1c-2.8,11.6-0.8,24.2,3.7,35.1c4,9.6,12.8,16,22.2,19.8
				c11.8,4.8,25.1,5.2,37.3,1.3c10.6-3.3,20.3-10.7,25-21c5.2-11.2,5.7-24.9,1.6-36.5c-3.9-10.9-11.9-20.3-22.4-25.4
				c-5.7-2.8-12.2-4-18.4-4.6c-6.8-0.7-14.1-0.7-20.8,1c-5.5,1.3-10.6,4.5-14.9,8.2C570.1,310.9,568.2,312.9,566.5,315.1z"/>
			<path class="st7" d="M666.3,357.7c-0.6,3.8-1.6,7.6-3,11.1c-4.2,10.3-11.5,17.2-21.1,22.6c-13.9,8-30.7,12.5-46.6,9.3
				c-18.4-3.6-38.2-13.8-46.1-31.8c-4.8-10.8-5.7-22.8-3.5-34.3c2-10.8,6.4-22.5,14-30.6c6-6.4,13.8-10.7,22-13.8
				c21.6-8.3,47-4.2,64.4,11.3c1.6,1.4,3.1,2.9,4.6,4.5c6.5,7.1,11.1,15.8,13.7,25c1.3,4.6,2.1,9.4,2.3,14.3
				C667.2,349.3,667,353.5,666.3,357.7z"/>
			<path class="st7" d="M680.5,362.6c-3.2,16.1-10.6,30.2-24.2,39.9c-13.5,9.7-30.2,14.3-46.6,14.7c-4.6,0.1-9.2-0.1-13.8-0.6
				c-19.3-2.3-39.4-11-51.7-26.5c-13-16.5-18.4-37.3-15.7-58.1c2.8-21.8,15.9-39,34.3-50.4c18-11.1,41.2-14.3,61.6-8.1
				c19.6,6,38.2,17.3,48.3,35.7c2.6,4.8,4.6,9.8,6.1,15C682.1,336.5,683,350.3,680.5,362.6z"/>
			<path class="st7" d="M684.7,307.3c7.2,16.2,9.3,35.3,6.7,52.8c-3.1,20.8-12.4,42.5-29.2,55.8c-18,14.2-42.7,19-65.1,17.3
				c-17.8-1.3-35.7-8.3-49.8-19.2c-17.7-13.7-26.5-34.8-29.6-56.5c-1.7-12.4,0-26,3.2-37.9c5.5-20.4,18-38.4,36.4-49.3
				c20.4-12.1,45.6-15.5,68.7-10.2c22.9,5.3,42.6,17.5,54.2,38.3C681.8,301.2,683.3,304.2,684.7,307.3z"/>
		</g>
		<g>
			<path class="st8" d="M549.6,187.2c0.8,2.8,1.9,5.5,3.5,8.2c1.6,2.7,3.4,5.3,5.5,7.6c1.5,1.7,3.1,3.3,4.9,4.7
				c5,4.1,10.8,6.9,17,8.5c10.8,2.7,23.8-0.2,33.4-5.5c8.6-4.7,15.8-12.1,19.4-21.2c0.9-2.2,1.5-4.4,2-6.7
				c3.2-16.5-2.5-33.4-17.1-42.4c-17.5-10.9-43.3-10.7-58.3,4.5C549.6,155.3,545.8,173.2,549.6,187.2z"/>
			<path class="st8" d="M567,158.2c1.3-2.5,3.1-4.7,5.3-6.5c4-3.3,9-5.1,14-5.9c5.5-0.9,11.3-0.4,16.6,1.3
				c5.3,1.8,10.5,4.5,14.1,8.7c2.8,3.2,4.7,7.2,6,11.3c1,3.3,1,7.1,0.3,10.5c-1,5.3-2.9,10.8-6.7,14.8c-6.7,7.1-20.4,10.7-29.8,9
				c-4.7-0.9-9.3-3.1-13.2-6c-4.3-3.3-6.9-7.7-8.5-12.8c-0.3-0.9-0.5-1.7-0.7-2.6C562.9,173,563.5,164.7,567,158.2z"/>
			<path class="st8" d="M603.4,157c5.3,2.7,7.9,8.3,8.1,14.1c0.2,5.3-1.5,11-5.1,15.1c-4.3,4.9-11.1,6.1-17.3,4.8
				c-13.1-2.7-24.1-23.8-10-32.5c4.3-2.7,9.2-4.2,14.2-4C596.6,154.7,600.3,155.4,603.4,157z"/>
			<path class="st8" d="M585.6,170.6c1.2-1.1,2.3-2.3,3.6-3.3c1-0.8,2.4-0.9,3.4-0.1c1.8,1.5,7.1,7.1,7.1,7.1
				c-0.8,1.1-1.7,2.1-2.5,3.2c-0.6,0.8-1.3,1.6-1.9,2.4c-0.8,0.9-1.4,2.2-2.8,1.4l-10.4-7.4C582.1,173.9,585.4,170.9,585.6,170.6z"
				/>
		</g>
		<g>
			<path class="st9" d="M371.3,791.9c0,0.4-0.2,1-0.6,1.8l-5.7,4.8l-6,8.6h-4.8l-2.9,0.6l-0.3-2.6l-1.8-3.7l0.3-2.9l-0.3-2.8
				c-1.5-2.7-2.3-5.1-2.5-7.2h-2.3l-1.2-3.2l-5.1-10l-0.9-5.1l-7.5-12.9c-0.9-1.8-1.3-3.8-1.3-6c0.1-0.4,0.2-0.7,0.2-1
				c0-0.3,0.1-0.7,0.1-1.3c-1.8-0.9-3.1-2.1-4.1-3.7c-3.5-5.9-5.6-10.6-6.3-14.4l-5.1-2.3c-0.9,4.4-2.6,6.6-5.1,6.6h-0.6l-15.2-2.8
				l-5.4,0.3l-4-0.6l-20.9,2.8l-12.3-0.6l-6.6,1.8l-5.1-1.8l-4-1c-1.3,1.7-2.3,2.7-3.2,3.2c-0.9,0.5-2,0.7-3.4,0.7h-0.9l-12.9-0.9
				l-4.8,1.2l-6.3,0.3c-2.1,0.5-4.5,3.8-7.2,10l-2.6,5.7l-1.6,0.6c-2.8,7.5-6.5,14.6-11,21.2l-0.3,3.1l-2.2,3.2l-8.1,18
				c-0.6,1.8-2.8,3.1-6.6,4l0.3,2.3c-1.2,0.2-2.8,0.3-4.8,0.3c-2.8,0-5.8-1.1-8.9-3.2l5.7-10l4.1-5.1l3.4-5.4l2.1-3.2l2.1-2.8v-1.2
				c4-0.6,6-2.4,6-5.4v-3.5l4.5-5.4l6.3-13.8l3.7-5.1l4.1-9.1l4.8-9.2l5.7-9.7l6-5.7c0.4-0.4,0.6-0.9,0.6-1.5c0-0.8-0.5-1.7-1.5-2.6
				c1.8-1.3,3-2.3,3.8-3.1c0.8-0.8,1.5-2,2.2-3.4l-1.8-2.8l1.8-2.9l2.3-6.9c0.3-0.6,1.5-1.8,3.7-3.7l-0.3-1.5l6.6-16.8l5.1-13.8
				c1-2.5,3.2-5.7,6.6-9.4l-1.2-3.2l0.9-4c0.6-2.8,1.1-4.8,1.7-5.9c0.5-1.1,1.5-1.9,2.8-2.3c1.3-0.5,3-0.9,5.1-1.3l0.9-2.2l-1.5-4.4
				c-0.4-1.2-0.6-2-0.6-2.5c0-1.4,0.6-2.3,1.8-2.9l10-6.6l2.1-4.5c2.1-2.5,4.8-4,8.2-4.2l1.8,6h1.8l-0.6,1.6l2.1,4.4l4.2,5.4l5.4,10
				l2.9,8.1l3.7,6.6l-3.7,1.2c0,1.1,0.4,2,1.3,2.8c3.5,2.1,5.3,4,5.3,5.7l-0.3,2.6l3.4,3.7l4,6.6l2.1,3.5l0.3,1.2l-1.2,2.8l0.6,2.9
				l2.1,2.8l4.2,3.5l5.1,10.3l2.6,4.5v3.5c3.8,3.3,5.7,5.9,5.7,7.6c0,0.2-0.2,0.9-0.6,2.1l2.9,2.9l6.6,11.1c0.6,0.9,1,1.6,1.4,2.3
				c0.3,0.6,0.9,1.7,1.8,3.1c0.8,1.4,1.4,2.4,1.7,3c1.7,2.5,2.6,4.2,2.9,5c0.2,0.8,0.4,2.1,0.5,4.1c3.4,1.7,5.1,3.6,5.1,5.7
				c0,0.2-0.1,0.4-0.4,0.6l-0.6,6.3c0-0.2,0.2,0.5,0.6,2.1l6,3.1l1.9,2.6l0.9,2.8c0.4,1.5,2,2.9,4.8,4.4v3.4l5,5.1l4.8,8.1l2.5,2.9
				c1.2,1.5,2.1,3,2.8,4.7C371,790,371.3,791.2,371.3,791.9z M311.1,716.6l-1.3-1.2l0.6-1l-0.6-1.5h-2.9c-1.2-1.4-2.1-5.1-2.8-11.1
				l-0.3-2.9l-5.6-1.5l-7-13.9h-2.1l-8.9-17.6l1.2-3.4l-0.9-3.7l-6.9-3.5l-10.5-20.9c-0.4-1.1-2.7-3.3-6.9-6.7l-1.8,1.3l-1.9,6
				l-1.2,0.3c-1.2,4.1-2.1,6.6-2.6,7.6c-0.6,1-1.8,2.3-3.7,4.1c-2.5,2.2-4,4.5-4.2,6.9l-0.6,3.5l-6.6,14.5c-0.7,1.8-1.3,3.3-1.9,4.5
				c-0.6,1.3-1,2.1-1.2,2.5c-0.2,0.4-0.5,0.9-1,1.6c-0.5,0.7-1,1.3-1.6,1.8l-1.2,3.1c-0.8,2-1.4,3.1-1.9,3.6
				c-0.5,0.4-1.6,0.7-3.2,0.8l-0.3,3.4c-0.4,5-1.2,8.6-2.4,11c-1.2,2.3-3.3,4.5-6.2,6.4l2.6,4.1c-1.2,0.1-2.1,0.4-2.6,1
				s-1.1,1.6-1.5,2.9l-1,3.7l2.5,0.3l4.8,1.5l3.8-0.6l3.4,1.2l0.6-1.2l2.6-0.3l18.9,1.2l12-0.9l4.8,2.1c0.7-0.7,1.2-1.1,1.5-1.2
				c0.3-0.1,1.4-0.3,3.2-0.4s4.5-0.5,8.2-1l4-0.6l-0.6,1.5l1.2,0.6c0.9,0,2-0.8,3.2-2.3l4-0.3c5.2-0.5,9.1-0.9,11.7-1.1
				c2.6-0.2,4.2-0.4,4.8-0.6s1.5-0.5,2.7-1.2C308.7,718.2,309.9,717.5,311.1,716.6z"/>
			<path class="st9" d="M505.8,782.2c0,0.7-0.4,1.9-1.3,3.7l-2.6,3.5l-2.1,4h-1.9c-1.6,3-3.1,5.1-4.5,6.3s-3.3,1.8-5.6,1.8l-2.8-0.3
				l-10.4-2.1l-16,0.6l-12-4.2l-14.4,2.5l-9.7-0.9l-6,1.8c-2.1,0.6-4.5,0.9-7.5,0.9h-2.6l-10.8-0.3l-4.8,0.3l-11.7,0.9
				c-3.2,0-4.8-1.5-4.8-4.5c0-1.1,0.2-1.9,0.7-2.3l8.3-8.9l11.7-16.3l8.9-8.3l3.1-6c1.6,0.4,2.5,0.6,2.9,0.6c1.2,0,2.6-0.7,4.2-2.2
				c2-2.3,2.9-3.8,2.9-4.4c0-0.8-0.5-1.8-1.5-3.1l19.8-26.4c3.6,0,5.7-1,6.3-2.9l1.9-7l7.5-9.2l6.6-11.4l2.3-3.2l-8.3-3.1l-23.4,0.6
				l-18-1.8l-9.2,0.6h-1.2h-2.5H395l-3.7,0.3l-6.9,1.8c-1.4,0-2.1-1-2.1-2.9c0-1.8,0.5-2.8,1.5-3.1l5.7-3.8c2.5-1.9,4.8-4.6,6.9-8.2
				c0.4-0.2,0.7-0.3,0.8-0.3s0.3,0,0.4,0l9.7,1.9l2.6-1.9c3.4,2.8,6,4.2,7.8,4.2c0.9,0,1.5-0.1,1.9-0.3l4.1-0.9l4,0.6l5.7-0.3
				l14.4,3.7l15.7-2.2l6,0.6l5.7-0.9l6.3-0.6l6-1.2c2.2,0.3,3.9,2.4,5,6.3l-2.1,2.3l-6.9,8.5l-4.2,6c-0.8,1.5-1.5,2.4-2.1,2.9
				c-0.6,0.4-1.8,0.7-3.6,0.7l-2.6-0.3c0,1-0.1,2-0.3,3.1c-0.2,1.1-0.5,2.1-1,2.8s-1.2,1.7-2.3,3c-1.1,1.3-2.6,2.9-4.5,4.8l-3.7,4.8
				c-1.6,0.5-3.1,1.3-4.5,2.3v2.5c0,1.2-0.3,2.1-0.9,2.6l-5.7,6l-5.4,7.5c-3.7,3.9-5.6,6.3-5.6,7.3c0,0.6,0.1,1.1,0.3,1.5
				c-1,1.3-1.8,2.2-2.3,2.9c-0.6,0.7-0.9,1.1-1,1.3l-11.1,15.2l-8.1,2.9c-1,1.2-1.5,2.5-1.5,4c0,0.8,0.3,2.3,0.9,4.5l-6,8.6
				l-1.8,3.7h8.6l8.9-0.3c1.6,0,3.8,0.8,6.7,2.3c2.5-1.6,4.1-2.3,4.7-2.3l16,0.3l21.2-1.9l11.1,2.5l3.7,0.6l2.3-0.6v-3.4l2.6-0.9
				c4.9-1.6,8.4-2.3,10.5-2.3c0.8,0,1.4,0.2,2,0.7C505.5,780.7,505.8,781.3,505.8,782.2z"/>
			<path class="st9" d="M616.4,671.9l-1.5,4.1l-0.3,3.1l-10.5,7.8l-6.3,5.7l-3.7,0.6l-5.4-0.6c-3.6-0.4-6.9-1-9.9-1.7
				c-3-0.7-4.4-1.1-4.2-1.1h-0.3l-9.8,0.7l-5.7-1c-1.4,0.2-2.5,0.7-3.4,1.5c-0.9,0.8-1.4,1.7-1.4,2.7c0,1.1,0.6,1.8,1.8,2.1
				l-0.3,18.9c-4.2,1.2-6.3,3-6.3,5.4l0.3,3.4l6,1.2l0.6,14.1l0.3,3.1l-1.5,4.4c-1.2-0.6-2.1-0.9-2.9-0.9c-2.4,0-3.7,1.1-3.7,3.4
				c0,1,0.8,2.5,2.3,4.5c1.4-1.7,2.3-2.5,2.8-2.5c0.3,0,1.3,0.7,2.9,2.2l0.3,19.8l0.6,2.9l3.4,6.9c0.2,0.6,0.3,2.3,0.3,5.1
				c2.4,1.5,4.3,2.4,5.6,2.8c1.3,0.4,3.1,0.6,5.5,0.6c3.1,0,6.2-0.5,9.3-1.6c3.1-1.1,5.5-2.4,7.4-4.1l14.5-13.2c0.6-0.7,1.4-1,2.3-1
				c1.2,0,2.9,0.6,5.1,1.9l-0.9,3.2c-2.1,8.1-3.8,12.4-5.1,12.9l-34.4,12.6l-6,3.1l-4.5-2.8l-3.1-0.6l-1.5,4l-2.6,0.3
				c-2.9,0-6.3-1.4-10.3-4.2c-4.1-3.3-6.3-5.8-6.6-7.5l-0.9-4.2l-1.8-5l0.3-8.2v-9.2l2.9-9.7l-0.9-3.5l-0.6-5.1v-3.4l0.6-14.1
				l-0.3-4l-0.6-5c0-0.4,0.1-0.6,0.3-0.6l3.8-4.5c0.5-0.7,0.7-1.3,0.7-1.8c0-2.2-1.7-3.4-5.1-3.4l-1.2-1.8c1-7.1,1.5-14.3,1.5-21.4
				c-4.7-1-8.2-1.5-10.5-1.5c-6.1,0-12.2,1-18.3,3.1c-0.8-0.7-1.2-1.4-1.2-2.2c0-1.7,0.4-2.7,1.2-3.2l5.7-4.8l0.9-3.4
				c0.3-0.8,0.8-1.4,1.5-1.9c0.7-0.5,1.2-0.7,1.6-0.7l17-0.6l4-0.6L536,670l-0.9-31.2l-3.7-8.3l-0.9-4.5c2.9-4.1,5.9-7,8.8-8.8
				s6.7-3,11.3-3.8c2-3,3.7-4.5,5.1-4.5c2.6,0,4,4.4,4,13.3c0,13.5-1.2,23-3.7,28.7c-1.4,4-2.7,6-4.1,6v6.9c1.5,0,2.4,0.1,2.9,0.4
				c0.5,0.2,1.1,0.9,1.8,1.8l-0.9,4.1l0.6,3.4l3.1,0.3l14.6,3.2c1.2,0.4,2.8,0.6,4.8,0.6c2.1,0,3.7-0.2,4.5-0.6l5.7-1.8l11-1.2
				l8.5-3.1h2.9h1.2h3.4C616.3,671.7,616.4,672,616.4,671.9z"/>
			<path class="st9" d="M734.7,676.9c0,0.5-0.2,0.9-0.6,1.3l-8.3,6.6l-4.5,4.7l-2.6,1l-4-2.5l-2.6-2.6l-8.8-0.3l-8.3-3.4l-3.2-0.9
				c-1.3,2.1-2.6,3.5-4,4c-1.4,0.5-4.2,0.8-8.3,0.8l-4.8,2.1l-3.7-1.2l-2.9,2.3l-11.7,9.1c-2,2.5-3.1,7.2-3.4,14.1l-0.3,11.1
				l-3.2,2.1c2,3.3,2.9,6.5,2.9,9.7h2.2l0.3,4.1l0.6,18.9l0.3,10l-0.6,8.9c-3,1.8-4.5,3.2-4.5,4.2c0,0.2,0.4,1.1,1.2,2.6l4-0.9
				l-0.3,1.3l1.2,5.9v0.7c0,1.5-0.8,3-2.3,4.5c-1.6,1.6-3.2,2.4-4.8,2.6l-5.7,0.6L635,803l-3.7-2.2l0.6-2.9l2.1-8.5l-0.9-11.3
				l0.9-1.6h3.1v-1.8l-0.3-2.6l-1.8-4.2l-0.4-6l-1.2-5.1v-0.3v-4l0.3-4.7c0.4-0.5,0.8-1,1.2-1.5c0.4-0.5,1-1.3,1.8-2.4
				c0.7-1.1,1.5-2.4,2.4-4l1.5-3.5l-0.3-1.5c-4.6,0-6.9-1-6.9-3.1l0.6-11.1l-0.9-11c0.3-1,0.9-1.9,1.9-2.8v-4.2l-1.9-1.8l-0.6-3.5
				l-0.3-7.9l-3.2-6.3c0.7-3.5,2.2-6.5,4.7-8.9l9.1-4.8l5.4-3.5c2.7,0.8,4.6,1.7,5.6,2.8c1,1.1,1.5,2.8,1.5,5.3v0.9v4
				c0,3.6,0.8,5.4,2.3,5.4h0.6l7.5-4l7.3-2.8l12.6-6.9l4.1-1.8l3.4,0.9l6.6-2.1c3.8-1.2,6.7-1.8,8.6-1.8l6.3,0.6
				c2,2.7,3.6,4.1,4.8,4.1c0.2-0.1,0.3-0.2,0.4-0.2c0.1,0,0.2-0.1,0.4-0.1l3.4-1.8c0.8-0.4,1.4-0.6,1.8-0.6c2.4,0,4.7,1.3,6.9,4
				C734,673.8,734.7,675.4,734.7,676.9z"/>
			<path class="st9" d="M873.3,769.6c0,1.3-0.2,2.4-0.7,3.4l-2.9,5.1l-6.9,11.9l-6.3,0.4l-4,3.2c-0.9,0.9-2.4,1.5-4.5,1.8l-26.4,5.1
				l-4.1,1.5l-9.4-0.9l-13.5,1.2l-15.2-0.9h-4.2c-2.1-1.7-3.5-2.6-4-2.9l-14.4-5.1l-4.8-4.5l-9.5-6.6l-7.6-10.1l-2.9-2.5
				c1.2-2.3,1.8-4.4,1.8-6.3c0-0.8-0.2-1.4-0.6-1.8l-4-6.3l-0.9-8.3l-0.3-6.7c0-2.2,0.5-5.2,1.6-8.9c1.7-5.9,3-9.4,4.1-10.5l5.4-6.9
				l2.8-6.3l6.9-6.6l7.5-9.8l6.6-3.7l9.5-6.6l6.3-4.2l2.2-1.5l4.4-0.9l13.3-4.2l10.4-1.2l6.3-2.6l3.1-0.3c5,0,9.2,2.7,12.6,8.1
				c1.9-0.2,3.2-1.2,4.1-3.1l4,3.4l5.4,2.9l12.3,12c1.6,2,2.8,3.6,3.6,5.1c0.8,1.4,1.7,2.9,2.5,4.5c0.8,1.6,1.6,3.3,2.2,5.1
				c0.6,1.9,1.6,4.7,2.9,8.5l1.2,3.7l-1.5,0.6l-5.7-1.2l-6.3,2.1l-4.8-0.9l-5.4,1.5l-10.3-1.2l-9.8,0.6l-10.3-1.8l-16.7,0.3
				l-8.2-0.3l-19.8,2.6l-7.2-0.3l-10,2.9l-3.5,0.7l-0.6,3.5c-0.2,2.4-0.5,4.1-1,5c-0.5,0.9-1.6,1.9-3.2,3.1l0.3,2.8
				c3.2,2.4,4.9,4,5.1,4.5l3.8,14.9l1.9,3.7c-1,1-1.5,1.9-1.5,2.6c0.1,0.2,0.2,0.4,0.3,0.6l5.6,1.8l1.3,3.7c1,3.4,2.2,5.5,3.8,6.3
				l7.9,3.2l2.6,5.7c1.4,0.7,3.6,1.2,6.6,1.6l2.1,3.8l4.5,0.6l12.6,4.5l10.5-2.1l27.8-4.5l6-3.7l9.4-5.7l7.8-10.1
				c1.4-1.7,3-2.5,4.8-2.5C871.6,765.1,873.3,766.6,873.3,769.6z M838.7,700.6c0-1.6-1.8-4.8-5.4-9.8l-10.1-7.3l-3.4-3.5l-4.8-0.3
				l-11.1-0.9l-2.6,0.6l-6.3,3.5l-8.1,1.9l-10.3,3.8l-4,1.5l-4.7,7c-2.9,2.1-4.5,3.3-4.8,3.8l-0.6,1.8l18,1.3l2.1-0.3l3.4-1l3.2,0.7
				l8.6,1.8h0.4l9.8-1.8l3.1-0.7l2.3,3.4h3.4l12.9-2.6l5.3,0.6C837.5,703.7,838.7,702.6,838.7,700.6z"/>
			<path class="st9" d="M1041.5,787c0,1.5-1.1,4.2-3.4,8.1l-0.6,1.2c-2,4-4.6,6.2-8.1,6.7l-7.8,0.9l-3.1,1.8
				c-0.4,0.2-0.9,0.3-1.5,0.3c-1,0-1.7-0.1-2.1-0.3l-6-2.1l-9.1-2.5l-7.5-3.2l-2.9-1.9l0.3-3.8c0-2.4-1.8-3.7-5.4-3.7h-3.4l-0.9,1.9
				l-3.2-1.9l-19.2-15.8l-4.5-1.6l-23.7-19.5c-0.8-0.4-1.5-0.6-2.1-0.6s-1.1,0.3-1.7,1c-0.5,0.6-0.8,1.3-0.8,2.1v0.3l3.4,39.3
				c0,1.3-0.7,2.6-2,3.9s-2.6,2.1-3.7,2.4l-10,2.3l-3.8,2.5l-3.4,1.5c-1.4-1.7-2.1-3.1-2.1-4.2v-1.5l2.6-17.7l-1.5-29.3l3.1-0.3
				c1.2-1.5,1.8-2.7,1.8-3.8c0-0.3-0.1-1-0.3-2.2c-3-1.5-4.5-3-4.5-4.5c0-1.2,1.4-4.4,4.2-9.7c-0.2-1.3-1.5-2.1-4-2.6v-4.2
				l-0.6-14.1l-0.3-9.4l0.6-11.3c1.5-0.8,2.4-1.5,2.8-2.3c0.4-0.7,0.6-2.1,0.6-4l-3.7-0.6l-0.6-41.7c2.4-1.1,3.7-2.5,3.7-4.2
				c0-1.6-0.2-3.2-0.7-4.8l-2.9-2.3V625l-2.1-15.8l1.5-14.8l-1.5-6l-1.3-0.9l-0.3-4.2l-2.1-17.3l0.3-16.6l-1.2-4l1.5-9.8l-1.2-2.5
				c0.6-1.2,1-1.9,1.4-2.1c0.3-0.2,1.5-0.7,3.4-1.4c0.2-0.2,2.9-2.3,8.1-6.3l2.9-2.5c1.3,0,2.7-0.4,4.2-1.2l2.8-2.1l2.1,1.2v2.3
				h-0.9l-1.5,7.9l0.9,24.6l-0.6,13.5c0,3.2,0.4,6.9,1.2,11.1l-2.8,2.3l-0.6,12.9l1.2,2.6l3.1,0.4l0.3,2.3l-0.3,9.2l1.2,6.3
				l-0.3,2.8l0.6,11.1l-0.6,20.7v13.8v0.3l-1.5,9.4v1.8c0,1.8,0.2,3,0.6,3.7l3.2,5.6c0.1,0.2,0.2,0.4,0.2,0.5c0,0.1,0.1,0.3,0.1,0.5
				l-1.2,8.6v1.5l1.2,17.7v3.7l-0.3,6.9l-1.2,9.8v0.3c0,1.3,0.5,3.4,1.5,6.3l1.9-0.9l6.6-5.4l9.2-6.3l19.5-20.1l18.9-18.9l9.1-10.8
				c2.7-3.3,7.6-7,14.6-11l4,2.9c2.6,1.9,4,3.4,4,4.5c0,2.8-2.1,6.6-6.4,11.4l-2.9,0.9c-2.1,0.7-3.5,1.3-4,1.8
				c-0.5,0.5-1.2,1.7-2,3.6c-3.2,0-6.1,0.6-8.6,1.8v3.5c0,2.7-0.7,4.6-2.2,5.7l-8.6,6.6l-4,3.4l-2.1,0.3h-2.3
				c-0.7,3.2-1.4,5.1-2.2,5.7l-6.3,3.7l-5.1,5l-4.7,3.7c-2.8,1.8-4.2,3.8-4.2,6c0,2.3,1.9,4.6,5.7,6.9c11,6.5,17,10.8,18,12.9
				l4.5,9.4c1.1,1.7,3.9,3.3,8.3,5l3.8-2.3l17.7,7.8c1.5,0.7,2.2,1.6,2.2,2.8l-0.3,1.8l6,3.7l2.3-2.2l6.6,2.2l4,1.8h4.1
				c1.1,0,2.4,0.4,4,1.2c1.4-1.4,2.7-2.1,4-2.1c0.9,0,1.5,0.2,2,0.5C1041.3,785.8,1041.5,786.4,1041.5,787z"/>
		</g>
	</g>
</g>
<g id="Calque_2" class="st1">
	<g class="st2">
		<path class="st10" d="M-2215.1,285.9l-56.4,55.5l-3.3-6l-4.5,0.2l-2.3-6.3l3.3-5.8l119.4-114.6l19.4,7.6l-42.6,277.4l-16.2-14.1
			l26.6-171.2L-2215.1,285.9z M-2168.7,294.5l6.4-41.3c1.4-9.4,3.4-17.6,5.3-25.6l-0.4-0.2c-5.6,6.3-11.5,12.7-17.7,18.9l-30.4,29.1
			L-2168.7,294.5z"/>
	</g>
	<g class="st2">
		<path class="st11" d="M-2214.3,445.3l172.1-135.3l0.6-1l-60.3-36.5l14.2-23.4l80.2,48.6l-10.3,17l-171.3,134.9l-0.6,1l66.5,40.2
			l-14.2,23.4l-86.7-52.5L-2214.3,445.3z"/>
	</g>
	<g class="st2">
		<path class="st12" d="M-1962.3,388.3l-31-53l19.1-11.2l75.6,129l-19.1,11.2L-1949,411l-219.2,125.9l-1-8.3l-3-2.3l1-15.6
			L-1962.3,388.3z"/>
	</g>
	<g class="st2">
		<path class="st13" d="M-1936.5,442.1c5.9,6.8,13,17.2,18.9,27.7c9.2,16.2,12.1,28.3,9.7,39.3c-1.9,8.9-8,16.7-17,21.9
			c-15.5,8.8-31.3,4.9-42.5-5.1l-0.5,0.3c2,10.8-3.3,21-13.9,30.6c-14.2,13.1-23.9,22.3-27,27.3l-5.2-9.1l-3.7-6.5
			c2.2-3.8,10.8-12.1,23.6-23.7c14.2-12.7,16.7-22.4,9.5-36.4l-8.1-14.3l-175.7,99.7l-2.2-3.8l-1.5-7.4v-4.7l0.9-2.7L-1936.5,442.1z
			 M-1981.3,487.5l8.8,15.5c9.2,16.2,23.9,21.4,37.3,13.8c15.1-8.6,15.5-23.3,6.6-39.4c-4.1-7.3-7.8-12.1-9.9-14.2L-1981.3,487.5z"
			/>
	</g>
	<g class="st2">
		<path class="st14" d="M-2044.2,696.4l-38.8-72.2l-42.8,23l51.2,95.6l-0.3,3.1l1.1,3.6l-1.6,4.5l-5.8,7.3l-65.7-122.4l118.8-63.8
			l32.4,60.8l-3.3,7.8l-5.3,7.4l-28.4-53.8l-37.5,20.2l38.2,71.5l-3.7,3.4L-2044.2,696.4z"/>
	</g>
	<g class="st2">
		<path class="st15" d="M-2028.6,671.8l0.6,5l0.6,4.7l-81.1,25.1l0.1,0.4c3.9,1.4,7.6,2.8,11,4.2l15,6.6l2.1,11.7l-18.8-8.3
			l-32.8,38.4l-4-9.7l27.4-34.5l-11.6-5.5l-34.9,9.4l-4.9-8.6L-2028.6,671.8z"/>
	</g>
	<g id="XMLID_2_" class="st2">
		<g>
		</g>
		<g>
			<path class="st16" d="M-1860.5,380.6h-3.3v-7.4l-5.8-6.5l-10.9-2.7l-9.9-4.6l-9.1-5.9l-3.3-5.3l-4.4-2.9l-9.3-0.6v-3.1h-28.7
				l-3.5,3.2l-4.4,2.5V336l-2.2-4.5l-8.9-5.5l-10-4.3l-9.8,7l-7.1,5.8l-4.8,0.6l-4.3-1.2l-1.9-1.5l8.8-4.1l4.5-6.8l-3.2-4.8l-5.3-3
				l-7.9,2.9l-11.5,9.5l-4.1,4.1l-2.6-1.7l4.1-8.3l11.3-6.7l6.6-13.1l-5.1-2.9l-1.9-9.5l-1.4-8.5l-4.9-2.8l-5.2-8.4l-8.4-7.7
				l-5.8-1.4l-5.7,0.6v-3.1l-7.2-0.8l-4.8,2l-5,0.6l-5.7-1.9l-6.6-4l-7.8-3.9l-5.1-7.7l-2.7-5.4l-9-8.3l-4.3-0.7l-17.6,0l-3.6-6.1
				l-2.1-6.4l-4.1-0.8l-4.9,1.4l-3.7,1.2l-8.4-2.6l-11.3-3.3l-6.9-1.9l-3.3-6l-5.6-2.1l-4.8-2.8h-4.7l-6.1,6.1l-6.5,2.2l0.8,7.6l2,4
				v3.3c-1.3,1.3-4.3,3.8-6.6,4.6l-4.5-6.8l3-3.6l0.8-3.8l-0.6-4.5l3.8-6.4l3.4-6.8h-9.3l-8.8,8.2c-0.8,0.3-3.8,1.8-6.2,4.9
				c-0.5,0.7-1.1,1-1.8,1.1c-1.7,0.2-3.4-1.2-3.4-1.2l-0.6-0.5l-8.9,6.7l-2.7,10.7l-9.7,7.1l-7.4,8.1l-7.3,6.5l5,8.5l2,12.4v12.3
				l-6.5,10.4l-8.6,10.6l-9.4,14.7l-10.3,15.1l3.1,8.5h4.8l2.7,4.9l-2.2,2.8l-5.3,9.2l-7.8,4.7l6.9,4.6v11.3l3.7,2.9l11.1,10.5
				l7.2,21.8l8.7,16.8l13.9,14v6.5l4.1,8.9l6.2,11l12.2,4.8l30.4,20.8l4.6,6.9l6.5,5.3v21.9l3.4,4l0.6,5.8l-3.9,3.3v17.3l2.7,6.7
				l0.6,8.1l-3.3,4v9.2l6,14.7v27.4l4.7,8V691l2.8,8.3l2.6,3.1l-2.7,1.1v7.1l3.3,3.3v4.1l6.9,5.5l10.1,13.2l-3.4,3.4l3.9,4.6
				l3.9,6.4l1.3,8.3l-1.8,6.7l-6.8,4.1v4.5l7.7,4.9l4.5,5.1l3.9,10.5l4.1,10.2l6.7,7.3l3.5,8.3l5,1.4l8.1,5v8l5.7-4.1l5,3.1h3.8
				l7.7-2.8l8.5-8.5h-5l-3-8.3l2.5-6.3l4-9.3l4.2-8.5l-2.2-3.8l-2.8-6.2l-5.4-4.1l-4.5-6.5l-2.9-5.3l6.8-6.8l5.1-8l-2.8-4.8l1.2-4.7
				l6.8-6.8h-7.9l-4.3-5.5l-5-7.4l2.6-3.6l6.5,0.6l7.2,4.3l4.8-5.6v-16.7h2.3l17.7-2.7l8.2-4.8l5.7-5.7l2.1-8.6l-2.8-8.4l-6.1-7.5
				l-6.4-5.2v-6.5l6.5,3.8l7.6,4.1h15.9l6.2-4.2l6.9-8.2l4.8-9.5l4.6-7.9l5.9-6.6l3.6-6.4v-8.6l3.8-5.7l3.5-4.9v-6.1l4.2-7.6
				l-4.2-6.2v-11.9l9.5-7l9.1-5.8h5.4l6.2-5.5l4.1-2.3l5.1,2.5h6.5l6.4-3.5l3.8-4.5h4.5v-6.1l4.9-8.5l5-10.7l2.1-10.8l2.7-10.4
				l0-9.1l1.3-5.2l0.7-12.4l-2-6.4v-10.5l3.8-5.1c1.5-2,4.4-5.2,6.1-5.6c3-0.8,3.4-7,3.4-9.3l4.5-6.4l6.6-9.9l7.6-9.7l-0.7-4.7
				l5.3-6.6V380.6z"/>
			<path class="st16" d="M-1865.8,373.9v8.6h3.3v8l-5.4,6.7l0.7,4.7l-7.1,9.1l-6.7,10l-4.8,6.9v0.3c0,3.4-0.8,7.4-1.9,7.7
				c-2.9,0.7-6.8,5.8-7.2,6.4l-4.2,5.6v11.3l2,6.5l-0.6,11.7l-1.3,5.2l0,9.1l-2.6,10.3l-2,10.5l-4.9,10.5l-5.1,8.9v4.6h-3.5
				l-4.2,4.9l-5.6,3.1h-5.5l-5.6-2.8l-5.1,2.9l-5.9,5.2h-5.2l-9.6,6.2l-10.4,7.6v13.5l3.8,5.8l-3.8,7v5.9l-3.2,4.4l-4.2,6.2v8.7
				l-3.2,5.7l-5.9,6.6l-4.8,8.2l-4.6,9.2l-6.5,7.8l-5.6,3.8h-14.8l-7.1-3.9l-9.5-5.5V658l7,5.6l5.8,7.1l2.5,7.5l-1.9,7.5l-5,5
				l-7.7,4.5l-17.1,2.6h-4.3v18l-3.2,3.8l-6.1-3.7l-8.1-0.7l-4.1,5.7l5.8,8.6l5,6.4h4.1l-3.8,3.8l-1.5,6l2.6,4.5l-4.3,6.7l-7.8,7.8
				l3.7,6.7l4.7,6.8l5.3,4.1l2.6,5.8l1.8,3l-3.8,7.6l-4,9.4l-2.8,7l3.7,10.4h1.6l-4.8,4.8l-7,2.5h-2.9l-5.7-3.5l-3.7,2.6v-5.3
				l-9.1-5.6l-4.5-1.3l-3.2-7.7l-6.7-7.3l-3.9-9.8l-4.1-10.8l-4.8-5.5l-7.1-4.6v-2.2l6.5-3.9l2.2-7.9l-1.4-9.1l-4.1-6.8l-2.8-3.4
				l3.3-3.3l-11.2-14.7l-6.5-5.2v-3.9l-3.3-3.3v-4.9l4-1.6l-4.1-4.9l-2.6-7.7v-56.1l-4.7-8v-27.3l-6-14.7v-8.1l3.4-4l-0.7-9.1
				l-2.7-6.8v-16l4-3.4l-0.8-7.5l-3.3-4v-22.1l-6.9-5.5l-4.7-7.1l-30.8-21.1l-11.9-4.6l-5.8-10.3l-3.9-8.5v-6.9l-14.2-14.2
				l-8.6-16.5l-7.4-22.2l-11.6-10.9l-3-2.4v-11.4l-5.1-3.4l5.5-3.3l5.4-9.5l3-3.8l-3.9-7.1h-4.6l-2.3-6.2l9.7-14.3l9.3-14.6
				l8.6-10.6l6.9-11v-12.9l-2.1-13l-4.4-7.5l6.1-5.5l7.3-7.9l10.2-7.5l2.7-10.7l7.1-5.4c0.9,0.6,2.5,1.4,4.2,1.2
				c1.3-0.1,2.3-0.8,3.2-1.8c2.5-3.1,5.6-4.4,5.6-4.4l0.2-0.1l8.5-7.9h5.3l-1.9,3.8l-4.2,7l0.7,4.8l-0.6,2.9l-3.6,4.4l6.1,9.2
				l0.6-0.1c3.6-0.7,8.3-5.4,8.5-5.6l0.3-0.3v-4.6l-2-4l-0.6-5.7l5.5-1.8l5.9-5.9h3.3l4.4,2.5l5.1,1.9l3.4,6l7.7,2.1l11.3,3.3l9,2.8
				l4.3-1.4l4.4-1.3l2.5,0.5l1.8,5.4l4.4,7.4h18.5l3.7,0.6l8.3,7.7l2.6,5.2l5.5,8.3l8.2,4.1l6.7,4l6.4,2.2l5.6-0.7l4.7-2l4.8,0.5
				v3.5l7.6-0.8l4.9,1.2l7.7,7.1l5.4,8.8l4.5,2.6l1.3,7.6l2.1,10.5l4.2,2.4l-5.4,10.9l-11.3,6.7l-5.2,10.4l5.4,3.6l5.2-5.2l11.2-9.2
				l6.7-2.5l4.1,2.3l2.2,3.2l-3.5,5.2l-11.2,5.2l4.7,3.8l5.1,1.4l5.8-0.7l7.5-6.1l8.9-6.3l8.8,3.8l8.4,5.1l1.8,3.5v14.1l7.5-4.2
				l3.2-2.9h25.9v2.9l10.7,0.7l3.6,2.4l3.3,5.3l9.5,6.1l10.1,4.7l10.5,2.6L-1865.8,373.9z"/>
		</g>
	</g>
</g>
<g id="Calque_3">
</g>
</svg>
