<?xml version="1.0" encoding="utf-8"?>
<!-- Generator: Adobe Illustrator 21.1.0, SVG Export Plug-In . SVG Version: 6.00 Build 0)  -->
<svg version="1.1" id="Calque_1" xmlns="http://www.w3.org/2000/svg" xmlns:xlink="http://www.w3.org/1999/xlink" x="0px" y="0px"
	 viewBox="0 0 259.5 230.3" style="enable-background:new 0 0 259.5 230.3;" xml:space="preserve">
<style type="text/css">
	.st0{fill:none;stroke:#40683C;stroke-width:2;stroke-miterlimit:10;}
	.st1{fill:none;stroke:#B09700;stroke-width:2;stroke-miterlimit:10;}
</style>
<title>monde et l homme</title>
<g id="Calque_2">
	<g id="Calque_1-2">
		<path class="st0" d="M182.8,67.3c4.5-3.8,9.8-11.5,11.6-17c2.6-7.6-5.4-20.2-14.4-16.4c-3.2,1.3-5.4,4.1-7.7,6.6
			c-4.3,4.8-14.6,9.5-11.1-1.5c1.8-5.6,6.8-14.6,5.1-20.3c-1.4-5-8.6-10.2-13.6-7c-2.7,1.7-4.2,4.8-5.2,7.9
			c-1.1,3.2-1.9,10.6-4.5,13c-8.9,8.2-7.7-14.2-8.1-17.9c-0.1-2.1-0.7-4.1-1.7-5.9c-2.2-4.7-7.1-7.8-12.4-6.3
			c-7.1,2-6.5,7.9-7.2,13.7c-0.4,3.6,1,12.4-3.9,13.2c-2.6,0.5-5.2-1.3-6.6-3.6s-1.8-5-2.2-7.6c-0.7-3.9-1.6-7.8-2.8-11.6
			c-0.3-1-0.7-2-1.4-2.8c-3.3-4.1-13.2-3.7-15.6,1.4c-0.4,1-0.6,2.2-0.5,3.3c0,2.4,0.4,4.8,0.7,7.3c0.6,6.1,6.5,19.9-5.4,19.5
			c-7.3-0.2-9.4-11.9-12.3-16.9c-5.2-8.8-15.6-8.8-18.9,2.4c-2.9,9.7,12.8,22.2,9.2,28.9c-0.5,1.3-1.4,2.3-2.5,3.2
			c-1.9,1.1-12.4-10-13.5-11.1c-8-8.1-17.8-0.8-16.3,9.4c0.4,1.6,1.1,3.2,2.1,4.5c1.2,1.6,2.7,3,4.5,4.1c2.5,1.7,7,3.8,8.6,6.4
			c0.9,1.4,0.7,3.7-0.8,4.5c-3.5,1.8-11.8-2.8-14.8-4.2L20.7,66c-9.1-4-15.1,13.3-5.1,17.8c4.2,1.9,8.7,3.1,13,4.9
			c3.4,1.4,2.4,6.8-1.2,7.5c-5.6,1.2-11.8-3.9-17.3-4.2c-1.3-0.1-2.7,0.1-3.9,0.7c-3.7,1.7-6.4,9-4.6,12.5
			c2.4,4.9,10.2,4.4,14.8,4.9c3.1,0.3,9.1-0.4,10.1,3.7c2,8-16.5,5.4-20.4,7.7c-5.3,3.1-5.3,10.6,0.9,12.3
			c5.3,1.5,11.7,1.3,17.1,0.6c2.5-0.3,5.9-0.7,5.8,2.8c-0.2,8-11.8,7.5-16.7,9.6c-7.2,3.2-9.9,16.9,1,15.9c4.9-0.6,9.7-2.1,14.1-4.4
			c1-0.6,2.1-1,3.2-1.2c1.8-0.1,3.4,0.9,4.1,2.5c3,7.1-7.9,11.5-12.1,15c-2.5,2.1-5.5,4.2-5.5,7.7c0,4.9,6.3,10.3,11,8.1
			c5.3-2.6,9.1-7.4,14.2-9.7c8.1-3.6,10.5,4.3,8.4,10.4c-1.3,3.9-4.4,9.7-3,14.2c2.2,7.4,9.2,6.7,13.8,2c3.3-3.4,5.2-11.6,9.7-13
			c14.6-4.7,4.8,20,7.1,25c5.3,11.7,14.5,1,17-5.8c1.8-5.1,2.1-16,10.4-13.3c5.2,1.7,5.8,9.1,6.4,13.6s-1.1,9.9,3.5,12.8
			c16,9.8,17.1-11.6,16.5-21.4c-0.3-4.4,4-8.2,8.2-5.5c6.1,3.9,4.2,11.8,8.7,16.2c3.6,3.6,10.1,2.6,13.5-0.8
			c5.5-5.6,1.4-11-1.4-16.6c-6.1-12.5,3.8-18.8,14.5-12c2.8,1.8,6.3,5.4,9.8,3.3c5-2.9,6.3-8.6,4.2-13.9c-1.1-2.6-2.7-4.9-4.7-6.9
			c-2-2.1-2.6-3.8-4.8-5.6"/>
		<path class="st1" d="M114.5,102.9c1.2-2,2-4.5,1-6.6c-1.1-2.6-4.3-3.7-7.1-3.5c-8.2,0.6-12.4,9.2-9.8,16.4
			c4.9,13.5,19.6,17.6,32.2,12.2c6.2-2.6,9.8-6.3,12.6-12.3c3.8-8.1,4.3-17.3,1.6-25.8c-3.4-9.8-11.5-15.6-21.7-17
			c-2.4-0.3-4.9-0.5-7.3-0.6C93.8,65,66.6,76.5,59.4,99.4c-4.2,13.4,0.3,28.4,6.7,40.5c4.7,9,13.1,16.9,21.5,22.6
			c17.8,12,39.2,10.3,58.5,3.3c14-5.1,27.6-11.6,40.4-19.3c6-3.6,12.1-7.4,17.7-11.4s11.3-8.2,18.3-9.9c11.2-2.8,23.6,3.6,30.4,12.4
			c4.9,6.3,6.9,16,4.6,23.7c-4.2,14.1-33.3,24.2-35.4,3.6c-0.4-5.7,2.9-11,8.3-13.1c4.5-1.8,11,2,9.9,7.2c-0.3,0.1-0.6,0.1-0.9-0.1"
			/>
	</g>
</g>
</svg>
