<?xml version="1.0" encoding="utf-8"?>
<!-- Generator: Adobe Illustrator 21.1.0, SVG Export Plug-In . SVG Version: 6.00 Build 0)  -->
<svg version="1.1" id="Calque_1" xmlns="http://www.w3.org/2000/svg" xmlns:xlink="http://www.w3.org/1999/xlink" x="0px" y="0px"
	 viewBox="0 0 42.2 39.4" style="enable-background:new 0 0 42.2 39.4;" xml:space="preserve">
<style type="text/css">
	.st0{fill:#635C56;}
	.st1{fill:#A3715E;}
	.st2{fill:#BA9D6A;}
	.st3{fill:#FFFBDC;}
	.st4{fill:#FFFFFF;}
	.st5{fill:#96A3B0;}
</style>
<title>monkey</title>
<g id="Calque_2">
	<g id="Layer_1">
		<path class="st0" d="M13.5,2.5C12.6,2.8,11.8,3.4,11,4c-0.3,2.8,0.1,5.6,1.3,8.2c0.4-0.7,0.9-1.3,1.4-1.9C13,8.4,13,6,13.5,2.5z"
			/>
		<path class="st0" d="M14.3,2.2c-0.3,0.1-0.5,0.2-0.8,0.3c-0.5,3.5-0.5,6,0.2,7.8c0.6-0.7,1.3-1.4,2.1-2c-0.3-2.3-0.1-4.7,0.6-6.9
			C15.7,1.6,15,1.8,14.3,2.2z"/>
		<path class="st0" d="M26.5,0.4c-0.6-0.1-1.2-0.1-1.8-0.1c-0.3-0.1-0.6-0.1-0.9-0.1c-1.4,2.3-2.1,4.2-2,5.8h0.3c0.6,0,1.2,0,1.8,0
			C24.2,4,25.1,2,26.5,0.4z"/>
		<path class="st0" d="M23.8,0.2c-0.6,0-1.3,0-1.9,0.1c-1.4,1.7-2.2,3.9-2.3,6.1c0.7-0.2,1.5-0.3,2.2-0.4
			C21.7,4.4,22.4,2.5,23.8,0.2z"/>
		<path class="st0" d="M21.9,0.3c-0.9,0.1-1.8,0.2-2.7,0.3c-1.1,2-1.6,4.2-1.5,6.5c0.6-0.2,1.2-0.5,1.9-0.7
			C19.7,4.2,20.5,2.1,21.9,0.3z"/>
		<path class="st1" d="M21.8,6.1c-0.7,0.1-1.5,0.2-2.2,0.4c-0.7,0.2-1.3,0.5-1.9,0.7c-0.7,0.3-1.3,0.7-1.9,1.1
			c-0.8,0.6-1.5,1.3-2.1,2c-0.5,0.6-1,1.2-1.4,1.9c-0.4,0.6-0.7,1.3-1.1,1.9c-0.1,0.2-0.1,0.3-0.2,0.4c-0.3,0.7-0.6,1.4-0.8,2.1
			c0.3,0.5,0.4,1,0.5,1.6c0.2,1.4,0.2,2.9-0.1,4.3c0,0.8-0.2,1.5-0.7,2.1c0.2,0,0.4,0.1,0.7,0.4c0.4,0.3,0.6,0.8,0.5,1.3
			c0.1,0.5,0.1,1,0,1.5c2.6,1.5,5.3,2.7,8.2,3.4c0.3-2.1,1.8-3.8,3.8-4.4c-1.3-0.3-2.5-1-3.5-2c-1.5-1.4-2.3-3.4-2.3-5.5
			c0-0.4,0.1-0.7,0.2-1.1c0.1-1.6,0.9-3.2,2.1-4.3c2.9-3,7.8-3.1,10.8-0.1c0,0,0.1,0.1,0.1,0.1c1.2,1.1,2,2.6,2.2,4.3
			c0.1,0.4,0.1,0.7,0.1,1.1v0.2c0.2-0.4,0.4-0.9,0.5-1.3c1.1-2.8,0.3-6-1.9-8.1C31.3,10,31.1,9.7,31,9.6c-0.5-0.5-1.1-1-1.7-1.4
			c-0.5-0.5-1.1-0.8-1.7-1.1c-0.6-0.3-1.2-0.5-1.8-0.6h-0.1c-0.6-0.2-1.2-0.3-1.8-0.4c-0.6,0-1.2,0-1.8,0L21.8,6.1z"/>
		<path class="st0" d="M27.6,7L27.6,7c0.6,0.4,1.2,0.7,1.7,1.2c1.2-2.2,3.1-4,5.4-4.9c0.5-0.1,1.1-0.3,1.6-0.5
			c-0.3-0.1-0.7-0.3-1.2-0.5s-1-0.4-1.5-0.6c-0.9,0.4-1.4,0.6-1.8,0.8C29.8,3.3,28.3,5,27.6,7z"/>
		<path class="st0" d="M27.6,7.1L27.6,7.1c0.7-2.1,2.2-3.7,4.2-4.6c0.4-0.2,0.9-0.4,1.8-0.8c-0.3-0.1-0.6-0.2-1-0.3
			c-0.8-0.2-1.7-0.4-2.5-0.5c-1.8,1.1-3,2.2-3.4,3.3c-0.4,0.7-0.7,1.5-0.9,2.3C26.4,6.6,27,6.8,27.6,7.1z"/>
		<path class="st0" d="M25.7,6.4h0.1c0.2-0.8,0.5-1.6,0.9-2.3c0.4-1.1,1.6-2.2,3.4-3.3c-1.2-0.2-2.4-0.4-3.6-0.4
			C25.1,2,24.2,4,23.9,6C24.5,6.1,25.1,6.3,25.7,6.4z"/>
		<path class="st0" d="M17.7,7.2c-0.1-2.3,0.4-4.5,1.5-6.5c-0.9,0.2-1.9,0.4-2.8,0.7c-0.7,2.2-0.9,4.6-0.6,6.9
			C16.4,7.8,17,7.5,17.7,7.2z"/>
		<path class="st0" d="M36.3,2.8c-0.5,0.2-1.1,0.4-1.6,0.5c-2.3,0.9-4.2,2.7-5.4,4.9C29.9,8.6,30.5,9,31,9.6c1.1-2,2.3-3.4,3.9-4
			s2.4-1,2.7-0.9s0.5,0.1,0.7,0C37.8,3.9,37.1,3.2,36.3,2.8z"/>
		<path class="st0" d="M5.9,12.2L5.4,15c0.7-0.2,1.4-0.2,2.1,0C6.7,14.3,6.1,13.3,5.9,12.2z"/>
		<path class="st0" d="M6.6,9.2l-0.7,3c0.2,1.1,0.8,2,1.6,2.8c0.6,0.2,1.2,0.4,1.7,0.7c0.1,0.1,0.1,0.1,0.2,0.1L9.6,16
			c-0.4-0.5-0.8-1.1-1.2-1.7C7.4,12.8,6.8,11,6.6,9.2z"/>
		<path class="st2" d="M5.4,15c-1.1,0.3-2.1,1-2.8,1.9C1.2,19.6,1,22.8,2,25.7c0.1,0.8,0,1.6-0.3,2.3c-1.1,2-1.6,4.3-1.4,6.6
			c0.4,1.8,1.4,2.8,2.9,2.9c1,0.2,2.1,0.1,3.1-0.2c1.3-0.3,2.3-1.4,2.5-2.8c0.1-0.4,0.2-0.9,0.3-1.3l0.3-2.7c0-0.1,0-0.3,0.1-0.4
			c-0.1-0.2-0.1-0.4-0.1-0.6c-0.3-1-1.3-1.6-2.3-1.4c-0.3,0-0.5,0.2-0.8,0.4c-0.7,0.4-1.2,1.2-1.3,2c-0.1,1.1-0.1,2.2-0.1,3.3
			c0-1.1,0-2.2,0.1-3.3c0.1-0.9,0.5-1.7,1.3-2.1C6.6,28.2,6.8,28,7.1,28c1-0.2,2,0.4,2.3,1.4c0.8-0.2,1.5-0.9,1.7-1.7
			c0.1-0.5,0.1-1,0-1.5c0.1-0.5-0.1-1-0.5-1.3c-0.3-0.3-0.5-0.4-0.7-0.4c-0.6,0.5-1.4,0.7-2.2,0.5c-0.5-0.1-1-0.2-1.4-0.4
			c-0.4-0.3-0.6-0.7-0.7-1.2c-0.1-0.9,0.2-1.8,0.7-2.4c-0.6,0.7-0.8,1.6-0.7,2.5c0.1,0.5,0.3,0.9,0.7,1.2c0.4,0.2,0.9,0.3,1.4,0.4
			c0.8,0.2,1.6,0,2.2-0.5c0.5-0.6,0.7-1.3,0.7-2.1c0.3-1.4,0.3-2.9,0.1-4.3c-0.1-0.6-0.2-1.1-0.5-1.6c-0.1-0.2-0.4-0.5-0.6-0.6
			l-0.2-0.2c-0.1,0-0.1,0-0.2-0.1c-0.5-0.3-1.1-0.5-1.7-0.7C6.8,14.8,6.1,14.8,5.4,15z"/>
		<path class="st0" d="M6.6,9.2c0.2,1.8,0.8,3.5,1.8,5c0.4,0.6,0.8,1.2,1.2,1.8c0.2,0.1,0.5,0.4,0.6,0.6c0.2-0.7,0.5-1.4,0.8-2.1
			c0.1-0.1,0.1-0.2,0.2-0.4c-1.8-2.2-2.7-5-2.7-7.8C7.7,7.2,7.1,8.2,6.6,9.2z"/>
		<path class="st3" d="M32.8,19.5v-0.2c0-0.4,0-0.7-0.1-1.1c-0.2-1.7-1-3.2-2.2-4.3c-2.9-3-7.8-3.1-10.8-0.1c0,0-0.1,0.1-0.1,0.1
			c-1.2,1.1-2,2.7-2.1,4.3c-0.1,0.4-0.2,0.7-0.2,1.1c0,2.1,0.8,4.1,2.3,5.5c1,1,2.2,1.7,3.5,2c0.7,0.2,1.3,0.2,2,0.2
			c2,0,4-0.8,5.4-2.2C31.9,23.4,32.8,21.5,32.8,19.5z M21.2,19.2c0-0.4,0.1-0.7,0.2-1.1c0.2-0.6,0.5-1.1,0.9-1.6
			c0.5-0.5,1.2-0.9,1.9-1c0.3-0.1,0.6-0.1,0.9-0.1c1,0,2,0.4,2.7,1.1c0.5,0.4,0.8,1,1,1.6c0,0.3,0.1,0.8,0.1,1.1
			c0,1-0.4,2.1-1.1,2.8c-0.7,0.7-1.7,1.1-2.7,1.1c-0.3,0-0.6,0-0.9-0.1c-0.7-0.1-1.4-0.5-1.9-1C21.6,21.3,21.2,20.3,21.2,19.2z"/>
		<path class="st1" d="M21.4,18.1c-0.1,0.4-0.2,0.7-0.2,1.1c0,1,0.4,2,1.1,2.8c0.5,0.5,1.2,0.9,1.9,1v-3c-0.1-0.2-0.2-0.5-0.2-0.7
			c0-0.2,0.1-0.5,0.2-0.7v-3c-0.7,0.1-1.4,0.5-1.9,1C21.9,17.1,21.6,17.6,21.4,18.1z"/>
		<path class="st3" d="M25.1,15.4c-0.3,0-0.6,0-0.9,0.1v3l0.1-0.1c0.2-0.2,0.5-0.3,0.8-0.3c0.1,0,0.1,0,0.2,0.1c0.2,0,0.3,0,0.4,0.2
			h0.1c0.3,0.2,0.4,0.5,0.4,0.8v0.2c-0.1,0.2-0.2,0.5-0.4,0.6c-0.1,0.2-0.3,0.3-0.5,0.4h-0.2c-0.3,0-0.6-0.2-0.8-0.4L24.2,20v3.1
			c0.3,0.1,0.6,0.1,0.9,0.1c1,0,2-0.4,2.7-1.1c0.7-0.7,1.1-1.8,1.1-2.8c0-0.3-0.1-0.8-0.1-1.1c-0.2-0.6-0.5-1.2-1-1.6
			C27.1,15.8,26.1,15.4,25.1,15.4z"/>
		<path class="st3" d="M25.3,18.2c-0.1-0.1-0.1-0.1-0.2-0.1c-0.3,0-0.6,0.1-0.8,0.3l-0.1,0.1C24.1,18.8,24,19,24,19.2
			c0,0.2,0.1,0.5,0.2,0.7l0.1,0.1c0.2,0.2,0.5,0.4,0.8,0.4h0.2c0.2-0.1,0.4-0.2,0.5-0.4c0.2-0.1,0.3-0.4,0.4-0.6
			c-0.1-0.3-0.2-0.6-0.4-0.8c-0.1-0.1-0.3-0.2-0.5-0.2h0.4C25.6,18.2,25.5,18.2,25.3,18.2z"/>
		<path class="st4" d="M25.8,18.6c0.2,0.2,0.3,0.5,0.4,0.8v-0.2c0-0.3-0.1-0.6-0.4-0.8h-0.5C25.5,18.5,25.7,18.5,25.8,18.6z"/>
		<path class="st5" d="M36.2,24.1c-0.4,1.3,0.1,2.2,1.4,2.9c1.1,0.4,2.3,0.3,3.2-0.4c0.3-0.3,0.6-0.6,0.8-1c0.7-2,0.1-4.2-1.5-5.5
			c-2.3-1-4.9-1.3-7.3-0.7c0,2-0.9,3.9-2.3,5.3c-1.4,1.5-3.4,2.3-5.4,2.2c-0.7,0-1.3,0-2-0.2c-2,0.6-3.5,2.3-3.8,4.4v0.9
			c-0.1,0.7,0,1.4,0.3,2c0.5,1.3,1.9,2.4,4,3.2c1.2,0.5,2.5,0.9,3.8,1.2c2.4,0.6,4.8,0.8,7.3,0.7c2.7-0.1,3.8-1.1,3.1-3.2
			c-1.5-1.5-3.5-2.2-5.6-1.9c-1.6-0.3-1.9-1.1-0.8-2.6c1.5-0.6,3.1-0.7,4.6-0.2c1.6,0.5,3.3,0.5,4.9,0c1.1-1,1.1-2.5-0.1-4.6
			c-0.9,0.7-2.1,0.8-3.2,0.4C36.3,26.4,35.8,25.5,36.2,24.1c0.3-0.6,0.9-0.7,1.6-0.4C37.1,23.5,36.5,23.5,36.2,24.1z"/>
		<path class="st0" d="M11.2,14.1c0.4-0.6,0.7-1.3,1.1-1.9C11.1,9.6,10.7,6.8,11,4c-0.9,0.6-1.8,1.4-2.5,2.3
			C8.5,9.1,9.4,11.8,11.2,14.1z"/>
		<path class="st0" d="M11.1,27.8c-0.2,0.8-0.9,1.5-1.7,1.7c0,0.2,0,0.4,0.1,0.6c0.1,0,0.1,0,0.1,0.1l0,0c3.1,1.8,6.5,3.1,10,3.9
			c-0.3-0.6-0.4-1.3-0.3-2v-0.9C16.4,30.4,13.7,29.3,11.1,27.8z"/>
		<path class="st0" d="M9.6,30.1l-0.2,0.3l-0.3,2.7c4.4,2.6,9.4,4,14.5,4.1c-2.1-0.8-3.5-1.9-4-3.2C16.1,33.3,12.7,32,9.6,30.1z"/>
		<path d="M19.6,6.7c-0.1,0-0.2-0.1-0.2-0.2c0-0.1,0-0.3,0.2-0.3C20.3,6,21,5.9,21.8,5.8C21.9,5.8,22,5.9,22,6
			c0,0.1-0.1,0.3-0.2,0.3C21.1,6.4,20.4,6.5,19.6,6.7L19.6,6.7z"/>
		<path d="M23.9,6.3h-0.6c-0.4,0-0.8,0-1.1,0h-0.3c-0.1,0-0.2-0.1-0.2-0.2s0.1-0.2,0.2-0.2h0.3c0.4,0,0.8,0,1.2,0h0.6
			c0.1,0,0.2,0.1,0.2,0.2S24,6.3,23.9,6.3z"/>
		<path d="M27.6,7.3c-0.1,0-0.2-0.1-0.2-0.2V7c0-0.1,0.1-0.2,0.2-0.2s0.2,0.1,0.2,0.2v0.1C27.8,7.2,27.7,7.3,27.6,7.3z"/>
		<path d="M27.6,7.3c-0.1,0-0.2-0.1-0.2-0.2V7c0-0.1,0.1-0.2,0.2-0.2s0.2,0.1,0.2,0.2v0.1C27.8,7.2,27.7,7.3,27.6,7.3z"/>
		<path d="M25.8,6.7h-0.2c-0.6-0.2-1.2-0.3-1.8-0.4c-0.1,0-0.2-0.2-0.2-0.3c0,0,0,0,0,0c0-0.1,0.1-0.2,0.3-0.2c0,0,0,0,0,0
			c0.6,0.1,1.2,0.2,1.8,0.4h0.1c0.1,0,0.2,0.1,0.2,0.2S25.9,6.7,25.8,6.7L25.8,6.7z"/>
		<path d="M27.6,7.3c0,0-0.1,0-0.1,0c-0.6-0.3-1.1-0.5-1.7-0.6c-0.1,0-0.2-0.2-0.2-0.3c0-0.1,0.2-0.2,0.3-0.2
			c0.6,0.1,1.3,0.3,1.9,0.6c0.1,0.1,0.2,0.2,0.1,0.3C27.8,7.3,27.7,7.3,27.6,7.3z"/>
		<path d="M25.8,6.7c-0.1,0-0.2-0.1-0.2-0.2c0.1-0.7,0.4-1.3,0.7-1.9l0.2-0.5C26.9,3,28,1.8,30,0.6c0.1-0.1,0.3-0.1,0.4,0
			c0.1,0.1,0.1,0.3,0,0.4c0,0,0,0-0.1,0c-1.8,1.1-2.9,2.2-3.3,3.2l-0.2,0.5c-0.3,0.5-0.5,1.1-0.7,1.7C26.1,6.6,26,6.7,25.8,6.7
			C25.8,6.7,25.8,6.7,25.8,6.7z"/>
		<path d="M19.6,6.7c-0.1,0-0.2-0.1-0.2-0.2c0.1-2.3,0.9-4.5,2.4-6.2c0.1-0.1,0.2-0.1,0.4,0c0.1,0.1,0.1,0.2,0,0.3
			c-1.4,1.7-2.2,3.8-2.2,6C19.8,6.6,19.7,6.7,19.6,6.7z"/>
		<path d="M23.9,6.3L23.9,6.3c-0.1,0-0.3-0.1-0.3-0.2c0,0,0,0,0-0.1c0.3-2.1,1.2-4.1,2.6-5.7c0.1-0.1,0.3-0.1,0.4,0
			c0.1,0.1,0.1,0.2,0,0.3c0,0,0,0,0,0c-1.3,1.5-2.2,3.4-2.5,5.5C24.1,6.2,24,6.3,23.9,6.3z"/>
		<path d="M21.8,6.3c-0.1,0-0.2-0.1-0.2-0.2c-0.1-1.6,0.5-3.5,2-5.9c0-0.1,0.2-0.2,0.3-0.2c0,0,0,0,0.1,0c0.1,0.1,0.2,0.2,0.1,0.3
			c0,0,0,0,0,0c-1.4,2.3-2,4.2-2,5.6C22.1,6.1,21.9,6.3,21.8,6.3L21.8,6.3z"/>
		<path d="M17.7,7.4c-0.1,0-0.2-0.1-0.2-0.2c-0.1-2.3,0.4-4.6,1.5-6.6c0.1-0.1,0.2-0.2,0.3-0.1c0.1,0.1,0.2,0.2,0.1,0.3c0,0,0,0,0,0
			c-1,2-1.5,4.2-1.4,6.4C18,7.3,17.9,7.4,17.7,7.4L17.7,7.4z"/>
		<path d="M17.7,7.4c-0.1,0-0.2-0.1-0.2-0.2c0-0.1,0-0.3,0.2-0.3c0.2-0.1,0.5-0.2,0.7-0.3c0.4-0.2,0.8-0.3,1.2-0.4
			c0.1,0,0.3,0,0.3,0.2c0,0.1,0,0.3-0.2,0.3c0,0,0,0,0,0c-0.4,0.1-0.8,0.2-1.1,0.4L17.7,7.4L17.7,7.4z"/>
		<path d="M27.6,7.2L27.6,7.2c-0.2,0-0.3-0.2-0.2-0.3c0.7-2.1,2.3-3.8,4.3-4.7c0.2-0.1,0.5-0.2,0.9-0.4l0.9-0.4
			c0.1-0.1,0.3,0,0.3,0.1c0,0.1,0,0.3-0.1,0.3l-0.9,0.4c-0.4,0.2-0.7,0.3-0.9,0.4C30,3.5,28.5,5.1,27.8,7
			C27.8,7.1,27.7,7.2,27.6,7.2z"/>
		<path d="M29.3,8.4h-0.1c-0.1,0-0.2-0.2-0.2-0.3c0,0,0-0.1,0-0.1c1.2-2.3,3.1-4,5.5-5c0.4-0.1,0.8-0.2,1.2-0.3l0.5-0.2
			c0.1,0,0.3,0,0.3,0.2s0,0.3-0.2,0.3l-0.4,0.2c-0.4,0.1-0.8,0.3-1.2,0.4c-2.3,0.9-4.1,2.6-5.2,4.8C29.5,8.3,29.4,8.4,29.3,8.4z"/>
		<path d="M31,9.8h-0.1c-0.1-0.1-0.2-0.2-0.1-0.3c0,0,0,0,0,0c1.2-2.3,2.5-3.5,4-4.1c1.8-0.8,2.5-1,2.8-0.9h0.2c0.1,0,0.2,0,0.3,0
			c0.1-0.1,0.3,0,0.3,0.1s0,0.3-0.1,0.3c0,0,0,0-0.1,0c-0.2,0.1-0.4,0.1-0.6,0c-0.1,0-0.2,0-0.3,0c-0.9,0.2-1.7,0.5-2.5,0.9
			c-1.4,0.5-2.6,1.7-3.8,3.9C31.2,9.7,31.1,9.8,31,9.8z"/>
		<path d="M4.5,37.8c-0.4,0-0.8,0-1.3-0.1c-1.6-0.1-2.7-1.2-3.1-3.1c-0.3-2.4,0.2-4.7,1.4-6.8c0.2-0.7,0.3-1.4,0.3-2.1
			c-1-3-0.8-6.2,0.6-9c0.8-1,1.8-1.7,3-2c0.7-0.2,1.5-0.2,2.2,0c0.1,0,0.2,0.2,0.2,0.3c0,0.1-0.2,0.2-0.3,0.2c0,0,0,0,0,0
			c-0.7-0.2-1.3-0.2-2,0c-1.1,0.3-2,1-2.7,1.8c-1.4,2.7-1.6,5.8-0.6,8.6c0.1,0.8,0,1.7-0.3,2.4c-1.1,2-1.6,4.3-1.4,6.5
			c0.4,1.7,1.3,2.6,2.7,2.7c1,0.1,2,0.1,3-0.2c1.2-0.3,2.2-1.3,2.3-2.6l0.1-0.7c0.1-0.2,0.1-0.5,0.1-0.7c0-0.1,0.2-0.2,0.3-0.2
			c0.1,0,0.2,0.2,0.2,0.3l0,0c-0.1,0.2-0.1,0.4-0.1,0.6S9.1,34.3,9,34.5c-0.2,1.5-1.2,2.6-2.7,3C5.8,37.7,5.1,37.8,4.5,37.8z"/>
		<path d="M9.6,16.2c-0.1,0-0.1,0-0.2-0.1c-0.4-0.4-0.7-0.9-1-1.4l-0.2-0.4c-1-1.5-1.6-3.3-1.8-5.1C6.3,9.1,6.4,9,6.6,9c0,0,0,0,0,0
			c0.1,0,0.3,0.1,0.3,0.2c0.2,1.7,0.8,3.4,1.8,4.9l0.2,0.4c0.3,0.5,0.6,0.9,0.9,1.3c0.1,0.1,0.1,0.3,0,0.4
			C9.7,16.2,9.7,16.2,9.6,16.2z"/>
		<path d="M7.5,15.2c-0.1,0-0.1,0-0.2-0.1c-0.9-0.7-1.4-1.7-1.7-2.8c0-0.1,0.1-0.3,0.2-0.3c0,0,0,0,0,0c0.1,0,0.3,0,0.3,0.2
			c0,0,0,0,0,0c0.2,1,0.7,1.9,1.5,2.6c0.1,0.1,0.1,0.3,0,0.4c0,0,0,0,0,0C7.6,15.2,7.6,15.2,7.5,15.2z"/>
		<path d="M4.9,34.1c-0.1,0-0.2-0.1-0.2-0.2c0-1.1,0-2.2,0.1-3.3c0.1-0.9,0.6-1.8,1.4-2.3l0.2-0.1c0.2-0.2,0.5-0.3,0.8-0.3
			c1.1-0.2,2.2,0.5,2.5,1.6c0,0.1,0,0.3-0.1,0.3c-0.1,0-0.3,0-0.3-0.2c0,0,0,0,0,0c-0.3-0.8-0.9-1.2-2.1-1.2c-0.2,0-0.3,0.1-0.5,0.2
			l-0.2,0.1c-0.7,0.4-1.1,1.1-1.2,1.9c-0.1,1.1-0.1,2.2-0.1,3.3C5.2,34,5,34.1,4.9,34.1C4.9,34.1,4.9,34.1,4.9,34.1z"/>
		<path d="M8.4,25.4c-0.3,0-0.5,0-0.8-0.1c-0.5-0.1-1-0.2-1.5-0.4c-0.5-0.3-0.8-0.8-0.8-1.4c-0.1-1,0.2-2,0.8-2.7
			c0.1-0.1,0.3-0.1,0.3,0c0.1,0.1,0.1,0.3,0,0.4c0,0,0,0,0,0c-0.5,0.7-0.7,1.5-0.6,2.3c0.1,0.4,0.3,0.8,0.6,1
			c0.4,0.2,0.8,0.3,1.3,0.4c0.7,0.2,1.5,0.1,2-0.4c0.1-0.1,0.3-0.1,0.4,0c0.1,0.1,0.1,0.3,0,0.4c0,0,0,0,0,0
			C9.6,25.2,9,25.4,8.4,25.4z"/>
		<path d="M31,9.8c-0.1,0-0.1,0-0.2-0.1c-0.5-0.5-1.1-1-1.7-1.4C29,8.3,29,8.1,29.1,8c0,0,0,0,0,0c0.1-0.1,0.2-0.1,0.4-0.1
			c0.6,0.4,1.2,0.9,1.7,1.4c0.1,0.1,0.1,0.3,0,0.4c0,0,0,0,0,0C31.1,9.8,31.1,9.8,31,9.8z"/>
		<path d="M23.1,27H23c-1.4-0.3-2.6-1-3.6-2.1c-1.5-1.5-2.4-3.5-2.4-5.7c0-0.4,0.1-0.8,0.2-1.2c0.1-1.7,0.9-3.3,2.2-4.4
			c3-3.1,8-3.2,11.1-0.1c0,0,0.1,0.1,0.1,0.1c1.3,1.1,2.2,2.7,2.4,4.4c0.1,0.4,0.1,0.8,0.1,1.1v0.2c0,0.1-0.1,0.2-0.2,0.2
			s-0.2-0.1-0.2-0.2v-0.2c0-0.3,0-0.7-0.1-1c-0.2-1.6-0.9-3.2-2.2-4.2c-2.8-2.9-7.5-3-10.4-0.1c0,0-0.1,0.1-0.1,0.1
			c-1.2,1.1-1.9,2.6-2,4.1c-0.1,0.3-0.2,0.7-0.2,1.1c0,2,0.8,3.9,2.2,5.3c0.9,0.9,2.1,1.6,3.4,1.9c0.1,0,0.2,0.2,0.2,0.3
			c0,0,0,0,0,0C23.3,26.9,23.2,27,23.1,27z"/>
		<path d="M32.8,19.7c0,0-0.1,0-0.1,0c-0.1-0.1-0.2-0.2-0.1-0.3c0,0,0,0,0,0c0.2-0.4,0.4-0.8,0.5-1.2c1-2.8,0.3-5.9-1.8-7.9
			c-0.1-0.1-0.2-0.2-0.2-0.3c-0.1-0.1-0.1-0.2-0.2-0.2c-0.1-0.1-0.1-0.3,0-0.4c0,0,0,0,0,0c0.1-0.1,0.3-0.1,0.4,0
			c0.1,0.1,0.1,0.2,0.2,0.3c0.1,0.1,0.1,0.2,0.2,0.2c2.3,2.1,3.1,5.4,2,8.4c-0.1,0.4-0.3,0.9-0.6,1.3C33,19.6,32.9,19.7,32.8,19.7z"
			/>
		<path d="M39,27.5c-0.5,0-1-0.1-1.4-0.2c-1.5-0.8-2-1.8-1.6-3.2c0.3-0.7,1.1-1,1.8-0.6c0,0,0.1,0,0.1,0.1c0.1,0.1,0.2,0.2,0.1,0.3
			C38,24,37.9,24,37.7,24l0,0c-0.4-0.2-1-0.3-1.3,0.3c-0.3,1.1,0.1,1.9,1.3,2.6c1,0.4,2.1,0.3,2.9-0.4c0.1-0.1,0.3-0.1,0.3,0
			c0.1,0.1,0.1,0.3,0,0.4c0,0,0,0,0,0C40.5,27.3,39.7,27.6,39,27.5z"/>
		<path d="M33.4,39.4c-2,0-4.1-0.2-6-0.7c-1.3-0.3-2.6-0.7-3.8-1.2c-0.1-0.1-0.2-0.2-0.1-0.3c0,0,0,0,0,0c0.1-0.1,0.2-0.2,0.3-0.1
			c0,0,0,0,0,0c0.5,0.2,2.2,0.8,3.8,1.2c2.4,0.6,4.8,0.8,7.2,0.7c1.5,0,2.4-0.4,2.8-1c0.3-0.6,0.4-1.3,0.1-1.8
			c-1.4-1.4-3.4-2.1-5.4-1.8h-0.1c-0.9-0.2-1.4-0.5-1.6-1s0-1.2,0.6-2c0,0,0.1-0.1,0.1-0.1c1.5-0.6,3.2-0.7,4.8-0.2
			c1.5,0.5,3.2,0.5,4.7,0c1-0.9,0.9-2.3-0.2-4.3c-0.1-0.1,0-0.3,0.1-0.3c0.1-0.1,0.3,0,0.3,0.1c0,0,0,0,0,0c1.2,2.2,1.3,3.8,0,4.9
			c0,0,0,0-0.1,0.1c-1.6,0.5-3.4,0.5-5,0c-1.4-0.5-3-0.4-4.4,0.2c-0.5,0.7-0.7,1.2-0.5,1.5s0.5,0.5,1.2,0.6c2.1-0.3,4.3,0.5,5.8,2
			c0,0,0,0.1,0.1,0.1c0.3,0.8,0.3,1.6-0.1,2.3c-0.5,0.7-1.6,1.1-3.2,1.2C34.2,39.4,33.8,39.4,33.4,39.4z"/>
		<path d="M40.8,26.9c-0.1,0-0.2,0-0.2-0.1c-0.1-0.1,0-0.3,0.1-0.3c0,0,0,0,0,0c0.3-0.2,0.5-0.5,0.7-0.9c0.7-1.8,0.1-3.9-1.4-5.2
			c-2.2-1-4.7-1.2-7.1-0.7c-0.1,0-0.3-0.1-0.3-0.2c0-0.1,0.1-0.3,0.2-0.3c2.5-0.6,5.1-0.3,7.5,0.7c0,0,0,0,0.1,0
			c1.7,1.4,2.3,3.7,1.6,5.8c-0.2,0.4-0.5,0.8-0.9,1.1C40.9,26.9,40.9,26.9,40.8,26.9z"/>
		<path d="M25.1,27.2c-0.7,0-1.4,0-2.1-0.2c-0.1,0-0.2-0.2-0.2-0.3c0-0.1,0.2-0.2,0.3-0.2c0.6,0.2,1.3,0.2,1.9,0.2
			c2,0.1,3.9-0.7,5.2-2.1c1.4-1.3,2.2-3.2,2.2-5.1c0-0.1,0.1-0.2,0.3-0.2c0.1,0,0.2,0.1,0.2,0.3c0,0,0,0,0,0c0,2.1-0.9,4-2.4,5.5
			C29.2,26.4,27.2,27.2,25.1,27.2z"/>
		<path d="M25.1,23.4c-0.3,0-0.7,0-1-0.1c-0.8-0.2-1.4-0.5-2-1c-0.8-0.8-1.2-1.9-1.2-3c0-0.4,0.1-0.8,0.2-1.2
			c0.2-0.6,0.5-1.2,0.9-1.7c0.6-0.5,1.3-0.9,2.1-1.1c0.3-0.1,0.6-0.1,0.9-0.1c1.1,0,2.2,0.4,2.9,1.2c0.5,0.5,0.8,1.1,1,1.7
			c0,0,0,0.1,0,0.1c0,0.2,0,0.3,0,0.5c0,0.2,0,0.4,0,0.6c0,1.1-0.4,2.2-1.2,3C27.1,23,26.1,23.4,25.1,23.4z M25.1,15.7
			c-0.3,0-0.6,0-0.8,0.1c-0.7,0.1-1.3,0.5-1.8,0.9c-0.4,0.4-0.6,0.9-0.8,1.5c-0.1,0.3-0.2,0.7-0.2,1c0,1,0.4,1.9,1,2.6
			c0.5,0.5,1.1,0.8,1.8,0.9c0.3,0.1,0.6,0.1,0.9,0.1c0.9,0,1.8-0.4,2.5-1c0.7-0.7,1.1-1.6,1-2.6c0-0.1,0-0.3,0-0.5
			c0-0.2,0-0.4,0-0.5c-0.2-0.6-0.5-1.1-0.9-1.5C26.9,16.1,26,15.7,25.1,15.7z"/>
		<path d="M25.3,20.7h-0.2c-0.4,0-0.7-0.2-1-0.5L24,20.1l0-0.1c-0.1-0.2-0.2-0.5-0.2-0.8c0-0.3,0.1-0.6,0.2-0.8l0-0.1l0.1-0.1
			c0.3-0.2,0.6-0.4,1-0.4c0.1,0,0.2,0,0.3,0.1c0.2,0,0.3,0.1,0.5,0.2c0,0,0.1,0,0.1,0.1c0.3,0.2,0.5,0.6,0.5,1v0.2c0,0,0,0.1,0,0.1
			l0,0.1c-0.1,0.2-0.2,0.4-0.4,0.6c-0.2,0.2-0.3,0.3-0.5,0.4C25.4,20.7,25.4,20.7,25.3,20.7z M24.4,19.8L24.4,19.8
			c0.2,0.3,0.5,0.4,0.7,0.4h0.1c0.1-0.1,0.3-0.2,0.4-0.3h0.1c0.1,0,0.2-0.2,0.2-0.4v-0.1v-0.1c0-0.2-0.1-0.4-0.3-0.5
			c-0.1,0-0.2-0.1-0.2-0.1v-0.1c0,0-0.2,0-0.3-0.1l0,0c-0.2,0-0.5,0.1-0.6,0.2l-0.1,0.1c-0.1,0.2-0.1,0.4-0.1,0.5
			C24.3,19.5,24.3,19.7,24.4,19.8z"/>
		<path d="M12.3,12.4c0,0-0.1,0-0.1,0c-0.1-0.1-0.2-0.2-0.1-0.3c0.4-0.7,0.9-1.4,1.4-2c0.1-0.1,0.3-0.1,0.4,0c0.1,0.1,0.1,0.3,0,0.4
			c0,0,0,0,0,0c-0.5,0.6-1,1.2-1.4,1.8C12.5,12.3,12.4,12.4,12.3,12.4z"/>
		<path d="M9.6,16.2c-0.1,0-0.1,0-0.2-0.1L9.3,16c-0.1,0-0.2-0.1-0.2-0.1c-0.5-0.3-1-0.5-1.6-0.7c-0.1,0-0.2-0.2-0.2-0.3
			c0-0.1,0.2-0.2,0.3-0.2c0,0,0,0,0,0c0.6,0.2,1.2,0.4,1.8,0.7h0.1c0.1,0,0.1,0,0.2,0.1l0.2,0.2c0.1,0.1,0.1,0.3,0,0.4c0,0,0,0,0,0
			C9.7,16.2,9.7,16.2,9.6,16.2z"/>
		<path d="M9.9,24.8c-0.1,0-0.1,0-0.2,0c-0.1-0.1-0.1-0.3,0-0.4c0.5-0.5,0.7-1.2,0.6-1.9c0.3-1.4,0.3-2.8,0.1-4.3
			c-0.1-0.5-0.2-1.1-0.5-1.5c-0.1-0.1,0-0.3,0.1-0.3c0,0,0,0,0,0c0.1-0.1,0.3,0,0.3,0.1c0,0,0,0,0,0c0.3,0.5,0.4,1.1,0.5,1.7
			c0.2,1.5,0.2,2.9-0.1,4.4c0,0.8-0.2,1.6-0.8,2.2C10.1,24.8,10,24.8,9.9,24.8z"/>
		<path d="M10.2,16.8L10.2,16.8c-0.2,0-0.3-0.2-0.2-0.3c0.2-0.7,0.5-1.4,0.8-2.1c0,0,0-0.1,0.1-0.1c0,0,0-0.1,0.1-0.1
			c0-0.1,0.1-0.1,0.1-0.2c0.1-0.1,0.2-0.2,0.3-0.1c0,0,0,0,0,0c0.1,0.1,0.2,0.2,0.1,0.3l-0.1,0.2c0,0.1-0.1,0.2-0.1,0.3
			c-0.3,0.6-0.6,1.3-0.8,2C10.4,16.7,10.3,16.8,10.2,16.8z"/>
		<path d="M10.2,16.8c-0.1,0-0.2,0-0.2-0.1c-0.1-0.2-0.3-0.4-0.5-0.5c-0.1-0.1-0.2-0.2-0.1-0.3c0,0,0,0,0,0c0.1-0.1,0.2-0.2,0.3-0.1
			c0,0,0,0,0,0c0.3,0.2,0.5,0.4,0.7,0.7c0.1,0.1,0,0.3-0.1,0.4C10.3,16.8,10.2,16.8,10.2,16.8z"/>
		<path d="M11.2,14.3c0,0-0.1,0-0.1,0c-0.1-0.1-0.1-0.2-0.1-0.3c0,0,0,0,0,0c0.2-0.3,0.4-0.6,0.5-0.9c0.2-0.3,0.4-0.7,0.6-1
			c0.1-0.1,0.2-0.1,0.4-0.1c0.1,0.1,0.1,0.2,0.1,0.3c0,0,0,0,0,0c-0.2,0.3-0.4,0.6-0.5,0.9s-0.4,0.7-0.6,1
			C11.4,14.3,11.3,14.3,11.2,14.3z"/>
		<path d="M13.7,10.5c-0.1,0-0.1,0-0.1-0.1c-0.1-0.1-0.1-0.2-0.1-0.3c0,0,0,0,0,0c0.5-0.6,1.1-1.2,1.7-1.7l0.4-0.3
			C15.7,8,15.9,8,16,8.1c0.1,0.1,0.1,0.3,0,0.4l-0.4,0.3c-0.6,0.5-1.2,1-1.7,1.6C13.9,10.5,13.8,10.5,13.7,10.5z"/>
		<path d="M11.1,28H11c-0.1,0-0.2-0.2-0.2-0.3c0.1-0.5,0.1-0.9,0-1.4c0-0.6-0.1-1-0.4-1.1c-0.3-0.3-0.5-0.4-0.6-0.4
			c-0.1,0-0.2-0.1-0.2-0.2s0.1-0.2,0.2-0.2c0.3,0,0.7,0.2,0.9,0.5c0.4,0.4,0.6,0.9,0.6,1.5c0.1,0.5,0.1,1.1,0,1.6
			C11.3,27.9,11.2,28,11.1,28z"/>
		<path d="M9.4,29.7c-0.1,0-0.2-0.1-0.2-0.2c0-0.1,0-0.3,0.2-0.3c0.8-0.2,1.4-0.8,1.5-1.5c0-0.1,0.2-0.2,0.3-0.2c0,0,0,0,0,0
			c0.1,0,0.2,0.1,0.2,0.3c0,0,0,0,0,0C11.1,28.7,10.4,29.5,9.4,29.7L9.4,29.7z"/>
		<path d="M19.6,34.3L19.6,34.3c-3.6-0.8-7-2.1-10.1-3.9c0,0-0.1-0.1-0.1-0.1c-0.1-0.1-0.2-0.2-0.1-0.3c0-0.1,0.1-0.1,0.2-0.1
			c0.1,0,0.2,0.1,0.3,0.2c3.1,1.8,6.4,3.1,9.8,3.8c0.1,0,0.2,0.2,0.2,0.3c0,0,0,0,0,0C19.8,34.2,19.7,34.3,19.6,34.3z"/>
		<path d="M9.1,33.4L9.1,33.4c-0.1,0-0.2-0.1-0.2-0.3c0,0,0,0,0,0l0.3-2.7c0-0.2,0-0.4,0.2-0.5c0.1-0.1,0.3-0.1,0.4,0
			c0.1,0.1,0.1,0.3,0,0.4c0,0,0,0,0,0c0,0.1,0,0.1,0,0.2l-0.3,2.7C9.4,33.3,9.2,33.4,9.1,33.4z"/>
		<path d="M9.5,30.3c-0.1,0-0.2-0.1-0.2-0.2c-0.1-0.2-0.1-0.4-0.1-0.7c0-0.1,0.1-0.2,0.2-0.2s0.2,0.1,0.2,0.2c0,0.2,0,0.4,0.1,0.5
			C9.8,30.1,9.7,30.2,9.5,30.3L9.5,30.3z"/>
		<path d="M19.3,31.4L19.3,31.4c-0.2,0-0.3-0.2-0.2-0.3c0.3-2.2,1.9-4,4-4.6c0.1,0,0.3,0,0.3,0.2c0,0.1,0,0.3-0.2,0.3
			c-1.9,0.5-3.4,2.2-3.6,4.2C19.5,31.3,19.4,31.4,19.3,31.4z"/>
		<path d="M19.3,31.4L19.3,31.4c-3-0.7-5.7-1.9-8.3-3.4c-0.1-0.1-0.2-0.2-0.1-0.3c0.1-0.1,0.2-0.2,0.3-0.1c0,0,0,0,0,0
			c2.5,1.5,5.3,2.6,8.1,3.4c0.1,0,0.2,0.2,0.2,0.3C19.5,31.4,19.4,31.4,19.3,31.4z"/>
		<path d="M23.6,37.5C23.6,37.5,23.5,37.5,23.6,37.5c-2.3-0.8-3.7-2-4.2-3.3c0-0.1,0-0.3,0.1-0.3c0.1-0.1,0.3,0,0.3,0.1c0,0,0,0,0,0
			c0.5,1.2,1.8,2.3,3.9,3.1c0.1,0.1,0.2,0.2,0.1,0.3C23.8,37.4,23.7,37.5,23.6,37.5z"/>
		<path d="M19.6,34.3c-0.1,0-0.2-0.1-0.2-0.1C19,33.5,18.9,32.7,19,32v-0.9c0-0.1,0.1-0.2,0.2-0.2s0.2,0.1,0.2,0.2V32
			c-0.1,0.6,0,1.3,0.3,1.9c0.1,0.1,0,0.3-0.1,0.3L19.6,34.3z"/>
		<path d="M23.6,37.5C18.5,37.4,13.4,36,9,33.4c-0.1,0-0.2-0.2-0.1-0.3c0,0,0,0,0,0c0.1-0.1,0.2-0.2,0.3-0.1c4.3,2.6,9.3,4,14.4,4.1
			c0.1,0,0.2,0.1,0.2,0.2S23.7,37.5,23.6,37.5z"/>
		<path d="M13.7,10.5c-0.1,0-0.2-0.1-0.2-0.2c-0.7-1.8-0.7-4.2-0.2-7.9c0-0.1,0.1-0.3,0.2-0.3s0.3,0.1,0.3,0.2c0,0,0,0,0,0.1
			c-0.5,3.6-0.5,6,0.2,7.7c0.1,0.1,0,0.3-0.1,0.3C13.8,10.5,13.8,10.5,13.7,10.5L13.7,10.5z"/>
		<path d="M12.3,12.4c-0.1,0-0.2-0.1-0.2-0.1c-1.2-2.6-1.6-5.5-1.3-8.3c0-0.1,0.1-0.2,0.2-0.2c0.1,0,0.2,0.1,0.2,0.3c0,0,0,0,0,0
			c-0.3,2.7,0.1,5.5,1.3,8c0.1,0.1,0,0.3-0.1,0.3c0,0,0,0,0,0L12.3,12.4z"/>
		<path d="M11.2,14.3c-0.1,0-0.1,0-0.2-0.1c-1.8-2.3-2.8-5.1-2.8-8C8.3,6.1,8.4,6,8.5,6l0,0c0.1,0,0.2,0.1,0.2,0.2
			c0,2.8,0.9,5.5,2.6,7.6c0.1,0.1,0.1,0.3,0,0.4C11.3,14.3,11.3,14.3,11.2,14.3z"/>
		<path d="M15.8,8.5c-0.1,0-0.2-0.1-0.2-0.2c-0.3-2.4-0.1-4.7,0.6-7c0-0.1,0.2-0.2,0.3-0.2c0,0,0,0,0,0c0.1,0,0.2,0.2,0.2,0.3
			c0,0,0,0,0,0C16,3.6,15.7,5.9,16,8.2C16,8.3,15.9,8.5,15.8,8.5C15.8,8.5,15.8,8.5,15.8,8.5L15.8,8.5z"/>
		<path d="M29.3,8.4c-0.1,0-0.1,0-0.2-0.1c-0.5-0.4-1-0.8-1.6-1.1c-0.1-0.1-0.2-0.2-0.1-0.3c0,0,0,0,0,0c0.1-0.1,0.2-0.2,0.3-0.1
			C28.4,7.1,29,7.5,29.5,8c0.1,0.1,0.1,0.3,0,0.4c0,0,0,0,0,0C29.4,8.4,29.4,8.4,29.3,8.4z"/>
		<path d="M15.8,8.5c-0.1,0-0.2,0-0.2-0.1c-0.1-0.1-0.1-0.3,0-0.4c0,0,0,0,0.1,0c0.6-0.4,1.3-0.8,1.9-1.1c0.1-0.1,0.3,0,0.3,0.1
			c0,0,0,0,0,0c0.1,0.1,0,0.3-0.1,0.3c-0.7,0.3-1.3,0.7-1.9,1.1C15.9,8.5,15.8,8.5,15.8,8.5z"/>
	</g>
</g>
</svg>
