<?xml version="1.0" encoding="utf-8"?>
<!-- Generator: Adobe Illustrator 21.1.0, SVG Export Plug-In . SVG Version: 6.00 Build 0)  -->
<svg version="1.1" id="Calque_1" xmlns="http://www.w3.org/2000/svg" xmlns:xlink="http://www.w3.org/1999/xlink" x="0px" y="0px"
	 viewBox="0 0 185.4 213.2" style="enable-background:new 0 0 185.4 213.2;" xml:space="preserve">
<style type="text/css">
	.st0{fill:none;stroke:#40683C;stroke-width:2;stroke-miterlimit:10;}
	.st1{fill:none;stroke:#B09700;stroke-width:2;stroke-miterlimit:10;}
</style>
<title>4points</title>
<g id="Calque_2">
	<g id="Calque_1-2">
		<path class="st0" d="M99.1,108.9c-9.4,1.7-19.4-4.9-20.1-14.7c-0.6-8.2,5.3-16,13.6-17c7.1-0.9,14.3,1.5,19.4,6.6
			c5.7,5.8,7.4,14.9,8,22.7c0.6,8.2,1.1,17.9-5.2,24.2c-1.4,1.4-3.1,2.5-5,3.3c-6.9,2.8-16.2,2.6-22.8-0.9s-10.3-10.6-12.7-17.5
			c-5.9-16.3-10.2-33.3-14.9-50c-3.4-12.1-8-24.9-3.8-37.5c0.1-0.4,0.2-0.7,0.4-1.1c2.7-7.3,7.4-13.6,13.5-18.4c9-7,21-8.2,32-7.4
			l1.6,0.1c8.1,0.8,18.2,2.9,23.7,9.4c6.7,7.9,9,20,10.5,29.9c1.5,9.7,2.2,19.8-0.1,29.5c-0.8,4-2.6,7.7-5.2,10.9"/>
		<path class="st0" d="M56.3,53c-13.1-5.5-28.5-5.5-39.5,4.2C6.4,66.4-0.5,79.6,1.3,93.7c1.1,8.6,5.1,16.7,10.1,23.8
			c5.5,7.9,12.9,15.2,22.3,17.5c14.4,3.5,31.7-4.3,43.7-11.9"/>
		<path class="st0" d="M39.6,136.4c-5.5,18.6-4.7,41.2,7.1,57.3c12.8,17.4,39.7,21.8,59.5,16.1c12.2-3.5,19.1-12.5,22.3-24.5
			c3-11.3,4.8-24.6-1.4-35.1c-5.5-9.3-15.7-17.2-15.7-17.2"/>
		<path class="st0" d="M127.3,149.7c10.6,0.4,21.3,0.5,31.7-2c8.5-2.1,15.1-8,18.8-15.9c4.4-9.4,7.8-20.3,6.4-30.9
			c-1.3-9.9-7.1-18.7-15.7-23.9c-9.7-5.6-20.2-4.2-30.7-6.1"/>
		<path class="st1" d="M83.8,142.8c-1.5,5.5-3,11.1-3.1,16.8s1.9,17.3,9.4,17.8c2.4,0.2,4.7-1.7,5.6-4c3.4-8.1,0.6-19.6,0.3-28.1"/>
		<path class="st1" d="M127.3,112.9c7.2,1.1,16.7,3.4,24,2.7c6.5-0.7,5.6-9.1,2.2-12.8c-5.1-5.6-19.3-3.3-26.2-3.9"/>
		<path class="st1" d="M92,55.4c0.7-5.4-0.5-21.4,5.9-23.7c12.5-4.3,7.3,21.8,7,27"/>
		<path class="st1" d="M51.4,86.5c-5-1.1-10.3-4.3-15.5-3.8C30.3,83.2,25,91.8,32,94.9c4.9,2.1,13.1,1.9,18.5,2.8"/>
	</g>
</g>
</svg>
