<?xml version="1.0" encoding="utf-8"?>
<!-- Generator: Adobe Illustrator 21.1.0, SVG Export Plug-In . SVG Version: 6.00 Build 0)  -->
<svg version="1.1" id="Calque_1" xmlns="http://www.w3.org/2000/svg" xmlns:xlink="http://www.w3.org/1999/xlink" x="0px" y="0px"
	 viewBox="0 0 309.4 216" style="enable-background:new 0 0 309.4 216;" xml:space="preserve">
<style type="text/css">
	.st0{fill:none;stroke:#D6E0D6;stroke-width:2;stroke-miterlimit:10;}
	.st1{fill:none;stroke:#D6E0D6;stroke-miterlimit:10;}
</style>
<title>solstice</title>
<g id="Calque_2">
	<g id="Calque_1-2">
		<path class="st0" d="M266.2,180.5c-11.3-5.8-23.1-11.4-35.6-14c-5.6-1-11.2-1.7-16.9-1.9h-0.6c-5.2-0.2-10.4-0.4-15.5-0.7
			l-5.4-0.4"/>
		<path class="st0" d="M40.9,215.1c11.4-6.9,22.8-13.9,34.4-20.4c29.2-16.4,62.3-20.5,94.7-26.8l11.7-2.3l5.7-1.1
			c1.3-0.2,2.6-0.6,3.9-0.9c1.6-0.4,2.1-0.4,2.3-2.2c0.1-0.8,0.1-1.6,0.1-2.5c0-2.6-0.1-5.1-0.2-7.6c-0.4-5.1-1.1-10.1-2.2-15.1
			c-1.9-8.8-4.6-18.3-10.8-25.2c-6.5-7.2-15.6-11.6-24.6-14.7c-2.5-0.9-5-1.9-2.7-4.6c6.3-7.4,15.1-12.2,23.7-16.4
			c21.8-10.6,45-15.6,68.5-20.6c1.1-0.4,2.4-0.4,3.5,0.1c2.1,1.2,2.3,5,3,7.2c0.9,2.8,2.2,5.5,3.7,8c2.9,4.8,7.1,9.2,12.5,11.3
			c8.2,3.2,18.4,1.5,26.2-1.9c7.6-3.3,11.2-11,12.9-18.7c1.5-6.7,2-14.3-0.6-20.7c-3.9-9.9-15.9-16.1-25-20.4
			c-11.1-5.3-23.1-8.6-35.1-11.1c-3.9-0.8-7.8-1.5-11.7-2.2c-13.4-2.3-26.9-3.8-40.4-4.5c-9.5-0.5-19-0.7-28.5-0.6
			c-5.4,0.1-10.8,0.2-16.1,0.5c-24.3,1.4-49.2,4-72.6,11.1c-2.2,0.6-4.3,1.3-6.4,2C48.8,22.4,28.3,34,8,45.2"/>
		<path class="st0" d="M65.6,71.8c-4.7,10.3-3.5,23.6,3.3,32.5c6.2,8.3,15,14.1,23.9,19.2c4.2,2.5,8.6,4.6,13.2,6.5
			c4.5,1.8,9.1,3.3,13.4,5.5c3,1.6,5.9,3.4,8.6,5.6c3,2.5,4.3,6.1,4.8,9.9c0.3,3.7,0.5,7.5,0.4,11.2c0.1,4.1,0.1,8.2,0,12.3"/>
		<path class="st0" d="M31.9,152.1c-1.4-1.2-2.5-2.7-4.5-2.6c-3.2,0.2-5.5,2.9-5.3,6.1c0.1,1.2,0.5,2.3,1.2,3.2
			c2.9,3.8,8.3,4.3,12.6,3.3c5.9-1.4,10.6-6.3,15.3-9.9c6-4.7,12.2-9.5,17.6-15c5.7-5.9,10.1-12.8,14.3-19.7"/>
		<path class="st0" d="M45.5,156.5c-0.8-5.7-3-14.9-7.3-18.9c-5.1-4.7-13-4.7-19.5-3.1C5.6,137.9,0.2,153,1.1,165.3
			c0.5,7.1,4,13.3,8.9,18.4c5.5,5.6,11.6,8.7,19.6,8.6c16.8-0.1,35-4.4,47.6-16.1c6.4-6,13.1-11.6,19.5-17.5
			c3.7-3.3,7.3-6.7,10.8-10.1s6.4-7.1,9.6-10.7c0.7-0.8,1.4-1.6,2.2-2.3"/>
		<path class="st0" d="M148.6,40.2c23.1-12.2,46.9-21.9,72.5-27.9c6.8-1.6,13.6-3.4,20.4-5"/>
		<path class="st0" d="M101.7,6.9c2.8,8.5,8.5,14.3,16.2,18.6c7.5,4.2,15.7,6.2,23.4,9.9c4.3,2,8,5.2,10.7,9.2c2.9,4.4,3.5,9.8,4,15
			c1,11.6-1.1,24.4-5.3,35.4"/>
		<path class="st0" d="M101.6,73.9c1.4,4.5,4.1,8.5,7.6,11.6c4.3,3.6,9.9,5.1,15.4,6c9.2,1.5,18.3,3.1,27.7,3.4"/>
		<path class="st0" d="M37.9,28.9c2.3,10.8,5.4,22.7,12.4,31.5s17.9,14,29.1,14.9c6.2,0.4,12.5,0,18.6-1.2c2.6-0.4,5.3-0.9,7.9-0.2
			c5.1,1.2,7.6,7.9,6,12.6"/>
		<path class="st0" d="M70.1,29.8c-2.2,2.1-3.6,5-4.1,8c-0.8,6.6,3.4,14.7,10,16.8c5.3,1.7,10.5-0.6,13.6-5c3.3-4.7,4.7-11.6,2.2-17
			c-2.7-5.6-10.2-8-16-6.2C73.6,27,71.6,28.2,70.1,29.8z"/>
		<path class="st0" d="M111.9,40.3c-3.5,1.1-6.5,3.2-7.2,7.1c-0.7,3.5,0.7,7,3.6,9.1c4.2,2.8,10.2,1.1,13.6-2.2
			c4.2-4.1,3.9-12.3-2.2-14.4c-2.1-0.6-4.3-0.6-6.4,0L111.9,40.3z"/>
		<path class="st0" d="M133.9,58.3c-3.7,0.8-6.6,3.8-7.2,7.6c-0.5,3.4,0.7,7.2,4.2,8.3c1.6,0.5,3.2,0.5,4.8,0.2
			c1.7-0.2,3.3-0.9,4.8-1.8c2.8-2,3.4-5.8,2.5-9c-0.8-3.5-4.1-5.9-7.7-5.5C134.8,58.2,134.3,58.2,133.9,58.3z"/>
		<path class="st0" d="M86.8,167.5c-7-7.5-12.4-16.3-4.3-25.3c3.3-3.6,8.4-5,13.1-3.6c5.5,1.5,8.1,6.5,11,11"/>
		<path class="st0" d="M21.4,191.1c0.3-4.1,1.4-8.1,3.3-11.7c3-5.6,10.8-8.2,16.8-7.1c8.2,1.4,8.9,10.7,10.1,17.3"/>
		<path class="st1" d="M79.5,76c0.7,4,1.1,7.8,2.5,11.5c3,7.7,8.2,14.4,15,19.2c3.9,2.8,8.2,4.6,12.6,6.6c4.6,2.1,9.1,4.2,13.6,6.6
			c6.7,3.3,13,7.3,18.8,11.9c12,9.9,14,24.1,14,38.8"/>
		<path class="st1" d="M92.3,76c0.8,8.8,6.6,16.6,13.6,21.9c6.3,4.8,13.7,7.9,21,10.8c7.5,3,14.6,6.9,21.3,11.4
			c4.7,3.1,8.9,6.8,12.6,11c3.1,3.8,5.5,8.1,7.1,12.8c1.7,4.9,3,9.9,4,15c0.6,2.8,1.5,5.6,1.9,8.4c-0.1,0.1-0.1-0.1-0.1-0.1"/>
		<path class="st1" d="M155.1,53.1c10.7-4.8,21.5-9.4,32.4-13.6c15.3-5.8,33.6-10.7,49.9-11.4c9.5-0.4,19.1-0.3,28.4,1.9
			c6,1.4,12.2,3.4,17,7.4c4.7,3.8,8.1,9.6,8.2,15.7c0,6.7-5.3,12.2-12,12.4c-6.6,0.4-16.3-6.9-11-14.1c1.4-1.8,3-1.4,4.4,0.1
			c0.1,0.1,0.2,0.2,0.2,0.4s0,0.4-0.1,0.5c-0.6,1-0.8,2.2-0.7,3.4c0.4,1.3,1.8,2.1,3.1,2.6c1.5,0.5,3,0.8,4.5,0.8
			c1.1,0.1,2.2-0.1,3.2-0.6c3.4-2.1,0.5-8.4-1-10.8c-2.3-3.7-5.6-6.6-9.5-8.4c-9.4-4.5-21.4-4-31.6-3.1c-25,2.1-50,9.5-71.7,22.1
			c-4.4,2.6-8.7,5.5-12.8,8.5"/>
	</g>
</g>
</svg>
