<?xml version="1.0" encoding="utf-8"?>
<!-- Generator: Adobe Illustrator 21.1.0, SVG Export Plug-In . SVG Version: 6.00 Build 0)  -->
<svg version="1.1" id="Calque_1" xmlns="http://www.w3.org/2000/svg" xmlns:xlink="http://www.w3.org/1999/xlink" x="0px" y="0px"
	 viewBox="0 0 841.9 595.3" style="enable-background:new 0 0 841.9 595.3;" xml:space="preserve">
<style type="text/css">
	.st0{fill:none;stroke:#42683C;stroke-width:2;stroke-miterlimit:10;}
	.st1{fill:none;stroke:#B29800;stroke-width:2;stroke-miterlimit:10;}
	.st2{fill:none;stroke:#C4CFBF;stroke-width:2;stroke-miterlimit:10;}
	.st3{fill:none;stroke:#C4CFBF;stroke-miterlimit:10;}
</style>
<image style="display:none;overflow:visible;" width="240" height="240" xlink:href="84D45DB36E63892.png"  transform="matrix(1.1915 0 0 1.1915 199.6316 205.9298)">
</image>
<path class="st0" d="M-727.7-66.7c-6.2-2.7-11.4,6.6-10.9,11.6c0.1,1.1,0.4,2.3,1.1,3.2c0.7,1,1.9,1.6,2.9,2.1c3.9,2,8,3.7,12.2,5.1
	c0.8,0.3,1.7,0.6,2.5,0.9c0.6,0.2,1.5,0.6,1.8,1.2c0.1,0.2,0.1,0.5,0,0.8c-0.1,1.1-0.2,2.2-0.3,3.2c-0.1,0.5-0.1,1-0.4,1.4
	c-0.5,0.8-1.7,0.8-2.6,0.8c-3-0.2-5.9-0.8-8.7-1.8c-2.7-1-5.3-2.2-8.2-2.4c-1.3-0.1-2.7,0.1-3.9,0.6c-2.8,1.3-3.6,4.9-4.6,7.5
	c-0.6,1.4-0.9,3-0.4,4.4c0.7,2,2.9,3.6,4.9,4c3.4,0.6,6.9,1.1,10.4,1.5c1.7,0.2,3.5,0.4,5.2,0.5c1.3,0.1,2.5,0,3.5,0.9
	c1,1,1.8,3.2,1.4,4.5c-0.3,1.1-1.2,2-2.3,2.4c-2,0.9-4.3,0.9-6.4,0.9c-3.8,0.1-8.6,0.4-12.2,2c-3.5,1.6-4.8,8.4-1.6,10.9
	c0.8,0.7,1.9,1,2.9,1.3c5.3,1.5,11.7,1.3,17.1,0.6c2.5-0.3,5.9-0.7,5.8,2.8c-0.1,2.3-2,4.6-3.9,5.7c-3.3,2-7.3,2.3-10.9,3.4
	c-3.5,1.1-6.1,1.7-7.8,5.1c-0.5,0.9-0.9,1.9-0.9,3c-0.3,4.1,3.5,8.7,7.7,8.3c4.9-0.5,9.8-2.2,14.2-4.4c1-0.5,2.1-1.1,3.2-1.2
	c1.7-0.1,3.4,0.9,4.1,2.5c1.3,3.1-1.9,5.8-3.8,7.8c-2.6,2.7-5.5,5.2-8.7,7.2c-1.7,1.1-3.5,2.2-4.3,4c-0.5,1.1-0.5,2.2-0.4,3.4
	c0.6,5,5,11,10.5,8.4c3.1-1.5,6-3.2,8.8-5.2c2.2-1.6,4.9-5,7.7-5.5c0.9-0.2,1.8,0,2.6,0.3c1.7,0.6,3.2,1.8,4,3.3
	c1.3,2.4,0.3,5.4-0.5,7.8c-1,2.9-2.5,5.7-3.2,8.8c-1,4.6,0.2,8.4,4.5,10.5c3.9,2,6.9-0.5,9.5-3.2c1.5-1.6,2.9-3.3,4-5.2
	c1.6-2.7,2.6-7.8,6.4-8.3c1.2-0.1,2.3,0.3,3.4,0.8c1.3,0.6,2.5,1.4,3.6,2.3c0.5,0.4,1,0.9,1.4,1.5c0.8,1.4-0.3,4-0.7,5.5
	c-0.5,2.2-1,4.3-1.5,6.5c-0.7,3-1.3,6.5-0.2,9.4c0.6,1.5,1.5,2.1,2.8,2.7c1.9,0.9,4,1.8,6.2,1.7c0.6,0,1.2-0.1,1.8-0.4
	c1.2-0.5,2.1-1.6,2.7-2.8c1.4-2.5,2.7-4.9,3.7-7.5c1.2-3.3,2-6.7,2.9-10.1c0.6-2.2,1.8-3,4-3.4c1.8-0.4,3.6,0,5.1,1.2
	c1.7,1.4,2.5,2.6,3.1,4.6c0.8,2.7,1.3,5.4,1.7,8.2c0.5,3.3,0.2,6.6,0.8,10c0.1,0.5,0.2,1,0.5,1.4c0.7,1.1,2.5,1.5,3.7,1.9
	c1.5,0.5,3.1,0.8,4.6,1.2c1.3,0.3,2.8,0.6,4.2,0.3c1.5-0.3,2.5-1.4,3.5-2.5c1.4-1.5,2.5-3.1,2.9-5.1c0.2-1.3,0.3-2.6,0.3-3.9
	c0-4-0.1-7.9-0.4-11.9c-0.1-2.1,0.4-4.8,2.7-5.4c1.3-0.4,2.6-1.1,3.9-1c2.8,0.2,3.8,3.4,4.5,5.7c0.7,2.4,1.6,4.8,2.4,7.2
	c0.6,1.6,1.1,3.2,2.1,4.6c0.9,1.4,2.6,2.1,4.2,2.4c3.3,0.5,6-0.9,8.9-2.3c2.8-1.3,4-3.2,4.3-6.3c0.2-2-0.1-4.1-0.8-6.1
	c-0.8-2-2.3-3.6-3.2-5.6c-1.4-3-1.6-6.4-2.1-9.6c-0.2-1.3,0.8-2.1,1.7-3c2-1.9,4.6-4.2,7.5-3.3c2.6,0.8,5.1,2.5,7.4,3.9
	c2.8,1.8,6.3,5.4,9.8,3.3c5-2.9,6.3-8.6,4.2-13.8c-1-2.6-2.8-4.9-4.7-6.9c-2-2.1-4.2-4-6.6-5.7c-0.9-0.6-1.7-1.2-2.4-2
	c-2-2.5,0.7-6.1,3.4-6.6c1.8-0.3,3.6,0.8,5.3,1.3c2.2,0.6,4.5,1.2,6.7,1.9c3.2,1,6.8,2.8,10.1,1.3c1.1-0.5,1.8-1.5,2.3-2.5
	c1.7-3.3,3.2-7.7-0.2-10.5c-1.1-0.9-2.4-1.4-3.7-1.9c-3.7-1.3-7.7-2.1-11.6-2.4c-1.4-0.1-3.3,0.5-4-1.1c-0.5-1.1-0.2-2.5-0.3-3.6
	c0-0.5-0.1-1.1,0.1-1.6c0.5-1.5,2.6-1.9,4-2.1c4.7-0.7,9.4-1.1,14.2-0.9c2.9,0.1,7.8,0.7,9.7-2.2c1.1-1.6,0.7-4.4,0.9-6.3
	c0.1-1.8,0.3-4.3-1-5.8c-0.6-0.6-1.4-1-2.2-1.3c-3.6-1.3-7.6-1.3-11.5-1.4c-2-0.1-3.8-0.2-5.7-1c-1.9-0.8-4.4-2.3-5.5-4.1
	c-0.8-1.3-0.4-3.2-0.2-4.6c0.2-1.6,0.5-3.3,1.4-4.7c0.9-1.5,2.9-1.8,4.4-2.4c2.2-0.8,4.4-1.4,6.6-1.9c2.4-0.6,6.1-0.6,8-2.4
	c0.6-0.6,0.9-1.5,1.2-2.4c1.1-3.6,1.3-7.6,0.5-11.3c-0.5-2.6-1.5-7.6-4.8-8.1c-2.6-0.4-5.7,0.8-8.3,1c-3.1,0.3-6.5,0.6-9.6,0.2
	c-2.5-0.3-4.3-1.8-6-3.5c-1.5-1.5-0.9-3.1-0.2-4.9c0.8-2.1,2.2-3.9,3.6-5.6c1.5-1.7,2.8-3.5,4.3-5.1c1.5-1.7,2.9-3.3,4.4-5
	c0.9-1,2.1-2.2,2.4-3.5c0.3-1.3,0.2-2.9-0.4-4.1c-0.7-1.5-2.1-2.6-3.2-3.7c-2.4-2.4-5.9-6.6-9.8-5.7c-4.4,0.9-7.7,4.6-10.4,8
	c-2.3,2.8-5.9,8.5-10.1,4.8c-1.8-1.6-1.2-3.2-0.8-5.2c1.2-4.9,2.6-9.7,4.5-14.3c0.6-1.4,1.2-2.9,1.3-4.4c0.6-5.5-4.1-8-7.9-10.7
	c-3.9-2.7-7.3,2.1-9.1,4.9c-2.5,3.9-4.9,8.2-5.5,12.9c-0.1,1-0.2,2-0.5,3c-0.3,0.9-1.1,1.4-1.9,1.8c-0.5,0.3-1,0.5-1.5,0.5
	c-0.6,0-1.2-0.2-1.7-0.5c-1-0.5-2.1-1.1-2.8-2.1c-0.7-1.1-0.8-2.5-0.8-3.8c-0.1-2,0.1-4.1,0.2-6.1c0-2.4,0-4.7-0.2-7.1
	c-0.2-2-0.6-4.2-1.7-5.9c-1.1-2.2-2.5-4.2-4.6-5.4c-1.9-1.1-4.2-1.6-6.4-1.1c-1.7,0.4-3.2,1.3-4.7,2.1c-0.7,0.4-1.5,0.9-2.1,1.5
	c-1.2,1.2-1.4,2.9-1.5,4.5c-0.1,1.9-0.1,3.9-0.3,5.8c-0.2,1.9-0.4,3.8-0.6,5.7c-0.2,1.8-0.1,3.8-0.7,5.6c-0.3,0.9-0.9,1.8-1.8,2.1
	c-1.1,0.5-2.3,0.2-3.3-0.4c-1.1-0.6-2.3-1.5-3.3-2.3c-1.9-1.7-1.9-4.5-2.5-6.8c-0.6-2.4-1.2-4.8-1.7-7.3c-0.5-2.1-1-4.2-1.6-6.3
	c-0.3-1-0.7-2-1.4-2.8c-1.3-1.6-3.3-2.9-5.4-3c-1.2-0.1-2.2,0.3-3.4,0.5c-1.5,0.3-3.1,0.7-4.4,1.4c-1,0.6-1.9,1.4-2.4,2.4
	c-0.5,1-0.6,2.2-0.5,3.3c0.1,2.4,0.4,4.9,0.7,7.3c0.2,2.4,0.6,4.8,1.1,7.1c0.3,1.4,0.7,2.9,1.1,4.3c0.4,1.4,1.5,3.3,1,4.8
	c-0.4,1.1-1.5,1.6-2.6,1.8c-1.5,0.3-3,0.8-4.5,1.2c-0.5,0.2-1,0.3-1.5,0.3c-0.8,0-1.2-0.5-1.7-1c-0.7-0.6-1.4-1.1-2-1.8
	c-1-1.1-1.6-2.7-2.2-4c-1.2-2.6-2.4-5.3-3.9-7.8c-1-1.7-2-3.3-3.2-4.8c-0.6-0.8-1.3-1.8-2.2-2.3c-1-0.6-2.3-0.7-3.5-0.8
	c-1.8-0.1-3.7,0-5.4,0.6c-2.4,0.7-5,2.5-6,4.8c-0.4,0.9-0.7,1.7-0.9,2.6c-0.7,2.2-1.1,4.6-0.8,6.9c0.2,1.4,0.8,2.7,1.5,3.9
	c0.8,1.4,1.8,2.7,2.5,4.2c0.8,1.5,1.6,2.9,2.5,4.3c1.6,2.5,5.2,6.4,3.5,9.7c-0.6,1.2-1.3,2.4-2.5,3.1c-0.1,0.1-0.3,0.1-0.4,0.1
	c-0.1,0-0.2-0.1-0.4-0.2c-2.3-1.6-4.3-3.5-6.4-5.3c-2.1-1.9-4.3-3.8-6.4-5.8c-1.6-1.6-3.4-3.3-5.7-3.7c-1.9-0.3-3.8,0.2-5.4,1.1
	c-1.5,0.9-3.2,1.8-4.3,3.3c-0.8,1.2-0.9,2.4-0.9,3.8c0,1.6-0.2,3.2,0.1,4.9c0.2,1.6,1.2,3.1,2.1,4.5c1.1,1.7,2.8,3,4.5,4.1
	c3.2,2.1,6.5,4,8.9,7.2c0.1,0.1,0.2,0.3,0.3,0.4c0.8,1.1,0.4,1.7-0.5,2.4c-0.4,0.3-0.9,0.7-1.4,0.9c-0.4,0.2-1,0.1-1.4,0.1
	c-1.5-0.2-3-0.6-4.5-1.1c-2.9-0.9-5.7-2-8.4-3.2C-727.3-66.6-727.5-66.6-727.7-66.7z"/>
<path class="st1" d="M-683.5-67.9c15.3-12.6,35.6-22.3,55.9-20.8c6.8,0.5,13.6,2.6,20,4.6c9.8,3.1,19.3,9.8,24.9,18.5
	c5.3,8.2,8.1,17.8,9.7,27.4c1.5,8.9,2.6,17.5,0.8,26.4c-2.4,11.7-5.6,23.5-12.1,33.7c-6.3,10-13.6,20.4-25.1,25
	c-13.2,5.3-28.1,5.2-41.7,1.2c-13.1-3.9-27.3-11.3-35.5-22.5c-18.6-25.5-24.6-65.2-0.9-89.7C-686.3-65.5-684.9-66.8-683.5-67.9z"/>
<path class="st1" d="M-673.8-45.2c4-5,9.3-9,15.2-12.2c9.7-5.3,21.8-8.3,32.8-5.9c26.3,5.9,39.2,34.6,33.2,59.5
	c-1.6,6.7-4.8,12.9-9.3,18.1c-5.1,5.8-10.3,12.5-18.1,14.7c-10,2.9-20.7,2.7-30.6-0.7c-8.9-3.1-18.1-6.5-23.9-14.6
	c-5.8-7.9-8.1-18-8.4-27.7c-0.2-5.5,0.8-11.2,1.9-16.6C-679.7-36.2-677.2-41.1-673.8-45.2z"/>
<path class="st1" d="M-654.2-35.2c-5.8,4.7-10.3,11.2-11,18.6c-0.8,7.8,1.6,17,7.9,22.2c7.1,5.9,18,8.7,27,6
	C-620,8.4-611-0.4-609.5-11.3c1.7-11.9-3.5-26-15.5-30.4C-634.7-45.3-646.4-41.4-654.2-35.2z"/>
<path class="st1" d="M-649.6-19c-1.1,5.3,1.3,13,6.5,15.4c3.2,1.5,6.5,1,9.3-1c5.3-3.9,8.5-11.7,5.5-17.9c-2.9-5.8-9.6-6.9-15-4.2
	C-646.5-25.2-648.9-22.4-649.6-19z"/>
<image style="display:none;overflow:visible;" width="240" height="240" xlink:href="84D45DB36E63896.png"  transform="matrix(1.1556 0 0 1.1556 500.6667 251)">
</image>
<g>
	<path class="st0" d="M-246.2-90.9c4.5-3.8,9.8-11.5,11.7-17c2.6-7.6-5.4-20.2-14.4-16.4c-3.2,1.3-5.4,4.1-7.7,6.6
		c-4.3,4.8-14.6,9.5-11.1-1.5c1.8-5.6,6.8-14.6,5.1-20.3c-1.5-5-8.6-10.2-13.6-7c-2.7,1.7-4.2,4.8-5.2,7.9c-1.1,3.2-1.9,10.6-4.5,13
		c-8.9,8.2-7.7-14.2-8.1-17.9c-0.2-2-0.6-4.2-1.7-5.9c-2.2-4.7-7.1-7.8-12.4-6.3c-7.1,2-6.5,7.9-7.2,13.7c-0.4,3.6,1,12.4-3.9,13.3
		c-2.6,0.5-5.2-1.3-6.6-3.6s-1.8-5-2.2-7.6c-0.6-3.9-1.7-7.9-2.8-11.6c-0.3-1-0.7-2-1.4-2.8c-3.3-4.1-13.2-3.7-15.6,1.4
		c-0.5,1-0.6,2.2-0.5,3.3c0.1,2.4,0.4,4.8,0.7,7.3c0.6,6.1,6.5,19.9-5.4,19.5c-7.3-0.2-9.4-11.9-12.3-16.9
		c-5.2-8.8-15.6-8.8-18.9,2.4c-2.9,9.7,12.8,22.2,9.2,28.9c-0.6,1.2-1.3,2.4-2.5,3.1c-1.9,1.1-12.4-10-13.5-11.1
		c-8-8.1-17.8-0.8-16.3,9.4c0.2,1.6,1.2,3.1,2.1,4.5c1.1,1.7,2.8,3,4.5,4.1c2.5,1.7,6.9,3.8,8.6,6.4c0.9,1.4,0.7,3.7-0.8,4.5
		c-3.5,1.8-11.7-2.8-14.8-4.2c-0.2-0.1-0.4-0.2-0.6-0.2c-9.1-4-15.1,13.4-5.1,17.9c4.2,1.9,8.7,3.1,13,4.9c3.4,1.4,2.4,6.8-1.2,7.5
		c-5.6,1.2-11.8-3.9-17.3-4.2c-1.3-0.1-2.7,0.1-3.9,0.6c-3.7,1.7-6.4,9-4.6,12.5c2.4,4.9,10.2,4.4,14.8,4.9
		c3.1,0.4,9.1-0.4,10.1,3.7c2,8-16.5,5.4-20.4,7.7c-5.2,3.1-5.3,10.6,0.9,12.3c5.3,1.5,11.7,1.3,17.1,0.6c2.5-0.3,5.9-0.7,5.8,2.8
		c-0.2,8-11.8,7.5-16.7,9.6c-7.2,3.2-9.9,16.9,1,15.9c4.9-0.5,9.8-2.2,14.2-4.4c1-0.5,2.1-1.1,3.2-1.2c1.7-0.1,3.4,0.9,4.1,2.5
		c3,7.1-7.9,11.5-12.1,15c-2.5,2.1-5.5,4.2-5.5,7.7c0,4.9,6.3,10.3,11,8.1c5.3-2.5,9.1-7.3,14.2-9.7c8.1-3.7,10.5,4.3,8.4,10.4
		c-1.4,3.9-4.4,9.7-3,14.2c2.2,7.4,9.2,6.7,13.8,2c3.3-3.4,5.2-11.6,9.7-13c14.6-4.7,4.8,20,7.1,25c5.3,11.7,14.5,1,17-5.8
		c1.8-5.1,2.1-16,10.4-13.3c5.2,1.7,5.8,9.1,6.4,13.6c0.6,4.5-1.1,9.9,3.5,12.8c15.9,9.8,17.1-11.6,16.5-21.4
		c-0.3-4.4,4-8.2,8.2-5.5c6.1,3.9,4.2,11.8,8.7,16.2c3.6,3.6,10.1,2.6,13.5-0.8c5.5-5.6,1.4-11-1.4-16.6c-6.1-12.5,3.8-18.8,14.5-12
		c2.8,1.8,6.3,5.4,9.8,3.3c5-2.9,6.3-8.6,4.2-13.8c-1-2.6-2.8-4.9-4.7-6.9c-2-2.1-2.5-3.8-4.8-5.6"/>
	<path class="st1" d="M-314.6-55.3c-1.5,3.7,2-4.5,1-6.6c-1.1-2.6-4.3-3.7-7.1-3.5c-8.2,0.6-12.4,9.2-9.8,16.4
		c4.9,13.5,19.6,17.6,32.2,12.3c6.2-2.6,9.8-6.3,12.6-12.3c3.7-7.9,4.4-17.5,1.5-25.8c-3.4-9.8-11.5-15.6-21.6-17
		c-2.4-0.3-4.9-0.5-7.3-0.6c-22.3-0.7-49.5,10.8-56.6,33.7c-4.2,13.4,0.3,28.4,6.6,40.5c4.7,9,13.1,16.9,21.5,22.6
		c17.8,12,39.2,10.3,58.5,3.3c14.1-5.1,27.6-11.7,40.4-19.3c6-3.6,12.1-7.3,17.7-11.4c5.8-4.1,11.3-8.2,18.3-9.9
		c11.2-2.8,23.6,3.6,30.4,12.4c4.9,6.3,6.9,16,4.6,23.7c-4.2,14.1-33.3,24.2-35.4,3.6c-0.6-5.6,3-11,8.3-13c2.8-1.1,6.5,0,8.5,2.3
		c1.6,1.8,2,5.8-0.2,6.2c-0.4,0.1,0.2-0.1,1.3-0.8"/>
</g>
<image style="display:none;overflow:visible;" width="240" height="240" xlink:href="84D45DB36E63891.png"  transform="matrix(1.0749 0 0 1.0749 248.5991 139.0984)">
</image>
<path class="st0" d="M-493.1,273c-9.4,1.7-19.4-4.8-20.1-14.7c-0.6-8.2,5.3-16,13.6-17c7-0.8,14.4,1.5,19.4,6.6
	c5.7,5.8,7.4,14.9,8,22.7c0.6,8.2,1.1,17.9-5.2,24.2c-1.4,1.4-3.2,2.5-5,3.3c-6.9,2.8-16.2,2.6-22.8-0.9
	c-6.7-3.5-10.3-10.6-12.7-17.5c-5.8-16.3-10.1-33.3-14.8-50c-3.4-12.1-8-24.9-3.8-37.5c0.1-0.4,0.3-0.7,0.4-1.1
	c2.7-7.2,7.4-13.7,13.5-18.4c9.1-7,21-8.2,32-7.4c0.5,0,1,0.1,1.6,0.1c8.1,0.8,18.2,2.9,23.7,9.4c6.7,7.9,9,20,10.5,29.9
	c1.5,9.7,2.2,19.8-0.1,29.5c-0.9,4-2.6,7.8-5.2,10.9"/>
<path class="st0" d="M-535.8,217.2c-13.1-5.5-28.5-5.5-39.6,4.2c-10.4,9.1-17.3,22.3-15.5,36.4c1.1,8.6,5.1,16.7,10.1,23.8
	c5.5,7.9,12.9,15.2,22.3,17.5c14.4,3.5,31.7-4.3,43.7-11.9"/>
<path class="st0" d="M-552.5,300.6c-5.5,18.6-4.7,41.2,7.1,57.3c12.8,17.4,39.7,21.8,59.5,16.1c12.2-3.5,19.1-12.5,22.3-24.5
	c3-11.3,4.8-24.6-1.4-35.1c-5.5-9.3-15.7-17.2-15.7-17.2"/>
<path class="st0" d="M-464.9,313.9c10.6,0.4,21.3,0.5,31.7-2c8.5-2.1,15.1-8,18.8-15.8c4.4-9.5,7.8-20.3,6.4-30.9
	c-1.3-9.8-7.1-18.9-15.7-23.9c-9.7-5.6-20.2-4.3-30.7-6.1"/>
<path class="st1" d="M-508.4,307c-1.5,5.5-3,11.1-3.1,16.8c-0.1,5.8,1.9,17.3,9.4,17.8c2.4,0.2,4.6-1.7,5.6-4
	c3.4-8.1,0.6-19.6,0.3-28.1"/>
<path class="st1" d="M-464.9,277.1c7.2,1.1,16.7,3.4,24,2.7c6.5-0.7,5.6-9.1,2.2-12.8c-5.1-5.6-19.3-3.3-26.2-3.9"/>
<path class="st1" d="M-500.1,219.6c0.6-5.4-0.5-21.5,5.9-23.7c12.5-4.3,7.3,21.8,7,27"/>
<path class="st1" d="M-540.7,250.7c-5-1.1-10.3-4.3-15.5-3.8c-5.6,0.5-10.9,9.1-3.9,12.2c4.9,2.1,13.1,1.9,18.5,2.8"/>
<image style="display:none;overflow:visible;" width="315" height="240" xlink:href="84D45DB36E63893.png"  transform="matrix(1.0572 0 0 1.0572 66.7837 50.9271)">
</image>
<g>
	<path class="st2" d="M346.3,249c-11.3-5.8-23.1-11.5-35.6-14c-5.6-1.1-11.2-1.6-16.9-1.8c-0.2,0-0.4,0-0.6,0
		c-5.2-0.3-10.4-0.4-15.5-0.7c-1.8-0.1-3.6-0.2-5.4-0.4"/>
	<path class="st2" d="M121,283.7c11.4-6.9,22.8-13.9,34.4-20.4c29.2-16.4,62.3-20.5,94.7-26.8c3.9-0.8,7.8-1.5,11.7-2.3
		c1.9-0.4,3.8-0.7,5.7-1.1c1.3-0.3,2.6-0.6,3.9-0.9c1.6-0.4,2.1-0.4,2.3-2.2c0.1-0.8,0.1-1.6,0.1-2.5c0-2.6-0.1-5.1-0.2-7.7
		c-0.4-5.1-1.1-10.1-2.2-15.1c-1.9-8.8-4.6-18.3-10.8-25.2C254,172.5,245,168,236,164.9c-2.5-0.9-5-1.9-2.7-4.6
		c6.3-7.4,15.1-12.2,23.7-16.4c21.8-10.6,45-15.6,68.5-20.6c1.2-0.2,2.4-0.5,3.5,0.1c2.1,1.2,2.3,5.1,3,7.1c0.9,2.8,2.2,5.5,3.7,8
		c2.9,4.8,7.1,9.2,12.5,11.3c8.2,3.2,18.4,1.5,26.2-1.9c7.6-3.3,11.2-11.1,12.9-18.7c1.5-6.7,1.9-14.3-0.6-20.7
		c-3.9-9.9-15.9-16.1-25-20.4c-11.1-5.3-23.1-8.6-35.1-11.1c-3.9-0.8-7.8-1.5-11.7-2.2c-13.4-2.3-26.9-3.8-40.4-4.5
		c-9.5-0.5-19-0.7-28.5-0.6c-5.4,0.1-10.8,0.2-16.1,0.6c-24.3,1.4-49.2,4.1-72.6,11.1c-2.2,0.6-4.3,1.3-6.4,2.1
		c-22.1,7.5-42.5,19.1-62.9,30.3"/>
	<path class="st2" d="M145.7,140.3c-4.7,10.3-3.5,23.6,3.3,32.5c6.2,8.3,15,14.1,23.9,19.2c4.2,2.5,8.6,4.6,13.2,6.5
		c4.5,1.8,9.1,3.3,13.4,5.5c3,1.6,5.9,3.4,8.6,5.6c3,2.5,4.3,6.1,4.8,9.9c0.5,3.7,0.3,7.5,0.4,11.2c0.1,4.1,0.1,8.2,0,12.3"/>
	<path class="st2" d="M112,220.7c-1.4-1.2-2.4-2.7-4.5-2.6c-1.8,0.2-3.5,1.1-4.4,2.7c-1.2,2-1.1,4.7,0.3,6.6
		c2.9,3.7,8.3,4.3,12.6,3.3c5.9-1.4,10.6-6.3,15.3-9.9c6-4.7,12.2-9.5,17.6-15c5.7-5.9,10.1-12.8,14.4-19.7"/>
	<path class="st2" d="M125.6,225c-0.8-5.7-3-14.9-7.3-18.8c-5.1-4.7-13.1-4.7-19.5-3.1c-13.2,3.3-18.5,18.4-17.7,30.7
		c0.5,7.1,4,13.3,8.9,18.4c5.5,5.6,11.6,8.7,19.6,8.6c16.8-0.1,35-4.4,47.6-16.1c6.4-6,13.1-11.6,19.6-17.5
		c3.6-3.3,7.3-6.7,10.8-10.1c3.4-3.4,6.4-7.1,9.6-10.7c0.7-0.8,1.4-1.6,2.2-2.3"/>
	<path class="st2" d="M228.8,108.8c23.1-12.2,46.9-21.9,72.5-27.9c6.8-1.6,13.6-3.4,20.4-5"/>
	<path class="st2" d="M181.8,75.4c2.8,8.5,8.5,14.3,16.2,18.6c7.5,4.2,15.7,6.2,23.4,9.9c4.3,2.1,8.1,5.2,10.7,9.2
		c2.9,4.4,3.5,9.8,4,14.9c1.1,11.7-1.1,24.5-5.2,35.5"/>
	<path class="st2" d="M181.8,142.5c1.5,4.4,4,8.6,7.6,11.6c4.3,3.6,9.9,5.1,15.4,6c9.2,1.5,18.3,3,27.7,3.4"/>
	<path class="st2" d="M118,97.5c2.3,10.8,5.4,22.7,12.4,31.5c7,9,17.9,13.9,29.1,14.9c6.2,0.5,12.5-0.2,18.6-1.2
		c2.6-0.4,5.3-0.9,7.9-0.2c5.1,1.2,7.6,7.9,6,12.6"/>
	<path class="st2" d="M150.2,98.3c-2.2,2.1-3.7,5-4.1,8c-0.8,6.6,3.4,14.7,10,16.8c5.3,1.7,10.5-0.6,13.6-5c3.3-4.7,4.7-11.6,2.2-17
		c-2.7-5.7-10.2-8-16-6.2C153.7,95.6,151.7,96.8,150.2,98.3z"/>
	<path class="st2" d="M192,108.9c-3.5,1.1-6.5,3.3-7.2,7.1c-0.6,3.4,0.7,7.2,3.6,9.1c4.2,2.8,10.1,1.1,13.6-2.2
		c4.2-4.1,3.9-12.4-2.2-14.4c-2.1-0.7-4.3-0.5-6.4,0C192.9,108.6,192.4,108.7,192,108.9z"/>
	<path class="st2" d="M214,126.9c-3.7,0.8-6.6,3.8-7.2,7.6c-0.5,3.4,0.7,7.2,4.2,8.3c1.5,0.5,3.2,0.5,4.8,0.2
		c1.7-0.3,3.4-0.8,4.8-1.8c2.8-2,3.4-5.8,2.5-8.9c-1-3.6-4-5.8-7.7-5.5C214.9,126.7,214.4,126.8,214,126.9z"/>
	<path class="st2" d="M166.9,236c-7-7.5-12.4-16.3-4.3-25.3c3.2-3.6,8.5-4.9,13.1-3.6c5.5,1.5,8.1,6.5,11,11"/>
	<path class="st2" d="M101.5,259.7c0.3-4.1,1.4-8.1,3.3-11.7c3-5.6,10.8-8.2,16.8-7.1c8.2,1.4,8.9,10.7,10.1,17.3"/>
	<path class="st3" d="M159.6,144.6c0.7,3.9,1.1,7.7,2.4,11.5c2.8,7.7,8.4,14.4,15,19.2c3.9,2.8,8.2,4.6,12.6,6.6
		c4.6,2.1,9.2,4.3,13.6,6.6c6.6,3.4,13,7.2,18.8,11.9c12,9.8,14,24.1,14,38.8"/>
	<path class="st3" d="M172.4,144.5c0.9,8.8,6.6,16.6,13.6,21.9c6.3,4.8,13.7,7.9,21,10.8c7.3,2.9,14.7,7,21.3,11.4
		c4.7,3.1,8.9,6.7,12.5,11c3.1,3.8,5.4,8.2,7.1,12.8c1.8,4.9,2.9,9.9,4,15c0.6,2.8,1.5,5.6,1.9,8.4c-0.1,0.1-0.1-0.1-0.1-0.1"/>
	<path class="st3" d="M235.3,121.7c10.7-4.8,21.5-9.4,32.4-13.6c15.3-5.8,33.6-10.7,49.9-11.4c9.5-0.4,19.1-0.3,28.4,1.9
		c6,1.4,12.2,3.4,17.1,7.4c4.7,3.8,8.1,9.6,8.2,15.7c0.1,6.8-5.3,12-12,12.4c-6.6,0.4-16.3-6.9-11-14.1c1.4-1.8,3-1.4,4.4,0.1
		c0.1,0.1,0.2,0.2,0.2,0.4c0,0.2,0,0.4-0.1,0.5c-0.4,1.1-1,2.3-0.7,3.4c0.4,1.3,1.8,2.1,3.1,2.6c1.4,0.5,3,0.8,4.5,0.8
		c1.1,0,2.3-0.1,3.2-0.6c3.4-2.1,0.5-8.3-1-10.8c-2.2-3.7-5.7-6.6-9.5-8.4c-9.4-4.5-21.4-4-31.6-3.1c-25,2.1-50,9.5-71.7,22.2
		c-4.4,2.6-8.8,5.4-12.9,8.5"/>
</g>
</svg>
