<?xml version="1.0" encoding="utf-8"?>
<!-- Generator: Adobe Illustrator 21.1.0, SVG Export Plug-In . SVG Version: 6.00 Build 0)  -->
<svg version="1.1" id="Calque_1" xmlns="http://www.w3.org/2000/svg" xmlns:xlink="http://www.w3.org/1999/xlink" x="0px" y="0px"
	 viewBox="0 0 202.6 112.8" style="enable-background:new 0 0 202.6 112.8;" xml:space="preserve">
<style type="text/css">
	.st0{fill:#F3E8CB;}
</style>
<title>spirale j</title>
<g>
	<path class="st0" d="M182.1,96.2L182.1,96.2 M181.8,95.7L181.8,95.7 M181.6,94.7L181.6,94.7 M57.3,0C46.2,0,34.1,2.9,23.8,8.6
		C13.6,14.4,5.2,23,1.6,34.4l0,0C0.5,38.1,0,41.9,0,45.7c0,10.4,3.8,21,8.4,30l0,0l0,0c4.8,9.2,13.3,17.2,21.8,23l0,0l0,0
		c9.5,6.4,19.9,9,30.5,9c0,0,0,0,0,0c9.7,0,19.6-2.2,28.9-5.5l0,0c14.1-5.1,27.7-11.6,40.6-19.4l0,0c6-3.6,12.1-7.3,17.8-11.5
		c5.6-4.1,11.2-8.1,17.9-9.7l0,0l0,0c1.7-0.4,3.5-0.6,5.3-0.6c0,0,0,0,0,0c4.6,0,9.2,1.4,13.4,3.6c4.2,2.3,7.9,5.5,10.7,9l0,0
		c3.4,4.3,5.3,10.4,5.3,16.3c0,2.3-0.3,4.5-0.9,6.5l0,0c-1.1,3.9-4.4,7.5-8.5,10.2c-4.1,2.7-9,4.4-13.4,4.4c0,0,0,0,0,0
		c-3,0-5.7-0.8-7.7-2.5c-2-1.7-3.4-4.3-3.9-8.3c0-0.3,0-0.6,0-0.8c0-4.9,3-9.4,7.7-11.1c0.7-0.2,1.4-0.3,2.2-0.3c0,0,0,0,0,0
		c2,0,3.9,0.8,5.3,2.4l0,0l0,0c0.3,0.3,0.6,0.8,0.8,1.4c0.2,0.6,0.3,1.2,0.3,1.7c0,0.5-0.1,0.9-0.2,1.1c-0.2,0.1-0.4,0.2-0.5,0.3
		c-0.1,0.1-0.2,0.1-0.3,0.2l-0.1,0.1l-0.1,0.1l-0.1,0.1c0,0-0.1,0.1-0.1,0.2c0,0.1-0.1,0.2-0.1,0.4c0,0.2,0.1,0.5,0.3,0.7
		c0.2,0.2,0.4,0.3,0.5,0.3c0.1,0,0.2,0,0.2,0c0.2,0,0.2,0,0.2,0l0.1,0c0.4-0.1,0.8-0.2,1.1-0.5c0.1-0.1,0.3-0.2,0.4-0.4
		c0,0,0.1-0.1,0.2-0.1l0-0.1c0.2-0.3,0.4-0.6,0.5-0.9c0.2-0.5,0.3-1.1,0.3-1.6c0-0.8-0.1-1.6-0.4-2.3c-0.3-0.8-0.6-1.5-1.2-2.1l0,0
		c-1.7-2-4.2-3-6.8-3c-0.9,0-1.9,0.1-2.8,0.5l0,0l0,0c-5.5,2-9,7.3-9,13c0,0.3,0,0.7,0,1l0,0l0,0c0.4,4.4,2.1,7.6,4.6,9.7
		c2.5,2.1,5.6,2.9,8.9,2.9c0,0,0,0,0,0c4.8,0,10.1-1.8,14.5-4.7c4.4-2.9,8-6.8,9.3-11.3l0,0c0.7-2.3,1-4.7,1-7.1
		c0-6.3-2.1-12.7-5.8-17.5l0,0c-2.9-3.8-6.9-7.2-11.3-9.6c-4.4-2.4-9.4-3.9-14.4-3.9c-1.9,0-3.8,0.2-5.7,0.7l0,0
		c-7.2,1.8-13.1,6-18.7,10.1c-5.6,4.1-11.6,7.8-17.6,11.3l0,0c-12.7,7.7-26.3,14.1-40.2,19.2l0,0c-9.2,3.3-18.8,5.4-28.2,5.4
		c0,0,0,0,0,0c-10.3,0-20.3-2.5-29.4-8.6l0,0c-8.3-5.6-16.6-13.5-21.2-22.2C5.6,66,2,55.7,2,45.7c0-3.6,0.5-7.2,1.6-10.7l0,0l0,0
		c3.4-10.8,11.4-19.1,21.3-24.6C34.7,4.8,46.5,2,57.3,2c0,0,0,0,0,0c0.6,0,1.3,0,1.9,0c2.4,0.1,4.8,0.3,7.2,0.6
		c5,0.7,9.4,2.4,12.9,5.1c3.6,2.7,6.3,6.4,8,11.1c1.1,3.5,1.7,7,1.7,10.6c0,5-1.1,9.9-3.2,14.5l0,0c-1.4,2.9-2.9,5.2-4.8,7.1
		c-1.9,1.9-4.3,3.4-7.3,4.7l0,0l0,0c-3.5,1.5-7.1,2.2-10.6,2.2c-4.4,0-8.6-1.2-12.2-3.5c-3.5-2.3-6.4-5.7-8.1-10.3l0,0
		c-0.5-1.3-0.7-2.7-0.7-4.1c0-2.7,0.9-5.4,2.6-7.4c1.7-2,4-3.4,7-3.6l0,0l0,0c0.2,0,0.4,0,0.5,0c0,0,0,0,0,0c1.2,0,2.4,0.3,3.3,0.8
		c1,0.5,1.7,1.2,2.1,2.1l0,0l0,0c0,0,0.1,0.3,0.1,0.6c0,1-0.4,2.5-0.7,3.8c-0.2,0.6-0.4,1.2-0.5,1.6c-0.1,0.2-0.1,0.4-0.2,0.5l0,0.1
		l0,0l0,0l0,0l0,0l0,0.1c0,0,0,0.1,0,0.2c0,0.1,0,0.2,0.1,0.4c0,0.1,0.1,0.2,0.2,0.3c0.1,0.1,0.4,0.3,0.7,0.3c0.3,0,0.4-0.1,0.5-0.1
		c0.2-0.1,0.2-0.2,0.3-0.2l0.1-0.1l0-0.1l0-0.1c0-0.1,0.1-0.4,0.4-0.9l0,0c0.2-0.7,0.5-1.6,0.8-2.7c0.3-1.1,0.5-2.2,0.5-3.2
		c0-0.5,0-1-0.3-1.5l0,0c-0.6-1.4-1.8-2.4-3.1-3.1c-1.3-0.7-2.8-1-4.3-1c-0.2,0-0.5,0-0.7,0l0,0c-3.6,0.3-6.5,1.9-8.4,4.3
		c-2,2.4-3,5.5-3.1,8.7c0,1.6,0.3,3.2,0.8,4.7l0,0l0,0c1.8,5,5,8.8,8.9,11.3c3.9,2.5,8.5,3.8,13.3,3.8c0,0,0,0,0,0
		c3.8,0,7.7-0.8,11.4-2.4c3.2-1.3,5.8-3,7.9-5.1c2.1-2.1,3.8-4.6,5.2-7.7l0,0c2.3-4.8,3.4-10.1,3.4-15.3c0-3.8-0.6-7.6-1.7-11.2l0,0
		l0,0c-1.8-5.1-4.8-9.1-8.6-12.1c-3.9-2.9-8.6-4.8-13.9-5.5l0,0l0,0c-2.4-0.3-5-0.5-7.4-0.6l0,0l0,0C58.6,0,57.9,0,57.3,0"/>
</g>
</svg>
